<svg width="60" height="58" viewBox="0 0 60 58" fill="none" xmlns="http://www.w3.org/2000/svg">
<path d="M60 22.2222C60 37.5635 46.5685 50 30 50C13.4315 50 0 37.5635 0 22.2222C0 6.88098 13.4315 0 30 0C46.5685 0 60 6.88098 60 22.2222Z" fill="#1EBFE2"/>
<path d="M59.5 30.2222C59.5 45.2518 46.3293 57.5 30 57.5C13.6707 57.5 0.5 45.2518 0.5 30.2222C0.5 22.723 3.77079 17.3212 9.06513 13.7735C14.3835 10.2097 21.7743 8.5 30 8.5C38.2257 8.5 45.6165 10.2097 50.9349 13.7735C56.2292 17.3212 59.5 22.723 59.5 30.2222Z" stroke="#231F20"/>
</svg>
