<svg width="100" height="104" viewBox="0 0 100 104" fill="none" xmlns="http://www.w3.org/2000/svg">
<path d="M100 40C100 67.6142 77.6142 90 50 90C22.3858 90 0 67.6142 0 40C0 12.3858 22.3858 0 50 0C77.6142 0 100 12.3858 100 40Z" fill="#F5DE08"/>
<path d="M99.5 54C99.5 81.3381 77.3381 103.5 50 103.5C22.6619 103.5 0.5 81.3381 0.5 54C0.5 40.3478 6.02388 30.5007 14.9378 24.0497C23.8731 17.5832 36.258 14.5 50 14.5C63.742 14.5 76.1269 17.5832 85.0622 24.0497C93.9761 30.5007 99.5 40.3478 99.5 54Z" stroke="#231F20"/>
<path d="M40.66 49.53C42.16 50.19 43.33 51.18 44.17 52.5C45.01 53.82 45.43 55.38 45.43 57.18C45.43 59.76 44.62 61.86 43 63.48C41.38 65.04 39.31 65.82 36.79 65.82C34.27 65.82 32.17 65.01 30.49 63.39C28.87 61.77 28.06 59.7 28.06 57.18C28.06 55.98 28.21 54.78 28.51 53.58C28.81 52.38 29.47 50.58 30.49 48.18L35.71 35.22H44.62L40.66 49.53ZM63.423 34.5C65.943 34.5 68.013 35.31 69.633 36.93C71.253 38.49 72.063 40.56 72.063 43.14C72.063 44.34 71.913 45.54 71.613 46.74C71.313 47.94 70.683 49.74 69.723 52.14L64.503 65.1H55.593L59.463 50.88C57.963 50.22 56.793 49.23 55.953 47.91C55.113 46.59 54.693 45 54.693 43.14C54.693 40.56 55.503 38.49 57.123 36.93C58.803 35.31 60.903 34.5 63.423 34.5Z" fill="white"/>
</svg>
