<svg width="100" height="80" viewBox="0 0 100 80" fill="none" xmlns="http://www.w3.org/2000/svg">
<path d="M100 35.5556C100 60.1015 77.6142 80 50 80C22.3858 80 0 60.1015 0 35.5556C0 11.0096 22.3858 0 50 0C77.6142 0 100 11.0096 100 35.5556Z" fill="#FFE9BE"/>
<path fill-rule="evenodd" clip-rule="evenodd" d="M26 37.1676C26.2078 36.9309 26.1664 36.6207 26.2322 36.3446C27.2954 31.8783 31.233 28.7542 35.7135 28.8313C40.3099 28.9104 44.1435 32.1376 45.041 36.6994C45.0919 36.9581 45.1435 37.0686 45.4364 37.0682C53.3237 37.0598 61.211 37.0614 69.0983 37.0604C69.1273 37.0604 69.1562 37.0489 69.1913 37.0415C69.2124 36.8813 69.0657 36.8409 68.9825 36.7656C68.2744 36.1255 67.5568 35.4959 66.8507 34.8537C66.1922 34.2548 66.1149 33.4202 66.6475 32.8104C67.1766 32.2045 68.0453 32.1588 68.6975 32.7345C70.2578 34.1118 71.8148 35.493 73.3566 36.891C74.34 37.7828 74.3416 39.1304 73.3565 40.0272C71.8174 41.428 70.2603 42.8093 68.7016 44.1884C68.047 44.7678 67.1827 44.7256 66.6512 44.1185C66.1153 43.5066 66.1893 42.6724 66.8464 42.0751C67.6278 41.365 68.4184 40.6651 69.2951 39.8802C69.0315 39.8802 68.8828 39.8802 68.734 39.8802C61.0189 39.8802 53.3037 39.8822 45.5886 39.8731C45.2452 39.8727 45.0969 39.9208 45.0154 40.3141C44.0008 45.2046 39.7433 48.41 34.774 48.0548C30.6331 47.7591 26.9328 44.4368 26.1836 40.3486C26.1436 40.1301 26.1674 39.8881 26 39.7039C26 38.8585 26 38.013 26 37.1676ZM42.2122 37.0622C41.6687 33.8834 38.4215 31.3913 35.2213 31.6647C31.5615 31.9774 28.845 34.8266 28.8183 38.3806C28.7918 41.9083 31.4853 44.9361 34.9185 45.2381C38.391 45.5434 41.6018 43.2002 42.2119 39.8802C42.0534 39.8802 41.9011 39.8802 41.7488 39.8802C40.4509 39.8802 39.1529 39.8781 37.855 39.8814C37.4305 39.8825 37.053 39.7642 36.7429 39.4697C36.3387 39.0858 36.2112 38.4826 36.4144 37.9594C36.6281 37.4091 37.103 37.0683 37.7164 37.0649C39.2128 37.0566 40.7095 37.0622 42.2122 37.0622Z" fill="#231F20"/>
<path fill-rule="evenodd" clip-rule="evenodd" d="M63.3462 28.5255C60.8134 28.5255 58.2805 28.5315 55.7477 28.5227C54.6371 28.519 53.9384 27.4755 54.4003 26.5209C54.6716 25.9604 55.1427 25.7053 55.7637 25.7064C57.6399 25.7094 59.5161 25.7074 61.3923 25.7074C64.5662 25.7075 67.7402 25.7032 70.914 25.7098C72.0236 25.712 72.7231 26.754 72.2615 27.7104C71.981 28.2918 71.4876 28.5291 70.8511 28.5277C68.3493 28.5224 65.8478 28.5255 63.3462 28.5255Z" fill="#231F20"/>
<path fill-rule="evenodd" clip-rule="evenodd" d="M42.5864 53.9822C45.0587 53.9822 47.531 53.9811 50.0033 53.9826C50.9531 53.9832 51.6038 54.5461 51.6182 55.3728C51.6328 56.2116 50.9664 56.7997 49.9934 56.7999C45.0332 56.8008 40.0729 56.8008 35.1127 56.7999C34.1526 56.7997 33.518 56.2471 33.5085 55.4097C33.4988 54.5507 34.1387 53.9829 35.1226 53.9826C37.6106 53.9813 40.0986 53.9822 42.5864 53.9822Z" fill="#231F20"/>
<path fill-rule="evenodd" clip-rule="evenodd" d="M51.4231 21.0109C53.3936 21.0111 55.3644 21.0047 57.3348 21.0142C58.0988 21.018 58.6868 21.5653 58.7613 22.2993C58.8295 22.968 58.355 23.6208 57.664 23.7871C57.4997 23.8267 57.3234 23.8271 57.1528 23.8272C53.321 23.8293 49.4894 23.8297 45.6578 23.8283C44.7174 23.8279 44.063 23.2479 44.0607 22.4222C44.0582 21.5975 44.7146 21.0123 45.6521 21.0112C47.5758 21.0093 49.4995 21.0106 51.4231 21.0109Z" fill="#231F20"/>
<path fill-rule="evenodd" clip-rule="evenodd" d="M54.4569 52.1035C52.5489 52.1035 50.641 52.1046 48.7331 52.103C47.7909 52.1023 47.1398 51.5259 47.1384 50.6974C47.137 49.8694 47.7887 49.2864 48.7287 49.2861C52.5759 49.2842 56.423 49.2841 60.2702 49.2863C61.1989 49.2869 61.8605 49.8938 61.8433 50.7165C61.8263 51.5307 61.1848 52.1017 60.2746 52.1028C58.3353 52.1052 56.3962 52.1036 54.4569 52.1035Z" fill="#231F20"/>
<path fill-rule="evenodd" clip-rule="evenodd" d="M63.099 23.8274C62.7234 23.8273 62.3471 23.8418 61.9724 23.8244C61.2009 23.7883 60.6239 23.1783 60.6239 22.419C60.6239 21.6608 61.203 21.039 61.9731 21.0168C62.7392 20.9946 63.5071 20.9942 64.2733 21.0167C65.0367 21.0391 65.6286 21.6725 65.6281 22.4198C65.6275 23.1673 65.0366 23.7891 64.2726 23.8243C63.8822 23.8423 63.4902 23.8274 63.099 23.8274Z" fill="#231F20"/>
<path fill-rule="evenodd" clip-rule="evenodd" d="M47.2328 31.2482C46.8571 31.2483 46.4812 31.2603 46.106 31.2459C45.3227 31.2158 44.7007 30.5745 44.7119 29.8237C44.7233 29.0633 45.3455 28.4465 46.1363 28.4339C46.8717 28.4223 47.6077 28.4191 48.3429 28.435C49.1235 28.4518 49.7482 29.1013 49.7371 29.8542C49.7261 30.5956 49.1243 31.2115 48.3596 31.2451C47.9846 31.2616 47.6084 31.248 47.2328 31.2482Z" fill="#231F20"/>
<path fill-rule="evenodd" clip-rule="evenodd" d="M49.0994 45.3363C48.7251 45.3367 48.3503 45.3489 47.9765 45.3343C47.1997 45.304 46.5805 44.6584 46.594 43.9089C46.6074 43.1684 47.2075 42.545 47.9666 42.5252C48.7303 42.5051 49.4955 42.5036 50.2591 42.5263C51.0155 42.5487 51.6151 43.1847 51.6188 43.9223C51.6225 44.6548 51.0211 45.2937 50.2691 45.3324C49.8801 45.3523 49.4893 45.3358 49.0994 45.3363Z" fill="#231F20"/>
<path fill-rule="evenodd" clip-rule="evenodd" d="M42.7674 52.1029C42.3918 52.1028 42.0157 52.1157 41.6407 52.1001C40.8779 52.0683 40.2808 51.45 40.2757 50.7047C40.2706 49.959 40.86 49.3183 41.6218 49.2932C42.3879 49.268 43.1558 49.27 43.922 49.2914C44.6967 49.313 45.2755 49.9266 45.2804 50.6856C45.2854 51.4633 44.6918 52.0751 43.8941 52.1009C43.5189 52.1131 43.143 52.103 42.7674 52.1029Z" fill="#231F20"/>
<path fill-rule="evenodd" clip-rule="evenodd" d="M58.704 56.7077C59.0782 56.7077 59.4532 56.6943 59.8268 56.7105C60.5813 56.7433 61.1845 57.3671 61.1922 58.1041C61.1999 58.8376 60.6015 59.4908 59.8483 59.5161C59.0693 59.5423 58.2882 59.5424 57.5093 59.5161C56.7582 59.4906 56.1585 58.8342 56.1672 58.1023C56.176 57.3658 56.7796 56.7425 57.5344 56.7105C57.9235 56.694 58.314 56.7076 58.704 56.7077Z" fill="#231F20"/>
</svg>
