<svg width="24" height="24" viewBox="0 0 24 24" fill="none" xmlns="http://www.w3.org/2000/svg">
<path d="M14.3281 12.1406C14.3281 11.8698 14.2969 11.5365 14.2344 11.1406H8.57812V13.2031H11.9688C11.9375 13.4531 11.8516 13.7135 11.7109 13.9844C11.5703 14.2552 11.375 14.5312 11.125 14.8125C10.875 15.0938 10.5286 15.3255 10.0859 15.5078C9.64323 15.6901 9.14062 15.7812 8.57812 15.7812C7.54688 15.7812 6.66667 15.4115 5.9375 14.6719C5.20833 13.9323 4.84375 13.0417 4.84375 12C4.84375 10.9583 5.20833 10.0677 5.9375 9.32812C6.66667 8.58854 7.54688 8.21875 8.57812 8.21875C9.53646 8.21875 10.3333 8.52604 10.9688 9.14062L12.5938 7.5625C11.4688 6.52083 10.1302 6 8.57812 6C6.91146 6 5.49479 6.58594 4.32812 7.75781C3.16146 8.92969 2.57812 10.3438 2.57812 12C2.57812 13.6562 3.16146 15.0703 4.32812 16.2422C5.49479 17.4141 6.91146 18 8.57812 18C10.2969 18 11.6849 17.4531 12.7422 16.3594C13.7995 15.2656 14.3281 13.8594 14.3281 12.1406ZM19.7188 12.8594H21.4219V11.1406H19.7188V9.42188H18V11.1406H16.2812V12.8594H18V14.5781H19.7188V12.8594ZM24 4.5V19.5C24 20.7396 23.5599 21.7995 22.6797 22.6797C21.7995 23.5599 20.7396 24 19.5 24H4.5C3.26042 24 2.20052 23.5599 1.32031 22.6797C0.440104 21.7995 0 20.7396 0 19.5V4.5C0 3.26042 0.440104 2.20052 1.32031 1.32031C2.20052 0.440104 3.26042 0 4.5 0H19.5C20.7396 0 21.7995 0.440104 22.6797 1.32031C23.5599 2.20052 24 3.26042 24 4.5Z" fill="#58585A"/>
</svg>
