<svg width="100" height="80" viewBox="0 0 100 80" fill="none" xmlns="http://www.w3.org/2000/svg">
<path d="M100 35.5556C100 60.1015 77.6142 80 50 80C22.3858 80 0 60.1015 0 35.5556C0 11.0096 22.3858 0 50 0C77.6142 0 100 11.0096 100 35.5556Z" fill="#FFE9BE"/>
<path fill-rule="evenodd" clip-rule="evenodd" d="M50.375 16C51.1775 16.3717 51.4432 17.0026 51.4197 17.8731C51.3741 19.5713 51.4085 21.2716 51.4055 22.971C51.4037 23.9026 50.8113 24.5442 49.9763 24.5302C49.1608 24.5164 48.5958 23.8832 48.5943 22.9709C48.5916 21.2715 48.6263 19.5712 48.5799 17.873C48.5561 17.0016 48.8205 16.3705 49.6249 16C49.8749 16 50.125 16 50.375 16Z" fill="#231F20"/>
<path fill-rule="evenodd" clip-rule="evenodd" d="M26 39.6249C26.3718 38.8224 27.0015 38.5558 27.8735 38.5798C29.5716 38.6265 31.2719 38.5916 32.9712 38.5941C33.8841 38.5955 34.5165 39.16 34.5299 39.9762C34.5437 40.8128 33.9036 41.4037 32.9711 41.4055C31.2718 41.4082 29.5714 41.3737 27.8734 41.4197C27.0021 41.4434 26.3725 41.176 26 40.3749C26 40.1248 26 39.8749 26 39.6249Z" fill="#231F20"/>
<path fill-rule="evenodd" clip-rule="evenodd" d="M73.9999 40.3749C73.6281 41.1877 72.9868 41.4429 72.1141 41.4194C70.4281 41.3741 68.7399 41.4076 67.0525 41.4056C66.108 41.4044 65.4676 40.8308 65.4697 39.9953C65.4718 39.1618 66.1129 38.5949 67.0609 38.594C68.7482 38.5924 70.4364 38.6261 72.1225 38.5801C72.9944 38.5563 73.629 38.8175 74 39.6249C73.9999 39.8749 73.9999 40.1248 73.9999 40.3749Z" fill="#231F20"/>
<path fill-rule="evenodd" clip-rule="evenodd" d="M49.625 63.9999C48.8189 63.6282 48.5561 62.9946 48.5801 62.1224C48.6264 60.4367 48.5924 58.7487 48.5941 57.0618C48.5951 56.1112 49.1591 55.4727 49.9941 55.4693C50.8299 55.466 51.4044 56.1059 51.4057 57.0505C51.4081 58.7845 51.3829 60.5188 51.4162 62.252C51.433 63.1244 51.1076 63.708 50.2812 63.9998C50.0624 63.9999 49.8437 63.9999 49.625 63.9999Z" fill="#231F20"/>
<path fill-rule="evenodd" clip-rule="evenodd" d="M49.9812 27.3436C56.9548 27.3331 62.6447 33.006 62.6562 39.9807C62.6677 46.9527 56.9914 52.6457 50.0181 52.6562C43.0475 52.6669 37.3534 46.9889 37.3436 40.0178C37.334 33.0448 43.0083 27.354 49.9812 27.3436ZM59.8431 40.0013C59.8443 34.5861 55.4377 30.1677 50.0251 30.1566C44.5894 30.1452 40.1577 34.5646 40.1567 39.9976C40.1557 45.4106 44.5631 49.8309 49.9739 49.8433C55.4081 49.8555 59.8421 45.4339 59.8431 40.0013Z" fill="#231F20"/>
<path fill-rule="evenodd" clip-rule="evenodd" d="M29.8678 21.2633C29.8811 20.1876 31.0659 19.5214 31.9936 20.0745C32.1519 20.1688 32.2914 20.3009 32.423 20.4322C34.5877 22.5922 36.7477 24.7567 38.914 26.915C39.274 27.2736 39.5202 27.6751 39.4625 28.1969C39.4014 28.7513 39.1109 29.1639 38.585 29.3689C38.0237 29.5877 37.5038 29.4721 37.0734 29.0582C36.4774 28.4853 35.9003 27.8925 35.3156 27.3079C33.6828 25.6751 32.0535 24.0389 30.4153 22.4114C30.0901 22.0885 29.884 21.7255 29.8678 21.2633Z" fill="#231F20"/>
<path fill-rule="evenodd" clip-rule="evenodd" d="M68.7312 19.8678C69.8064 19.8767 70.4764 21.0585 69.9284 21.9899C69.8427 22.1354 69.725 22.2664 69.6047 22.3868C67.4222 24.5733 65.2358 26.7557 63.0538 28.9426C62.6934 29.3038 62.2829 29.5292 61.761 29.4574C61.2053 29.3809 60.8064 29.074 60.6149 28.5464C60.4162 27.9993 60.538 27.4938 60.9371 27.0765C61.4331 26.5579 61.9491 26.0586 62.4566 25.5512C64.1667 23.8411 65.8796 22.1339 67.5842 20.4184C67.907 20.0936 68.2687 19.8846 68.7312 19.8678Z" fill="#231F20"/>
<path fill-rule="evenodd" clip-rule="evenodd" d="M29.8665 58.7465C29.8825 58.3522 30.0131 57.9955 30.3037 57.705C32.5542 55.4543 34.8001 53.1989 37.0587 50.9564C37.6382 50.3811 38.4807 50.3847 39.0373 50.9171C39.606 51.461 39.6402 52.3367 39.0538 52.9288C36.8032 55.2012 34.539 57.4604 32.2691 59.7138C31.8331 60.1468 31.2931 60.249 30.716 60.0026C30.1725 59.7704 29.9251 59.3262 29.8665 58.7465Z" fill="#231F20"/>
<path fill-rule="evenodd" clip-rule="evenodd" d="M60.5212 51.94C60.5127 50.9282 61.5771 50.2363 62.5027 50.6592C62.6557 50.7291 62.8085 50.8238 62.927 50.9418C65.1928 53.1993 67.4599 55.4556 69.7111 57.7279C70.2839 58.3062 70.2624 59.1594 69.7237 59.7061C69.1694 60.2685 68.3049 60.2845 67.7114 59.6953C65.4525 57.4529 63.2068 55.1973 60.9562 52.9464C60.678 52.6685 60.549 52.3262 60.5212 51.94Z" fill="#231F20"/>
<path fill-rule="evenodd" clip-rule="evenodd" d="M31.8353 48.9277C31.1739 48.9343 30.6229 48.5197 30.4505 47.8858C30.2861 47.2813 30.5622 46.5697 31.1511 46.3021C32.0996 45.8713 33.0649 45.4722 34.0419 45.1107C34.6544 44.884 35.3571 45.2307 35.6593 45.8202C35.971 46.4281 35.8381 47.2203 35.2403 47.565C34.2436 48.1396 33.1528 48.5236 32.068 48.9072C31.9969 48.9325 31.9132 48.9222 31.8353 48.9277Z" fill="#231F20"/>
<path fill-rule="evenodd" clip-rule="evenodd" d="M68.1619 48.9292C67.9908 48.919 67.824 48.9023 67.6602 48.8339C66.7987 48.4745 65.9284 48.1354 65.0719 47.7648C64.3111 47.4355 63.9892 46.625 64.3013 45.9018C64.6034 45.2018 65.3906 44.8708 66.1403 45.1654C67.0233 45.5122 67.9005 45.8764 68.7666 46.2633C69.3984 46.5455 69.7114 47.2126 69.5626 47.8442C69.4097 48.4946 68.8426 48.9335 68.1619 48.9292Z" fill="#231F20"/>
<path fill-rule="evenodd" clip-rule="evenodd" d="M31.8938 31.0706C31.9619 31.084 32.1393 31.091 32.2941 31.1535C33.203 31.52 34.1162 31.8778 35.0089 32.2812C35.7172 32.6014 35.9967 33.4043 35.6981 34.0975C35.4024 34.7834 34.6279 35.1247 33.9047 34.8447C33.0059 34.4964 32.1144 34.1266 31.2329 33.7362C30.6034 33.4573 30.2871 32.7844 30.4358 32.1549C30.5844 31.5249 31.1413 31.08 31.8938 31.0706Z" fill="#231F20"/>
<path fill-rule="evenodd" clip-rule="evenodd" d="M58.9273 58.1403C58.93 58.8361 58.5094 59.3861 57.8748 59.5522C57.2682 59.7111 56.5654 59.4292 56.2976 58.8375C55.8743 57.9026 55.482 56.952 55.1229 55.9906C54.8849 55.3529 55.2232 54.6417 55.8318 54.3362C56.4567 54.0223 57.2662 54.1848 57.6017 54.8056C58.1337 55.7896 58.5196 56.8455 58.9033 57.8974C58.9343 57.9821 58.9224 58.0828 58.9273 58.1403Z" fill="#231F20"/>
<path fill-rule="evenodd" clip-rule="evenodd" d="M44.9413 24.3478C44.9478 25.04 44.5135 25.6093 43.8918 25.7636C43.2537 25.9218 42.5878 25.6632 42.313 25.0639C41.8856 24.1311 41.4858 23.1833 41.1292 22.2214C40.8863 21.5661 41.2527 20.824 41.8744 20.5348C42.5031 20.2423 43.3064 20.434 43.633 21.0575C44.1453 22.035 44.5241 23.0766 44.9157 24.1092C44.9478 24.1934 44.9363 24.2941 44.9413 24.3478Z" fill="#231F20"/>
<path fill-rule="evenodd" clip-rule="evenodd" d="M55.0584 24.3518C55.0402 24.1734 55.1111 23.9812 55.1874 23.7941C55.523 22.9732 55.8563 22.1511 56.2061 21.3364C56.5467 20.5436 57.3495 20.2021 58.0871 20.5174C58.8029 20.8236 59.1179 21.6238 58.808 22.4029C58.4688 23.2558 58.1216 24.1059 57.7549 24.9472C57.4684 25.6048 56.8081 25.9278 56.1489 25.7726C55.491 25.6176 55.0494 25.0554 55.0584 24.3518Z" fill="#231F20"/>
<path fill-rule="evenodd" clip-rule="evenodd" d="M41.0717 58.0865C41.07 57.9745 41.1107 57.7791 41.1901 57.5887C41.5374 56.756 41.8712 55.9175 42.2285 55.0892C42.5594 54.3221 43.3529 53.9909 44.0815 54.2921C44.7853 54.583 45.1295 55.3757 44.8381 56.1222C44.4931 57.0059 44.1282 57.8826 43.7447 58.7502C43.4659 59.3811 42.7967 59.708 42.1731 59.567C41.5204 59.4194 41.0696 58.8519 41.0717 58.0865Z" fill="#231F20"/>
<path fill-rule="evenodd" clip-rule="evenodd" d="M65.644 34.9416C64.9565 34.9462 64.3885 34.5093 64.2344 33.8866C64.0765 33.248 64.3368 32.5868 64.9401 32.3109C65.8734 31.8842 66.821 31.4835 67.7832 31.1279C68.4402 30.8849 69.1775 31.2532 69.4668 31.8792C69.7581 32.5096 69.564 33.3082 68.9378 33.6359C67.9599 34.1475 66.9195 34.5293 65.8854 34.9166C65.8006 34.9482 65.7 34.9366 65.644 34.9416Z" fill="#231F20"/>
</svg>
