<svg width="100" height="80" viewBox="0 0 100 80" fill="none" xmlns="http://www.w3.org/2000/svg">
<path d="M100 35.5556C100 60.1015 77.6142 80 50 80C22.3858 80 0 60.1015 0 35.5556C0 11.0096 22.3858 0 50 0C77.6142 0 100 11.0096 100 35.5556Z" fill="#FFE9BE"/>
<path d="M25 25.25V45.875" stroke="#231F20" stroke-width="2" stroke-linecap="round" stroke-linejoin="round"/>
<path d="M30.7227 64.4377C37.5805 53.919 51.657 50.9541 62.15 57.8119C64.8055 59.5393 67.0484 61.7822 68.7758 64.4377" stroke="#231F20" stroke-width="2" stroke-linecap="round" stroke-linejoin="round"/>
<path d="M74.5 25.25L49.75 33.5L25 25.25L49.75 17L74.5 25.25Z" stroke="#231F20" stroke-width="2" stroke-linecap="round" stroke-linejoin="round"/>
<path d="M60.3977 29.9424C65.7859 35.8205 65.3734 44.9471 59.4953 50.3354C53.6172 55.7236 44.4906 55.3111 39.1023 49.433C34.0492 43.9158 34.0492 35.4596 39.1023 29.9424" stroke="#231F20" stroke-width="2" stroke-linecap="round" stroke-linejoin="round"/>
</svg>
