<svg width="100" height="80" viewBox="0 0 100 80" fill="none" xmlns="http://www.w3.org/2000/svg">
<path d="M100 35.5556C100 60.1015 77.6142 80 50 80C22.3858 80 0 60.1015 0 35.5556C0 11.0096 22.3858 0 50 0C77.6142 0 100 11.0096 100 35.5556Z" fill="#FFE9BE"/>
<path fill-rule="evenodd" clip-rule="evenodd" d="M51.1249 63.9989C50.8803 63.8203 50.5746 63.8288 50.3023 63.7323C49.4034 63.4141 48.8178 62.8334 48.6877 61.863C48.661 61.6644 48.6104 61.6018 48.3976 61.6368C47.218 61.8315 46.4286 61.2741 45.8509 60.3014C44.6488 58.2781 45.0374 56.3611 46.2232 54.4942C46.7613 53.6468 47.4422 52.9188 48.2039 52.1854C47.5693 52.0563 46.9809 51.9535 46.4012 51.8148C45.2833 51.5475 44.2318 51.1177 43.3323 50.3877C41.985 49.2945 41.3842 47.8673 41.5378 46.1383C41.6066 45.3649 42.0226 44.7945 42.7025 44.4387C42.9418 44.3135 43.0128 44.235 42.8704 43.9695C42.4242 43.1382 42.5729 42.3413 43.0956 41.5951C44.2952 39.8822 46.2968 39.1792 48.5287 39.6626C49.6956 39.9152 50.7767 40.3818 51.8634 40.9774C51.7288 40.1282 51.5989 39.3313 51.5943 38.5211C51.5893 37.6566 51.6847 36.807 51.9614 35.9853C52.5341 34.2848 53.7003 33.2141 55.4322 32.7629C56.2239 32.5568 56.9198 32.7719 57.4995 33.329C57.6899 33.5123 57.7783 33.5732 57.998 33.3472C58.665 32.6606 59.4771 32.5472 60.3694 32.8404C62.3737 33.4993 63.6676 35.2262 63.8768 37.4804C64.0566 39.4192 63.6998 41.2699 63.0257 43.0739C62.8437 43.5611 62.4204 43.7743 61.991 43.6257C61.5455 43.4717 61.3463 43.0253 61.5328 42.5137C62.0946 40.9725 62.4391 39.3959 62.2795 37.7473C62.1392 36.2968 61.57 35.1002 60.1546 34.4696C59.4189 34.1418 59.1242 34.2573 58.7781 34.9793C58.7109 35.1196 58.6524 35.2642 58.5853 35.4046C58.4114 35.7674 58.2078 36.1122 57.7425 36.1097C57.2816 36.1073 57.0654 35.7816 56.9044 35.4044C56.8311 35.2327 56.7571 35.0609 56.6767 34.8925C56.3855 34.2833 56.1067 34.1655 55.4769 34.4129C54.1724 34.9251 53.5119 35.9456 53.2818 37.2768C52.9919 38.953 53.2989 40.5673 53.8377 42.1523C53.8778 42.2702 53.9134 42.39 53.9599 42.5054C54.1183 42.8998 54.0618 43.2495 53.7126 43.5067C53.3631 43.7639 53.0109 43.7105 52.6814 43.4472C51.7625 42.7132 50.7767 42.091 49.6787 41.659C48.6202 41.2426 47.5403 40.9685 46.3918 41.2157C45.5797 41.3905 44.9254 41.815 44.4345 42.4829C44.1228 42.907 44.1401 43.1877 44.4996 43.5641C44.7258 43.8011 44.99 44.0027 45.2066 44.2474C45.6964 44.8009 45.4597 45.4769 44.7324 45.614C44.4568 45.666 44.1741 45.6788 43.8951 45.7129C43.3019 45.7857 43.0727 46.0531 43.1023 46.6502C43.1512 47.6369 43.5462 48.4576 44.3025 49.0969C45.2903 49.9324 46.4794 50.2858 47.7221 50.4921C48.5709 50.6331 49.4284 50.6903 50.2896 50.6398C50.7243 50.6143 51.0728 50.7492 51.2116 51.1879C51.3482 51.6192 51.1637 51.9396 50.7962 52.1816C49.4774 53.0493 48.32 54.0889 47.4915 55.4468C46.7581 56.649 46.438 57.9154 47.1085 59.2648C47.5655 60.184 47.9095 60.2781 48.8043 59.7658C49.2197 59.5279 49.6361 59.1915 50.1335 59.5605C50.6276 59.927 50.4417 60.4273 50.3368 60.8949C50.1158 61.878 50.3043 62.1553 51.3017 62.3268C52.5356 62.5389 53.5389 62.0784 54.4047 61.2553C55.6386 60.0823 56.3275 58.5891 56.8387 56.9986C56.8863 56.8504 56.9169 56.6968 56.9649 56.5488C57.0879 56.1695 57.3335 55.9334 57.7495 55.9366C58.1625 55.9396 58.4187 56.1643 58.528 56.5535C58.7305 57.2746 58.9748 57.9805 59.2948 58.6579C59.7577 59.6382 60.3204 60.5539 61.126 61.2936C62.1057 62.1928 63.2251 62.6262 64.5619 62.2429C65.1646 62.0701 65.3157 61.8231 65.2134 61.2097C65.1622 60.9021 65.0796 60.5973 65.0575 60.2879C65.0096 59.6187 65.5388 59.2353 66.162 59.4901C66.4625 59.613 66.7352 59.8027 67.0266 59.9494C67.5209 60.1982 67.838 60.1218 68.1508 59.661C68.8237 58.6696 68.917 57.6019 68.5058 56.4922C67.9082 54.8796 66.7384 53.7219 65.4229 52.688C65.1903 52.5051 64.944 52.3383 64.6953 52.1778C64.3253 51.9392 64.1382 51.6148 64.2807 51.1852C64.4234 50.7549 64.7673 50.6202 65.2069 50.6389C66.7818 50.7066 68.3274 50.5461 69.7953 49.9339C71.1332 49.3761 72.1317 48.5072 72.3654 46.9772C72.4994 46.0989 72.2825 45.8017 71.409 45.6964C71.1612 45.6665 70.9079 45.652 70.6687 45.5875C70.0276 45.4149 69.8302 44.7844 70.2592 44.2749C70.4286 44.0736 70.6421 43.9088 70.8379 43.7303C71.405 43.2132 71.423 42.893 70.9178 42.3004C69.8882 41.0929 68.5718 40.9355 67.1231 41.2646C66.956 41.3027 66.7931 41.3632 66.6246 41.3902C66.2107 41.4566 65.8427 41.2127 65.7307 40.8123C65.6226 40.4256 65.7755 40.0216 66.1643 39.8892C68.3757 39.136 71.0052 39.3837 72.5505 41.8405C72.9884 42.5369 72.9968 43.2836 72.6184 44.0273C72.5684 44.1255 72.3785 44.2599 72.6217 44.3585C73.3716 44.6632 73.7569 45.2708 74 45.9993C74 46.4681 74 46.9369 74 47.4056C73.8347 47.478 73.8818 47.6491 73.8524 47.77C73.5763 48.9107 72.9434 49.8071 72.0142 50.5043C71.2581 51.0716 70.4046 51.4392 69.5054 51.7125C68.7984 51.9275 68.0666 52.0313 67.2466 52.1721C67.431 52.3398 67.5481 52.4394 67.6573 52.5469C68.4162 53.294 69.0929 54.106 69.6012 55.0472C70.5573 56.8182 70.6968 58.5914 69.6055 60.3661C69.0344 61.2949 68.2542 61.8225 67.1206 61.645C66.8899 61.609 66.8228 61.6809 66.7936 61.8958C66.6573 62.8924 66.0366 63.4625 65.116 63.7533C64.83 63.8437 64.5389 63.9175 64.2502 63.999C63.7502 63.999 63.2503 63.999 62.7502 63.999C62.7072 63.8551 62.5701 63.8971 62.4763 63.8724C61.5667 63.6333 60.7914 63.1625 60.1095 62.5251C59.1864 61.6621 58.5169 60.6199 57.958 59.4975C57.8955 59.3719 57.8839 59.2015 57.7124 59.1325C57.1545 60.3141 56.4905 61.4127 55.5741 62.3483C54.7264 63.2141 53.7066 63.7449 52.5316 63.9989C52.0623 63.9989 51.5936 63.9989 51.1249 63.9989Z" fill="#231F20"/>
<path fill-rule="evenodd" clip-rule="evenodd" d="M36.0315 16C38.1719 16.5099 39.1117 18.1283 39.7476 20.0613C39.9403 19.9757 40.0211 19.802 40.1357 19.6693C41.0414 18.6191 42.0652 17.7505 43.4986 17.5444C44.4527 17.4071 45.329 17.6537 46.1115 18.1994C46.5233 18.4866 46.7748 18.9024 46.8191 19.4143C46.8371 19.6224 46.8678 19.7325 47.127 19.7663C47.8364 19.8586 48.3038 20.299 48.5903 20.9374C49.2313 22.3665 49.0206 23.7001 48.1262 24.9525C47.615 25.6685 46.9542 26.2331 46.1938 26.788C46.9166 27.0683 47.5745 27.3389 48.1621 27.7444C49.2033 28.4631 49.9866 29.3626 50.1072 30.6831C50.2087 31.7929 50.1003 32.8279 48.8929 33.3483C48.72 33.4228 48.7829 33.552 48.8019 33.6649C48.9296 34.4197 48.6318 35.0045 48.0794 35.4861C47.0939 36.3452 45.9566 36.6375 44.6818 36.3599C44.2258 36.2605 43.9873 35.8891 44.0585 35.4626C44.1333 35.0145 44.4897 34.7608 44.9796 34.8077C45.1195 34.821 45.2588 34.8393 45.3988 34.8502C45.9526 34.893 46.4459 34.7369 46.8847 34.3984C47.2956 34.0812 47.3206 33.9171 47.0119 33.514C46.9077 33.3778 46.7918 33.2488 46.7011 33.1041C46.349 32.543 46.682 31.8998 47.3436 31.8574C47.4365 31.8514 47.534 31.8509 47.6235 31.8723C48.4151 32.0609 48.5712 31.8268 48.5256 31.0029C48.4792 30.1673 47.9991 29.5889 47.3565 29.1241C46.3845 28.4211 45.2638 28.1061 44.1005 27.9167C43.5296 27.8237 43.2508 27.6176 43.2084 27.191C43.1604 26.7084 43.4455 26.4637 43.8543 26.2804C44.9183 25.8036 45.8916 25.1879 46.6346 24.2694C47.2338 23.5285 47.5361 22.7121 47.197 21.7488C47.0565 21.3496 46.8256 21.2418 46.4444 21.408C46.302 21.4702 46.1502 21.5101 46.0041 21.5642C45.6815 21.6837 45.3931 21.6441 45.1435 21.3934C44.8928 21.1414 44.881 20.8417 44.966 20.5234C44.986 20.4485 45.0215 20.3779 45.0511 20.3058C45.3636 19.5448 45.2643 19.3596 44.4667 19.1856C43.6731 19.0126 42.988 19.2653 42.3614 19.7241C41.3661 20.453 40.7046 21.447 40.1581 22.5313C39.8761 23.0908 39.3894 23.2597 38.9391 22.9671C38.6619 22.787 38.5941 22.5099 38.5608 22.2021C38.4302 20.9956 38.1356 19.8379 37.4404 18.8207C36.9513 18.105 36.3106 17.6147 35.397 17.6027C34.8311 17.5954 34.7198 17.7173 34.7269 18.2927C34.7296 18.4956 34.7473 18.7026 34.7144 18.9004C34.6263 19.4333 34.0286 19.7081 33.5668 19.4323C33.4209 19.3452 33.2951 19.2232 33.1653 19.1111C32.6737 18.6867 32.5026 18.7027 32.1206 19.233C31.588 19.9728 31.602 20.777 31.8719 21.5997C32.2412 22.725 32.9504 23.6287 33.7684 24.4584C33.9103 24.6022 34.0829 24.7278 34.1448 24.9282C34.2323 25.2114 34.206 25.4892 34.0043 25.7218C33.7807 25.9795 33.5043 26.0574 33.162 25.982C31.9759 25.7212 30.7816 25.6213 29.5923 25.9476C28.6572 26.2042 27.9253 26.697 27.6486 27.7057C27.5437 28.0883 27.6885 28.2679 28.0268 28.364C28.1916 28.4108 28.3622 28.4401 28.5231 28.4972C28.8337 28.6076 29.0669 28.79 29.1097 29.1518C29.151 29.4997 29.025 29.7606 28.7428 29.9542C28.6529 30.016 28.5598 30.0734 28.4668 30.1307C27.8652 30.5014 27.8283 30.6581 28.2744 31.2215C29.0216 32.1652 30.0576 32.2251 31.1282 32.0841C32.0306 31.9651 32.8814 31.6539 33.6825 31.2219C34.0935 31.0002 34.4894 30.8593 34.8783 31.2445C35.1834 31.5467 35.1726 31.8878 34.8718 32.4389C34.2054 33.66 33.7069 34.9265 33.8715 36.3589C33.9548 37.0842 34.3076 37.6441 34.9224 38.0448C35.2186 38.2379 35.446 38.185 35.6375 37.9027C35.7513 37.7351 35.8516 37.5566 35.9795 37.4006C36.4054 36.8813 37.1157 36.9983 37.3569 37.6262C37.4123 37.7704 37.4382 37.926 37.475 38.077C37.6146 38.6507 37.7656 38.744 38.3316 38.5705C39.2023 38.3037 39.6881 37.6574 39.9602 36.8353C40.3425 35.6803 40.3123 34.4993 40.1111 33.3165C40.004 32.6871 40.2075 32.2895 40.7092 32.1922C41.2161 32.0939 41.5568 32.3814 41.6738 33.0098C41.9494 34.491 41.951 35.965 41.4567 37.4017C40.9239 38.9505 39.9002 39.9664 38.2237 40.2217C37.5586 40.323 36.9761 40.1557 36.5253 39.6576C36.362 39.4775 36.2663 39.4799 36.0697 39.5829C35.4501 39.9075 34.8274 39.8355 34.2381 39.4989C32.7331 38.639 32.1535 37.295 32.2394 35.6127C32.2778 34.8592 32.4599 34.1345 32.7037 33.3749C32.1612 33.4808 31.6544 33.5966 31.142 33.677C29.1851 33.9834 27.5591 33.2625 26.693 31.7223C26.3153 31.0505 26.228 30.3745 26.6341 29.6813C26.6844 29.5956 26.7982 29.5068 26.6563 29.4053C26.3268 29.1701 26.217 28.7819 26 28.4685C26 28.1248 26 27.7811 26 27.4372C26.0726 27.4208 26.0854 27.3639 26.1017 27.3015C26.5218 25.7049 27.6127 24.8204 29.159 24.4121C29.8836 24.2207 30.625 24.177 31.4221 24.1525C31.0008 23.4859 30.6152 22.8524 30.3744 22.1444C29.8349 20.558 29.9905 19.1091 31.1968 17.8586C31.6979 17.339 32.2956 17.1136 33.015 17.2423C33.1123 17.2598 33.2407 17.3689 33.2957 17.2139C33.538 16.5318 34.1243 16.2633 34.7189 16.0001C35.1565 16 35.5941 16 36.0315 16Z" fill="#231F20"/>
<path fill-rule="evenodd" clip-rule="evenodd" d="M26.0005 48.3429C26.1588 48.2771 26.1377 48.1129 26.1816 47.9911C26.5904 46.8577 27.4525 46.1548 28.4767 45.6394C31.3093 44.214 34.1733 44.2391 37.0437 45.5329C37.5611 45.7661 37.7406 46.1894 37.5466 46.6229C37.3438 47.076 36.9048 47.2196 36.365 46.979C34.2282 46.0264 32.0634 45.9036 29.8684 46.7547C29.2111 47.0095 28.5878 47.3385 28.105 47.87C27.6821 48.3356 27.4645 48.8736 27.6895 49.5031C27.9108 50.1227 28.3731 50.4337 29.0226 50.5161C29.7301 50.6059 29.9756 51.0038 29.7778 51.7071C29.6024 52.33 29.6915 52.8897 30.1754 53.3386C30.6616 53.7897 31.25 53.8332 31.838 53.6096C33.1686 53.1037 34.0594 52.0911 34.8033 50.9294C34.9874 50.6418 35.1248 50.3247 35.293 50.0264C35.5386 49.5907 35.9489 49.444 36.3559 49.6365C36.7786 49.8362 36.9328 50.2744 36.7135 50.7447C35.9297 52.4258 34.7967 53.8144 33.1828 54.7558C31.9012 55.5033 30.5836 55.6229 29.3188 54.7041C28.4945 54.1055 28.1178 53.251 28.0895 52.2428C28.0843 52.0573 28.0654 51.9355 27.8658 51.8481C26.9532 51.4484 26.3687 50.7543 26.0995 49.7956C26.0822 49.7341 26.0714 49.6757 26.0005 49.6556C26.0005 49.2179 26.0005 48.7805 26.0005 48.3429Z" fill="#231F20"/>
<path fill-rule="evenodd" clip-rule="evenodd" d="M58.5418 42.5893C58.5418 42.9954 58.5552 43.4023 58.537 43.8076C58.5254 44.066 58.5865 44.1743 58.8715 44.2401C60.226 44.5534 61.282 45.3098 62.0058 46.503C62.1411 46.7258 62.2549 46.7961 62.5208 46.6993C63.2661 46.428 64.0243 46.1912 64.779 45.9458C65.3838 45.7494 65.799 45.9135 65.9659 46.4056C66.1273 46.8812 65.8786 47.2717 65.2709 47.475C64.2377 47.8203 63.2031 48.162 62.1672 48.4992C61.5102 48.713 61.1918 48.5568 60.9234 47.906C60.2787 46.3438 58.7429 45.4595 57.1818 45.7515C55.5222 46.0619 54.3541 47.4497 54.3533 49.1117C54.3527 50.7385 55.459 52.0936 57.1141 52.421C58.298 52.6552 59.3392 52.3328 60.1889 51.4544C60.2865 51.3536 60.3715 51.2403 60.4708 51.1414C60.8027 50.8103 61.2272 50.7767 61.5643 51.0496C61.9094 51.3291 62.0005 51.8351 61.6661 52.1696C61.3013 52.5343 61.3793 52.78 61.6646 53.1304C62.1172 53.6862 62.5223 54.2811 62.9411 54.8641C63.2743 55.3283 63.2283 55.8188 62.8361 56.1009C62.4695 56.3644 61.988 56.2559 61.659 55.8156C61.1735 55.1656 60.6932 54.5113 60.226 53.848C60.08 53.6409 59.9677 53.5728 59.7021 53.6853C58.4216 54.2282 57.1224 54.2453 55.8392 53.6962C55.5435 53.5696 55.4123 53.6377 55.2432 53.8834C54.792 54.5386 54.3142 55.1759 53.8371 55.8128C53.5042 56.257 53.0348 56.3644 52.6619 56.1015C52.2641 55.8213 52.2149 55.3317 52.5511 54.8647C53.0164 54.219 53.4801 53.5717 53.9662 52.9419C54.146 52.7089 54.1611 52.5712 53.9525 52.3267C53.0506 51.2697 52.646 50.0354 52.7867 48.6445C52.8125 48.3898 52.75 48.2958 52.5043 48.2217C51.7293 47.9876 50.9628 47.7244 50.1958 47.4641C49.6053 47.2637 49.3648 46.8558 49.5356 46.37C49.694 45.9197 50.1308 45.7562 50.7051 45.9425C51.4606 46.1872 52.2173 46.4294 52.966 46.6937C53.2112 46.7802 53.3385 46.7611 53.4865 46.5166C54.217 45.3096 55.2872 44.5469 56.6601 44.2327C56.9081 44.176 56.9485 44.0766 56.9462 43.8609C56.9377 43.0487 56.9397 42.2363 56.9437 41.424C56.9468 40.7948 57.2485 40.4451 57.7673 40.4559C58.27 40.4661 58.536 40.7946 58.541 41.4176C58.5444 41.8081 58.5418 42.1987 58.5418 42.5893Z" fill="#231F20"/>
<path fill-rule="evenodd" clip-rule="evenodd" d="M55.6665 27.7236C55.2596 27.7275 54.856 27.7025 54.453 27.6406C53.9009 27.556 53.6015 27.2295 53.6536 26.7452C53.7031 26.2829 54.1074 25.9784 54.6399 26.053C55.8882 26.2281 57.0983 26.0892 58.2753 25.6534C59.3318 25.2622 60.2496 24.6608 60.9924 23.8063C61.2287 23.5344 61.4313 23.2428 61.542 22.8922C61.859 21.8904 61.1732 21.0473 60.1289 21.1614C59.2594 21.2565 59.0458 21.0799 58.9747 20.2129C58.9322 19.6958 58.719 19.2802 58.2313 19.0532C57.7255 18.8178 57.2442 18.9263 56.8239 19.2478C55.9745 19.8977 55.5109 20.8133 55.1613 21.7937C54.9989 22.2491 54.9003 22.7218 54.8409 23.2037C54.796 23.5674 54.6297 23.8606 54.2485 23.9653C53.6787 24.1217 53.1784 23.6924 53.249 23.0818C53.4515 21.3314 54.0935 19.7644 55.2948 18.459C56.4501 17.2036 58.0789 16.9778 59.3437 17.8594C59.8479 18.211 60.1935 18.6827 60.3961 19.2542C60.4661 19.4513 60.5401 19.5404 60.7674 19.5807C62.8212 19.945 63.8344 21.9899 62.8666 23.8658C62.1362 25.2811 60.9223 26.2003 59.5148 26.8757C58.3011 27.4577 57.0129 27.7302 55.6665 27.7236Z" fill="#231F20"/>
<path fill-rule="evenodd" clip-rule="evenodd" d="M71.3458 34.8429C69.1465 34.771 67.2225 34.0619 65.7451 32.3672C65.0597 31.5808 64.7739 30.6676 65.0791 29.6315C65.3369 28.7563 65.9306 28.1925 66.7872 27.9195C67.0443 27.8376 67.1899 27.7524 67.2871 27.4665C67.85 25.8134 69.7776 25.2067 71.2853 26.2108C72.4075 26.9581 73.0712 28.0645 73.5223 29.3036C73.6801 29.7367 73.4623 30.1557 73.0728 30.3093C72.6593 30.4724 72.223 30.2979 72.0359 29.8486C71.7704 29.2108 71.4587 28.6053 71.0027 28.0816C70.7657 27.8093 70.5098 27.5609 70.1668 27.4205C69.4292 27.1191 68.7506 27.5632 68.7377 28.3582C68.724 29.2147 68.518 29.4104 67.6407 29.4014C66.7999 29.3928 66.3348 30.0983 66.6747 30.8749C66.8955 31.3792 67.2974 31.7318 67.7283 32.0432C69.1829 33.0946 70.8051 33.4239 72.5646 33.1249C72.6568 33.1093 72.7473 33.0796 72.8398 33.0717C73.2849 33.0343 73.6591 33.315 73.7223 33.7278C73.7888 34.1633 73.5527 34.5451 73.1123 34.6421C72.5331 34.7698 71.9445 34.846 71.3458 34.8429Z" fill="#231F20"/>
<path fill-rule="evenodd" clip-rule="evenodd" d="M41.94 27.8972C41.9375 29.5644 40.7536 31.033 39.145 31.363C37.473 31.7059 35.8249 30.8563 35.1575 29.3074C34.4946 27.7688 34.9928 25.9605 36.3394 25.0165C36.8856 24.6337 37.3549 24.6575 37.652 25.083C37.9438 25.5011 37.8247 25.9096 37.2958 26.3044C36.4547 26.9326 36.2169 28.0099 36.7279 28.8786C37.2312 29.7345 38.3136 30.0766 39.2106 29.6634C40.1403 29.2351 40.5606 28.184 40.2017 27.184C40.1753 27.1108 40.1431 27.0396 40.1197 26.9655C39.9897 26.5524 40.1516 26.1575 40.5202 25.9831C40.9076 25.8 41.3542 25.9336 41.5633 26.3242C41.8248 26.8127 41.9426 27.3423 41.94 27.8972Z" fill="#231F20"/>
</svg>
