<svg width="100" height="80" viewBox="0 0 100 80" fill="none" xmlns="http://www.w3.org/2000/svg">
<path d="M100 35.5556C100 60.1015 77.6142 80 50 80C22.3858 80 0 60.1015 0 35.5556C0 11.0096 22.3858 0 50 0C77.6142 0 100 11.0096 100 35.5556Z" fill="#FFE9BE"/>
<path fill-rule="evenodd" clip-rule="evenodd" d="M25 44.3025C26.1442 42.1128 27.3088 39.9333 28.4227 37.7283C28.8722 36.8385 28.9938 35.8533 29.0204 34.8548C29.1854 28.6202 31.9073 23.7992 37.1745 20.4797C42.8806 16.8835 50.5442 17.2433 55.9652 21.2698C56.2379 21.4722 56.4711 21.5464 56.8282 21.4727C64.9657 19.7936 72.8527 25.4333 73.8867 33.6539C74.8655 41.4345 69.3945 48.569 61.6293 49.6356C60.7585 49.7552 59.8811 49.7967 59.0048 49.7398C58.6678 49.7179 58.5453 49.7979 58.4805 50.1472C58.1189 52.0969 57.9868 54.0605 58.0015 56.0406C58.0082 56.9463 58.0842 57.8564 57.9332 58.7591C57.6323 60.5564 56.0748 61.9678 54.2511 61.9787C49.675 62.0059 45.0986 62.0084 40.5225 61.9784C38.485 61.965 36.8188 60.2356 36.7694 58.1982C36.7587 57.7555 36.9153 57.1575 36.6891 56.9109C36.4265 56.6247 35.8203 56.8422 35.3637 56.8234C34.4118 56.784 33.4536 56.9083 32.5107 56.6544C30.4812 56.1081 29.0511 54.3192 29.0191 52.2232C28.9987 50.8852 28.9977 49.5465 29.0221 48.2087C29.0289 47.8351 28.911 47.7336 28.5647 47.772C28.3285 47.7982 28.0866 47.7841 27.8478 47.7753C26.552 47.7277 25.6589 47.1059 25.1738 45.9002C25.1359 45.8061 25.1408 45.6712 25.0002 45.6413C25 45.1949 25 44.7487 25 44.3025ZM27.9113 44.9076C28.3729 44.9076 28.765 44.9055 29.1571 44.908C30.826 44.9186 31.8788 45.9648 31.8827 47.6216C31.8861 49.0715 31.8805 50.5214 31.8845 51.9714C31.888 53.2069 32.641 53.9486 33.8891 53.9517C34.9735 53.9544 36.058 53.9417 37.1422 53.9574C38.364 53.975 39.3267 54.7844 39.5774 55.9834C39.7027 56.5825 39.6253 57.1905 39.634 57.7943C39.648 58.7716 39.9852 59.1226 40.9538 59.1228C45.0682 59.1235 49.1825 59.1231 53.2967 59.1231C54.9783 59.1231 55.1496 58.9662 55.1338 57.3052C55.1087 54.6738 55.1441 52.0482 55.707 49.4613C55.7785 49.1328 55.5378 49.1489 55.3583 49.0841C49.7061 47.0454 46.259 43.0781 45.5505 37.1206C44.8585 31.2993 47.2075 26.7001 52.0608 23.3965C52.3663 23.1886 52.6926 23.0112 53.0363 22.8031C52.9315 22.7276 52.8739 22.6737 52.8063 22.6391C48.0142 20.1791 43.2223 20.1583 38.6161 22.9803C34.2364 25.6635 32.019 29.7116 31.8941 34.8592C31.8516 36.6122 31.4487 38.2529 30.616 39.7951C29.8609 41.1932 29.1213 42.5995 28.3764 44.0031C28.2298 44.2793 28.0901 44.5593 27.9113 44.9076ZM59.675 46.8885C65.9778 46.8987 71.1113 41.792 71.1265 35.4968C71.1416 29.2001 66.0314 24.0573 59.7375 24.0355C53.4544 24.0137 48.3123 29.1291 48.2792 35.4346C48.2463 41.7077 53.3905 46.8782 59.675 46.8885Z" fill="#231F20"/>
<path fill-rule="evenodd" clip-rule="evenodd" d="M34.3384 37.9002C34.3387 37.4072 34.3259 36.9135 34.3416 36.4207C34.3688 35.5643 34.9836 34.9417 35.7768 34.9461C36.5492 34.9504 37.1773 35.5537 37.2008 36.3852C37.2299 37.4184 37.2309 38.4538 37.2003 39.4869C37.1755 40.3205 36.5432 40.9164 35.7652 40.9131C34.9677 40.9098 34.3646 40.2893 34.3407 39.4274C34.3265 38.9188 34.338 38.4094 34.3384 37.9002Z" fill="#231F20"/>
<path fill-rule="evenodd" clip-rule="evenodd" d="M59.2178 30.3352C58.7716 30.3352 58.3252 30.3414 57.8791 30.3339C57.001 30.3188 56.3715 29.7043 56.3798 28.8794C56.3879 28.07 57.0037 27.4604 57.8656 27.4728C59.0746 27.4902 60.2929 27.3421 61.4913 27.5591C63.4787 27.9189 64.8828 29.617 64.9478 31.6726C65.0095 33.6235 63.6623 35.4242 61.7347 35.8802C61.2509 35.9946 61.1045 36.1777 61.1508 36.6549C61.1886 37.0442 61.2126 37.4477 61.0911 37.8396C60.8736 38.5411 60.2488 38.9505 59.514 38.8578C58.8565 38.7747 58.3197 38.2108 58.3001 37.5297C58.2791 36.7979 58.2722 36.0638 58.3058 35.3328C58.3553 34.2558 59.2722 33.3199 60.3459 33.2004C60.5515 33.1776 60.7603 33.1687 60.9619 33.1259C61.655 32.9788 62.1192 32.3618 62.0741 31.6654C62.0279 30.9508 61.4665 30.3762 60.7476 30.3441C60.2386 30.3214 59.7279 30.3397 59.2178 30.3397C59.2178 30.3381 59.2178 30.3367 59.2178 30.3352Z" fill="#231F20"/>
<path fill-rule="evenodd" clip-rule="evenodd" d="M58.2922 41.815C58.292 41.6403 58.2883 41.4655 58.2928 41.2907C58.3134 40.4915 58.872 39.8884 59.6413 39.8322C60.3755 39.7786 61.0711 40.355 61.1458 41.1324C61.1912 41.6046 61.1896 42.0875 61.1482 42.5604C61.0797 43.346 60.4125 43.9097 59.6583 43.8709C58.8886 43.8313 58.316 43.2307 58.2932 42.4348C58.2872 42.2283 58.2922 42.0215 58.2922 41.815Z" fill="#231F20"/>
</svg>
