<svg width="100" height="80" viewBox="0 0 100 80" fill="none" xmlns="http://www.w3.org/2000/svg">
<path d="M100 35.5556C100 60.1015 77.6142 80 50 80C22.3858 80 0 60.1015 0 35.5556C0 11.0096 22.3858 0 50 0C77.6142 0 100 11.0096 100 35.5556Z" fill="#FFE9BE"/>
<path fill-rule="evenodd" clip-rule="evenodd" d="M31 62C31.0421 61.1101 30.9592 60.2126 31.1675 59.3328C31.7847 56.7266 33.3905 55.0525 35.9399 54.2896C36.2142 54.2076 36.3082 54.1129 36.3283 53.8317C36.4985 51.4333 37.7527 49.8418 39.987 49.0279C40.3107 48.91 40.277 48.726 40.277 48.4989C40.2774 38.1742 40.2773 27.8494 40.2783 17.5247C40.2783 17.3498 40.2925 17.175 40.3 17C41.1773 17 42.0546 17 42.932 17C42.928 17.6733 42.9362 18.347 42.9141 19.0197C42.9049 19.2959 43.0068 19.2861 43.2226 19.2416C47.8958 18.2763 52.6138 18.1394 57.355 18.511C60.7652 18.7782 64.1339 19.335 67.4797 20.0389C67.5598 20.0558 67.639 20.0766 67.7567 20.1046C66.5499 21.6161 65.3652 23.1004 64.18 24.5843C63.4225 25.5326 62.6706 26.4855 61.9016 27.4244C61.7283 27.6362 61.7145 27.7839 61.8557 28.0298C63.8183 31.4481 65.7671 34.8744 67.7189 38.2989C67.7975 38.4369 67.8736 38.5761 68 38.8024C67.1213 38.6052 66.322 38.4303 65.5249 38.2462C60.4235 37.0676 55.2604 36.6308 50.0358 36.9702C47.7753 37.117 45.5329 37.4181 43.307 37.8443C43.0258 37.8981 42.9076 37.9795 42.9093 38.31C42.9262 41.7218 42.9248 45.1336 42.911 48.5453C42.9097 48.8531 43.0074 48.9643 43.2868 49.058C45.3609 49.7538 46.7802 51.6498 46.8647 53.8371C46.8759 54.1274 46.9688 54.2174 47.2465 54.288C50.056 55.0021 52.1002 57.6042 52.1504 60.5073C52.1589 61.0046 52.1466 61.5025 52.1439 62C45.096 62 38.0481 62 31 62ZM62.9507 21.8782C58.5243 21.1647 54.1812 20.7888 49.7985 21.0443C47.5792 21.1737 45.3823 21.4684 43.2085 21.9385C42.9809 21.9878 42.9138 22.0859 42.9143 22.3193C42.9218 26.5074 42.9228 30.6955 42.9132 34.8835C42.9125 35.172 42.9901 35.2287 43.2581 35.1763C45.7857 34.6826 48.3378 34.3977 50.9097 34.2768C54.6735 34.1 58.416 34.3036 62.1373 34.8955C62.3174 34.9242 62.4959 34.9631 62.7155 34.8825C62.6135 34.6952 62.5339 34.5429 62.4489 34.3937C61.1982 32.1994 59.9539 30.0014 58.6868 27.8165C58.5223 27.5328 58.5615 27.365 58.7507 27.1329C59.6285 26.0562 60.4915 24.9673 61.3583 23.8815C61.8744 23.2349 62.3882 22.5861 62.9507 21.8782ZM33.8991 59.3378C39.0409 59.3378 44.1356 59.3378 49.2224 59.3378C49.2719 59.2231 49.2108 59.1493 49.1738 59.0728C48.4707 57.6183 47.3265 56.7585 45.7045 56.7304C42.9713 56.683 40.2367 56.7145 37.5026 56.7211C37.2423 56.7218 36.9751 56.7533 36.723 56.8176C35.357 57.1648 34.4255 58.0025 33.8991 59.3378ZM41.5793 54.0689C42.353 54.0689 43.127 54.054 43.9001 54.0761C44.22 54.0851 44.2834 53.9666 44.208 53.6927C44.1849 53.6084 44.177 53.5201 44.1576 53.4347C43.8861 52.2423 42.7608 51.3811 41.525 51.4189C40.2748 51.4571 39.2044 52.3629 38.9918 53.5626C38.9054 54.0504 38.921 54.0686 39.4334 54.0688C40.1488 54.0692 40.864 54.0689 41.5793 54.0689Z" fill="#231F20"/>
</svg>
