<svg width="100" height="80" viewBox="0 0 100 80" fill="none" xmlns="http://www.w3.org/2000/svg">
<path d="M100 35.5556C100 60.1015 77.6142 80 50 80C22.3858 80 0 60.1015 0 35.5556C0 11.0096 22.3858 0 50 0C77.6142 0 100 11.0096 100 35.5556Z" fill="#FFE9BE"/>
<path fill-rule="evenodd" clip-rule="evenodd" d="M28 38.7317C29.5024 38.7317 31.0048 38.7317 32.5342 38.7317C32.5129 38.5502 32.3647 38.4748 32.2654 38.3757C31.6729 37.783 31.0804 37.1901 30.4727 36.6129C30.294 36.4434 30.3032 36.3472 30.4769 36.1843C30.964 35.7277 31.4391 35.2581 31.9054 34.7807C32.0503 34.6322 32.1345 34.6377 32.2779 34.78C33.9729 36.4598 35.6721 38.1354 37.3756 39.8068C37.5152 39.9437 37.5422 40.0206 37.3865 40.1729C35.6805 41.8419 33.9801 43.5163 32.2861 45.1972C32.1206 45.3615 32.0315 45.338 31.8835 45.1864C31.427 44.7191 30.9661 44.2552 30.486 43.812C30.2883 43.6296 30.3012 43.5315 30.4899 43.3524C31.186 42.6911 31.8638 42.0108 32.6153 41.2723C31.0171 41.2723 29.5086 41.2723 28.0001 41.2723C28 40.4254 28 39.5785 28 38.7317Z" fill="#231F20"/>
<path fill-rule="evenodd" clip-rule="evenodd" d="M72 41.2722C70.4979 41.2722 68.9957 41.2722 67.4566 41.2722C67.5142 41.4744 67.6785 41.568 67.7979 41.6877C68.3701 42.2603 68.9424 42.8333 69.5299 43.3904C69.7092 43.5606 69.6974 43.6584 69.5244 43.8209C69.0378 44.2779 68.5623 44.7471 68.0962 45.2246C67.9504 45.3741 67.8659 45.3641 67.7236 45.2231C66.0288 43.5434 64.3311 41.8664 62.6248 40.1982C62.4491 40.0264 62.5004 39.9453 62.6453 39.8035C64.3295 38.1532 66.0117 36.5008 67.6833 34.8382C67.8741 34.6482 67.9713 34.6572 68.1492 34.8435C68.5903 35.3053 69.0451 35.7553 69.5145 36.1893C69.7092 36.3694 69.7052 36.4695 69.5131 36.6505C68.8138 37.3092 68.1335 37.9871 67.3704 38.7316C68.9837 38.7316 70.4917 38.7316 71.9999 38.7316C72 39.5785 72 40.4254 72 41.2722Z" fill="#231F20"/>
<path fill-rule="evenodd" clip-rule="evenodd" d="M59.6343 39.9873C59.6343 41.3702 59.6874 42.7554 59.6245 44.1356C59.4307 48.3859 55.9944 52.1657 51.7393 52.8662C46.416 53.7424 41.5972 50.4959 40.5054 45.2965C40.4065 44.8257 40.3482 44.3485 40.3482 43.8683C40.3482 41.2294 40.2814 38.588 40.3761 35.9522C40.5268 31.7587 43.7273 28.0978 47.8824 27.216C53.2852 26.0692 58.42 29.3954 59.5042 34.7475C59.6364 35.4001 59.6659 36.0633 59.6676 36.7272C59.6703 37.814 59.6684 38.9006 59.6684 39.9873C59.657 39.9873 59.6458 39.9873 59.6343 39.9873ZM42.9431 40.0174C42.9321 40.0174 42.9211 40.0174 42.91 40.0174C42.91 41.1176 42.9032 42.2178 42.9134 43.318C42.9172 43.7263 42.9215 44.1406 42.9914 44.5409C43.6559 48.351 46.9022 50.7872 50.8144 50.4262C54.0801 50.1248 56.8997 47.2924 57.0427 44.0678C57.159 41.447 57.0897 38.8217 57.0733 36.1982C57.0718 35.9594 57.0541 35.7175 57.0136 35.4822C56.3601 31.6753 53.1066 29.216 49.2062 29.5752C45.9098 29.879 43.1197 32.6961 42.9545 35.956C42.886 37.3067 42.9431 38.6634 42.9431 40.0174Z" fill="#231F20"/>
<path fill-rule="evenodd" clip-rule="evenodd" d="M34.9728 27.0433C34.9446 26.8862 34.8078 26.8185 34.7134 26.7246C33.8367 25.8536 32.9637 24.9786 32.0694 24.1254C31.8451 23.9113 31.865 23.8016 32.079 23.6059C32.5401 23.184 32.9855 22.7438 33.4147 22.2905C33.6002 22.0948 33.7 22.1118 33.8822 22.2955C34.7623 23.1827 35.6572 24.0558 36.5505 24.9302C36.6461 25.0239 36.7141 25.1582 36.9196 25.1953C36.9196 24.2701 36.9359 23.3599 36.9112 22.4509C36.9019 22.1115 36.9748 21.9814 37.3464 22.0021C37.9598 22.0363 38.5766 22.0267 39.1915 22.0146C39.4332 22.0098 39.5051 22.0802 39.5041 22.3225C39.4939 24.6492 39.4925 26.9758 39.5006 29.3024C39.5014 29.5571 39.4351 29.6411 39.1672 29.64C36.8061 29.6306 34.445 29.6301 32.0839 29.6408C31.8081 29.642 31.7481 29.5528 31.755 29.3013C31.7722 28.6814 31.7753 28.0602 31.7551 27.4405C31.7462 27.1654 31.8222 27.0782 32.1095 27.085C32.9247 27.1041 33.7407 27.0941 34.5562 27.0893C34.6918 27.0886 34.8366 27.1314 34.9728 27.0433Z" fill="#231F20"/>
<path fill-rule="evenodd" clip-rule="evenodd" d="M63.1786 25.2416C64.178 24.2545 65.1557 23.3037 66.1122 22.333C66.328 22.114 66.4405 22.1278 66.6408 22.3408C67.0689 22.796 67.5158 23.2355 67.9768 23.6582C68.1807 23.845 68.1473 23.9444 67.9656 24.1198C67.0653 24.9886 66.1788 25.8717 65.2885 26.7506C65.1906 26.8471 65.0986 26.9495 64.942 27.114C65.9592 27.114 66.8962 27.1274 67.8324 27.1068C68.1574 27.0997 68.2807 27.1693 68.2625 27.5162C68.2309 28.1215 68.2466 28.7296 68.2561 29.3364C68.2595 29.5517 68.2302 29.6636 67.9609 29.6621C65.5836 29.6499 63.206 29.6489 60.8287 29.6555C60.5813 29.6562 60.5127 29.5802 60.5136 29.3428C60.5229 27 60.5244 24.6573 60.52 22.3146C60.5195 22.098 60.5782 22.0175 60.8087 22.0227C61.4672 22.0377 62.1267 22.0459 62.7849 22.0263C63.0672 22.0177 63.1132 22.123 63.1087 22.3684C63.094 23.1727 63.0995 23.9773 63.1034 24.7816C63.1039 24.9153 63.0622 25.0577 63.1786 25.2416Z" fill="#231F20"/>
<path fill-rule="evenodd" clip-rule="evenodd" d="M35.0688 52.89C34.0125 52.89 33.0571 52.8805 32.102 52.896C31.8295 52.9004 31.7276 52.8402 31.7387 52.5507C31.7625 51.9306 31.7542 51.3089 31.7431 50.6882C31.7389 50.4549 31.769 50.3389 32.0612 50.3407C34.4241 50.3555 36.7871 50.3559 39.15 50.3478C39.4167 50.3469 39.488 50.4254 39.4868 50.6826C39.4759 53.011 39.4745 55.3395 39.4805 57.6679C39.4811 57.9036 39.4208 57.9887 39.1701 57.982C38.5117 57.9644 37.8524 57.9607 37.1942 57.9769C36.9338 57.9834 36.8895 57.8829 36.8919 57.6574C36.9022 56.7143 36.8962 55.7713 36.8962 54.8316C36.7224 54.7908 36.6756 54.9227 36.6033 54.9932C35.6983 55.8776 34.7919 56.7607 33.9011 57.6589C33.7032 57.8587 33.5895 57.9094 33.3728 57.6746C32.9491 57.2158 32.5001 56.778 32.0377 56.3568C31.8193 56.1577 31.8596 56.0513 32.0515 55.8655C33.0403 54.9064 34.0145 53.9326 35.0688 52.89Z" fill="#231F20"/>
<path fill-rule="evenodd" clip-rule="evenodd" d="M63.0799 54.7197C63.0799 55.7629 63.0686 56.7055 63.0869 57.6475C63.0924 57.9284 63.0106 58.0092 62.729 57.9992C62.0999 57.9768 61.4693 57.9774 60.8397 57.989C60.5931 57.9935 60.4924 57.948 60.4939 57.6694C60.5073 55.3415 60.5084 53.0134 60.4976 50.6854C60.4963 50.4045 60.6048 50.3642 60.8488 50.365C63.1971 50.3719 65.5452 50.3745 67.8934 50.3623C68.1876 50.3607 68.2529 50.4542 68.2448 50.723C68.226 51.3433 68.2252 51.9648 68.2439 52.5851C68.2519 52.8449 68.1794 52.9229 67.9105 52.9184C66.9553 52.9022 65.9997 52.912 65.0415 52.912C65.0259 53.1017 65.1661 53.1552 65.2485 53.237C66.1453 54.1289 67.0427 55.0208 67.9523 55.9001C68.133 56.0748 68.1669 56.1738 67.9624 56.3605C67.5008 56.7822 67.0539 57.2217 66.6259 57.6766C66.4253 57.89 66.3098 57.9025 66.0957 57.6851C65.2283 56.8043 64.3403 55.9433 63.4592 55.0757C63.3593 54.9775 63.2549 54.8838 63.0799 54.7197Z" fill="#231F20"/>
<path fill-rule="evenodd" clip-rule="evenodd" d="M49.9956 42.837C49.5833 42.837 49.0271 42.9971 48.7965 42.7954C48.5266 42.5593 48.7034 41.9995 48.7175 41.5836C48.7682 40.0971 49.4639 38.9851 50.7834 38.2558C51.7384 37.7279 52.1411 36.8371 51.8377 35.9256C51.5534 35.0716 50.6827 34.5041 49.8179 34.6096C48.8555 34.7269 48.1644 35.4252 48.0824 36.363C48.0147 37.1383 48.0147 37.1389 47.2093 37.1381C46.7368 37.1377 46.2641 37.1277 45.7919 37.1369C45.5884 37.1408 45.4953 37.1134 45.4837 36.868C45.3725 34.4997 47.0334 32.4195 49.2912 32.1228C51.7763 31.7959 53.9194 33.2778 54.4322 35.6772C54.8173 37.48 53.9378 39.4277 52.2452 40.348C51.5381 40.7324 51.2419 41.2336 51.2796 42.0148C51.3205 42.8645 51.2887 42.8661 50.4252 42.8661C50.2819 42.8661 50.1388 42.8661 49.9956 42.8661C49.9956 42.8564 49.9956 42.8467 49.9956 42.837Z" fill="#231F20"/>
<path fill-rule="evenodd" clip-rule="evenodd" d="M49.9888 47.9473C49.6601 47.9473 49.3311 47.9362 49.0032 47.9512C48.7905 47.9609 48.6983 47.9144 48.7038 47.678C48.7194 47.0026 48.719 46.3264 48.7037 45.6511C48.6986 45.4297 48.787 45.3999 48.9786 45.4026C49.6641 45.4121 50.3502 45.4145 51.0356 45.4016C51.2516 45.3974 51.2946 45.4762 51.2916 45.669C51.2814 46.3445 51.2802 47.0205 51.2921 47.696C51.2958 47.9078 51.2136 47.958 51.0173 47.9508C50.6749 47.9381 50.3315 47.9473 49.9888 47.9473Z" fill="#231F20"/>
</svg>
