<svg width="100" height="80" viewBox="0 0 100 80" fill="none" xmlns="http://www.w3.org/2000/svg">
<path d="M100 35.5556C100 60.1015 77.6142 80 50 80C22.3858 80 0 60.1015 0 35.5556C0 11.0096 22.3858 0 50 0C77.6142 0 100 11.0096 100 35.5556Z" fill="#FFE9BE"/>
<path fill-rule="evenodd" clip-rule="evenodd" d="M44.5083 29.3933C45.1268 28.9328 45.8311 28.6095 46.5337 28.3351C47.3227 28.0269 47.6061 27.5838 47.5236 26.7425C47.4386 25.8761 47.5149 24.9947 47.4985 24.1201C47.4936 23.8567 47.5667 23.7862 47.8322 23.783C49.0052 23.7695 49.005 23.7601 49.0052 24.9151C49.0053 25.5869 49.0057 26.2584 49.0076 26.9302C49.0076 26.9582 49.0221 26.9861 49.0411 27.0545C49.4758 26.8385 49.8993 26.6174 50.3326 26.4178C50.5227 26.3303 50.5044 26.1847 50.5042 26.0292C50.5033 25.4043 50.5161 24.7792 50.4981 24.1548C50.4903 23.8875 50.5322 23.7807 50.8437 23.7804C52.0044 23.78 52.0044 23.7657 52.0044 24.9271C52.0044 25.1143 52.0044 25.3015 52.0044 25.5679C52.5452 25.3018 53.0569 25.0695 53.5485 24.8005C53.8125 24.656 53.9406 24.6312 54.0955 24.9572C54.5725 25.9615 54.5907 25.9525 53.6136 26.4473C53.3529 26.5793 53.0934 26.7134 52.7615 26.8834C53.0998 27.1114 53.3843 27.3152 53.6811 27.4987C53.8597 27.6089 53.9021 27.6899 53.7758 27.8953C53.1286 28.9469 53.0937 29.0062 52.1337 28.2506C51.457 27.718 50.8802 27.6421 50.2066 28.1516C50.1091 28.2254 49.9872 28.2672 49.824 28.3509C50.5947 28.8146 51.3279 29.2771 52.0835 29.6992C52.3689 29.8586 52.3653 29.9918 52.1973 30.2214C51.9781 30.5209 51.8856 31.0402 51.5731 31.1025C51.3119 31.1546 50.9663 30.7884 50.6593 30.605C49.9369 30.1734 49.2157 29.7396 48.4928 29.309C48.366 29.2335 48.2597 29.1209 48.0749 29.2154C47.15 29.6886 46.2184 30.1488 45.2341 30.641C46.0252 31.119 46.7587 31.5623 47.5473 32.0388C46.7655 32.5101 46.0371 32.9492 45.2454 33.4265C45.7643 33.6917 46.2456 33.9523 46.7398 34.1862C47.242 34.4237 47.7285 34.9017 48.2413 34.8505C48.7341 34.8014 49.1879 34.35 49.6568 34.0716C50.233 33.7295 50.8134 33.3936 51.3784 33.0335C51.5747 32.9083 51.6461 32.9454 51.7671 33.1302C52.4365 34.1518 52.4421 34.1473 51.3984 34.7739C50.8919 35.0778 50.3873 35.3849 49.8275 35.7237C50.2501 35.9396 50.6298 36.1229 50.9983 36.3265C51.1866 36.4306 51.3156 36.349 51.4611 36.2502C51.9127 35.9435 52.3728 35.6492 52.8196 35.3359C53.0035 35.2071 53.1232 35.1722 53.2554 35.4042C53.4477 35.7417 53.8474 36.0695 53.8316 36.3851C53.8169 36.6811 53.2754 36.8148 52.9792 37.0388C52.93 37.0759 52.8833 37.1166 52.7781 37.2026C53.3003 37.4637 53.7898 37.7167 54.2868 37.9536C54.5056 38.0578 54.605 38.1602 54.4488 38.4053C54.2423 38.7295 54.188 39.2751 53.8801 39.3686C53.6159 39.4487 53.2204 39.1016 52.8848 38.9398C52.6077 38.8062 52.3334 38.6674 52.0043 38.5043C52.0043 39.019 51.9923 39.4813 52.009 39.9426C52.0178 40.186 51.98 40.2917 51.6913 40.2956C50.5038 40.3118 50.5041 40.3237 50.5041 39.1293C50.5041 39.0981 50.5041 39.0668 50.5041 39.0356C50.5041 37.5662 50.4923 37.5507 49.005 37.0514C49.005 38.0254 48.9961 38.9901 49.0108 39.9542C49.0148 40.2133 48.9501 40.2912 48.6801 40.2945C47.5042 40.3086 47.5044 40.3185 47.5044 39.1648C47.5044 38.3057 47.4925 37.4462 47.5116 36.5874C47.5174 36.3285 47.433 36.198 47.2049 36.0884C46.3626 35.6838 45.5289 35.2612 44.6947 34.84C44.6254 34.805 44.505 34.813 44.5076 34.6846C44.5078 34.6848 44.5113 34.6869 44.5113 34.6869C44.4231 34.1151 44.6228 33.684 45.2361 33.4426C44.266 32.9534 43.3886 32.511 42.447 32.036C43.4069 31.5524 44.2838 31.1107 45.2493 30.6244C44.5905 30.3795 44.4339 29.9445 44.5113 29.3908L44.5083 29.3933Z" fill="#231F20"/>
<path fill-rule="evenodd" clip-rule="evenodd" d="M37.0156 34.816C36.1587 35.0947 35.4173 35.6214 34.5888 35.9543C34.1289 36.1391 33.9749 36.3917 33.9954 36.8863C34.038 37.9153 34.0013 38.9475 34.0134 39.9782C34.0161 40.217 33.9574 40.2892 33.7067 40.2947C32.5075 40.3211 32.5078 40.3298 32.5078 39.1419C32.5078 38.455 32.5078 37.7681 32.5078 37.0149C32.0336 37.2466 31.5968 37.4654 31.155 37.6737C30.9622 37.7646 31.0111 37.9289 31.0103 38.0772C31.0072 38.7176 31.0009 39.3582 31.0134 39.9984C31.0177 40.2132 30.9682 40.285 30.7346 40.2947C29.5081 40.3453 29.5085 40.3536 29.5083 39.1223C29.5083 38.9381 29.5083 38.7539 29.5083 38.507C28.9253 38.7991 28.3841 39.0625 27.8515 39.3416C27.6626 39.4405 27.5748 39.4239 27.464 39.2203C26.8747 38.1367 26.8677 38.1407 27.9654 37.5948C28.2105 37.473 28.4549 37.3496 28.7574 37.1979C28.4057 36.9589 28.1221 36.7461 27.8185 36.5672C27.6123 36.4457 27.6343 36.349 27.7472 36.168C28.3878 35.1421 28.4278 35.0818 29.3542 35.8091C30.0594 36.3628 30.6643 36.4446 31.3623 35.8985C31.4443 35.8344 31.5491 35.7995 31.694 35.725C30.9126 35.2552 30.1724 34.7975 29.4182 34.3643C29.1776 34.2262 29.1137 34.1189 29.2977 33.8802C29.5242 33.5864 29.6141 33.0538 29.9148 32.9945C30.1909 32.9402 30.5531 33.2929 30.8694 33.4795C31.5943 33.9071 32.3138 34.3435 33.0366 34.7746C33.1501 34.8422 33.2458 34.9544 33.4108 34.8711C34.3516 34.3965 35.296 33.9288 36.2861 33.4355C35.4959 32.9589 34.7671 32.5193 33.9738 32.0408C34.7542 31.5679 35.489 31.1228 36.2843 30.6409C35.2928 30.1467 34.3484 29.6789 33.4073 29.2047C33.221 29.1108 33.1146 29.2544 32.9927 29.3268C32.0541 29.8826 31.1165 30.4404 30.1883 31.0131C29.976 31.144 29.8527 31.1713 29.7264 30.9152C29.5566 30.5708 29.1737 30.2158 29.2194 29.9168C29.2562 29.6747 29.7888 29.5051 30.1055 29.3098C30.596 29.0072 31.0901 28.7106 31.5815 28.4096C31.6063 28.3944 31.62 28.3612 31.6386 28.3364C31.6279 28.3269 31.6186 28.3141 31.6063 28.3084C31.1603 28.1031 30.7322 27.6632 30.2724 27.7405C29.836 27.8139 29.4561 28.2272 29.0536 28.4943C28.4208 28.9141 28.4216 28.9153 28.0093 28.295C27.5934 27.6692 27.5938 27.6698 28.2107 27.255C28.3746 27.1449 28.5349 27.0294 28.7519 26.878C28.2175 26.6098 27.7414 26.3572 27.2528 26.1313C27.0144 26.021 26.928 25.9327 27.0658 25.6525C27.5809 24.6053 27.5686 24.5993 28.5999 25.1148C28.8878 25.2587 29.1755 25.4026 29.5083 25.5691C29.5083 25.0426 29.5255 24.5763 29.5018 24.1123C29.4878 23.8352 29.5906 23.7867 29.844 23.7839C31.0089 23.7722 31.1008 23.7736 30.9824 24.9207C30.8684 26.0266 31.228 26.6784 32.2839 26.9659C32.3414 26.9815 32.3962 27.0071 32.5079 27.049C32.5079 26.0733 32.5243 25.1295 32.499 24.1869C32.49 23.8524 32.5852 23.7774 32.9098 23.7818C34.0083 23.797 34.0084 23.783 34.0084 24.8953C34.0084 25.77 34.0074 26.6446 34.0095 27.5193C34.0099 27.6537 33.9622 27.8147 34.1305 27.8895C35.1037 28.3226 36.0026 28.9117 37.0154 29.261C37.0107 29.3043 37.006 29.3476 37.0014 29.3909C37.0951 29.966 36.8744 30.3873 36.2899 30.6371C37.2508 31.1215 38.1295 31.5643 39.0739 32.0405C38.1121 32.5246 37.2353 32.9658 36.2683 33.4525C36.9217 33.6968 37.0777 34.1334 37.0014 34.6866C37.0062 34.7295 37.0109 34.7729 37.0156 34.816Z" fill="#231F20"/>
<path fill-rule="evenodd" clip-rule="evenodd" d="M64.0011 22.6097C64.0011 21.6308 64.013 20.6372 63.9936 19.6442C63.988 19.3556 64.0613 19.2826 64.3522 19.283C65.5014 19.2841 65.5014 19.2722 65.5014 20.439C65.5014 21.1674 65.5014 21.8957 65.5014 22.7237C66.2674 21.9581 66.9766 21.268 67.6612 20.5545C67.874 20.3325 68.0086 20.315 68.2001 20.5577C68.4293 20.8485 68.9191 21.0551 68.9012 21.3754C68.8862 21.6459 68.4561 21.8965 68.2039 22.1498C67.6815 22.6744 67.1553 23.195 66.5574 23.7902C67.66 23.7902 68.6535 23.8015 69.6462 23.7829C69.9323 23.7775 70.0092 23.8467 70.0088 24.1401C70.0075 25.2905 70.0197 25.2905 68.8538 25.2905C68.1255 25.2905 67.3972 25.2905 66.5564 25.2905C67.3303 26.0615 68.022 26.7694 68.7376 27.4518C68.963 27.6668 68.9704 27.8018 68.7311 27.9906C68.4405 28.2197 68.2352 28.7115 67.9129 28.6901C67.6405 28.6721 67.3924 28.2424 67.1393 27.9893C66.6208 27.4703 66.1058 26.9475 65.5514 26.3878C65.4563 26.807 65.5103 27.188 65.5041 27.5633C65.4938 28.2034 65.4901 28.8441 65.5069 29.4838C65.5134 29.7287 65.4415 29.7912 65.1968 29.7965C64.0008 29.822 64.001 29.8302 64.001 28.6418C64.001 27.9135 64.001 27.1855 64.001 26.3481C63.2306 27.1207 62.5222 27.812 61.8391 28.5276C61.6238 28.7532 61.4891 28.7602 61.3003 28.5211C61.0707 28.2305 60.58 28.0244 60.6001 27.703C60.6171 27.4317 61.0471 27.1826 61.3007 26.93C61.8206 26.4123 62.3449 25.899 62.9621 25.2907C62.6348 25.2907 62.4143 25.2907 62.194 25.2907C61.3977 25.2907 60.601 25.2804 59.8051 25.2967C59.5555 25.3017 59.5003 25.2239 59.4952 24.9837C59.4702 23.79 59.4625 23.7903 60.6521 23.7903C61.3803 23.7903 62.1083 23.7903 62.9463 23.7903C62.1728 23.0192 61.4811 22.3111 60.7657 21.6279C60.5419 21.4142 60.5285 21.2799 60.7698 21.0896C61.0606 20.8605 61.2665 20.3698 61.5878 20.3891C61.859 20.4055 62.1073 20.8365 62.3618 21.0879C62.8838 21.6036 63.403 22.1221 63.9245 22.6382C63.9292 22.6424 63.951 22.6289 64.0011 22.6097Z" fill="#231F20"/>
<path fill-rule="evenodd" clip-rule="evenodd" d="M36.5623 55.284C37.3423 56.0607 38.0384 56.7681 38.7532 57.4561C38.9529 57.6482 39.0002 57.7679 38.7632 57.9631C38.4765 58.1994 38.2361 58.6522 37.945 58.6791C37.6408 58.7073 37.4021 58.2301 37.1385 57.9711C36.617 57.4584 36.1109 56.9304 35.508 56.3166C35.508 57.3278 35.508 58.222 35.508 59.1164C35.508 59.7832 35.508 59.7832 34.8618 59.7832C34.0078 59.7833 34.0078 59.7833 34.0078 58.9496C34.0078 58.122 34.0078 57.2946 34.0078 56.415C33.6551 56.6371 33.4257 56.9435 33.1577 57.2025C32.7086 57.6364 32.2618 58.0738 31.8355 58.5298C31.6459 58.7326 31.5238 58.7772 31.3284 58.5401C31.0919 58.2534 30.639 58.0135 30.6116 57.722C30.583 57.4182 31.0599 57.1788 31.3193 56.9161C31.8329 56.3954 32.3626 55.8908 32.9832 55.2841C31.9776 55.2841 31.0989 55.2841 30.2203 55.2841C29.5088 55.2841 29.5088 55.2842 29.509 54.5888C29.509 53.7839 29.509 53.7839 30.298 53.7839C31.1412 53.7839 31.9842 53.7839 32.8796 53.7839C32.6563 53.4317 32.3508 53.2014 32.0913 52.9331C31.6571 52.4842 31.22 52.0372 30.7641 51.6108C30.5627 51.4225 30.5127 51.3009 30.7517 51.1043C31.0387 50.8681 31.2777 50.4154 31.5696 50.3869C31.8751 50.3571 32.111 50.8367 32.3768 51.0932C32.8824 51.5808 33.374 52.083 33.8718 52.5787C33.8925 52.5993 33.9182 52.6149 34.0078 52.6839C34.0078 51.7867 34.0078 50.9396 34.0078 50.0925C34.0078 49.2849 34.0078 49.2849 34.7943 49.2849C35.5081 49.2849 35.5081 49.2849 35.5081 49.9779C35.5081 50.8522 35.5081 51.7266 35.5081 52.6059C35.6755 52.6583 35.7196 52.5033 35.7938 52.4303C36.4394 51.7952 37.0814 51.1563 37.7129 50.5072C37.8734 50.3423 37.9794 50.2936 38.1514 50.4936C38.4042 50.7877 38.8713 51.0392 38.9022 51.3439C38.9346 51.6634 38.4327 51.9069 38.1661 52.1846C37.6905 52.68 37.1987 53.16 36.7141 53.6468C36.6933 53.6678 36.677 53.6931 36.6054 53.784C37.4261 53.784 38.1951 53.784 38.964 53.784C40.0108 53.784 39.9894 53.7845 40.0184 54.8499C40.0291 55.2415 39.8913 55.2994 39.5497 55.2918C38.5977 55.2703 37.6449 55.284 36.5623 55.284Z" fill="#231F20"/>
<path fill-rule="evenodd" clip-rule="evenodd" d="M44.5119 34.6874C44.5119 34.6874 44.5084 34.6854 44.5083 34.6851C44.5081 35.8063 44.5081 36.9274 44.5081 38.1293C43.4904 37.4544 42.5276 36.816 41.5067 36.139C41.5067 37.3877 41.5126 38.5679 41.5013 39.7479C41.4992 39.9652 41.6423 40.0425 41.7695 40.1487C42.9914 41.1696 44.2065 42.1987 45.4428 43.2018C45.7098 43.4184 45.7092 43.549 45.4805 43.7731C45.2263 44.0224 45.0211 44.4897 44.7597 44.5158C44.5063 44.5413 44.2048 44.1323 43.9312 43.9059C43.1501 43.2596 42.3727 42.6091 41.5106 41.8908C41.5106 42.5315 41.5064 43.0964 41.5134 43.6611C41.5152 43.7988 41.6505 43.8626 41.7352 43.9484C42.2506 44.4707 42.7603 44.9995 43.2956 45.5011C43.5132 45.7049 43.5067 45.8269 43.2881 46.0104C43.0043 46.2486 42.7609 46.6848 42.4678 46.7145C42.2351 46.738 41.9539 46.278 41.6937 46.0332C41.6535 45.9954 41.6108 45.9603 41.5642 45.9195C41.5353 45.972 41.5134 45.9948 41.5103 46.0199C41.4679 46.3534 41.6635 46.8687 41.4226 46.9839C41.0785 47.1483 40.6001 47.0273 40.1794 47.0377C39.9769 47.0427 40.0069 46.9085 40.0067 46.7862C40.0063 46.5094 40.0066 46.2325 40.0066 45.8288C39.6999 46.1448 39.4597 46.3759 39.2394 46.6246C39.0872 46.7966 38.9917 46.7692 38.8309 46.6197C37.9403 45.7906 37.9355 45.7957 38.7734 44.9571C38.8397 44.8909 38.9059 44.8247 38.972 44.7583C40.0938 43.6344 40.0938 43.6344 39.9798 41.9271C39.7165 42.1407 39.4825 42.3268 39.2525 42.5179C38.4961 43.1462 37.7335 43.7676 36.9905 44.4114C36.7843 44.5903 36.6794 44.5784 36.5254 44.3652C36.3071 44.0627 35.8825 43.7883 35.8717 43.4902C35.8606 43.1801 36.3569 42.986 36.6373 42.7492C37.6628 41.8832 38.6922 41.0213 39.7317 40.172C39.932 40.0082 40.0157 39.8449 40.0124 39.5848C39.9984 38.4449 40.0062 37.3049 40.0062 36.1649C40.0059 36.1346 40.0056 36.1044 40.0052 36.0741C40.4949 35.8006 40.9861 35.5945 41.5204 36.203C41.5204 35.1296 41.5204 34.2189 41.5204 33.2599C41.9054 33.4525 42.243 33.6374 42.5933 33.7933C43.2383 34.0803 43.8266 34.4881 44.5119 34.6874Z" fill="#231F20"/>
<path fill-rule="evenodd" clip-rule="evenodd" d="M37.0015 29.3908C37.0061 29.3475 37.0109 29.3041 37.0155 29.2609C37.0155 28.1844 37.0155 27.1077 37.0155 25.953C38.0166 26.6162 38.9789 27.2537 40.0064 27.9344C40.0064 26.6805 40.0028 25.4884 40.0099 24.2961C40.0112 24.1 39.8727 24.0319 39.757 23.9353C38.5355 22.9153 37.3186 21.8894 36.0866 20.8821C35.8483 20.6872 35.786 20.5799 36.0181 20.3153C36.75 19.4802 36.7374 19.4676 37.5973 20.1809C38.3747 20.8257 39.15 21.4726 40.0056 22.1847C40.0056 21.5491 40.0066 20.9978 40.0049 20.4464C40.0044 20.2831 39.862 20.213 39.7675 20.1172C39.2524 19.595 38.7393 19.0701 38.2094 18.5633C38.0238 18.3858 37.9774 18.2597 38.2031 18.0921C38.5175 17.8586 38.7193 17.3063 39.0863 17.3765C39.393 17.4353 39.6211 17.9046 39.884 18.1921C39.9248 18.1771 39.9657 18.162 40.0067 18.147C40.0067 17.8782 40.0248 17.6079 40.0014 17.3413C39.9789 17.0838 40.0817 17.0248 40.3173 17.0372C40.6906 17.0568 41.1558 16.9131 41.4146 17.0873C41.6825 17.2678 41.4443 17.7748 41.5485 18.2122C41.8088 17.9425 42.0381 17.7198 42.2494 17.481C42.401 17.3098 42.5012 17.281 42.6921 17.4612C43.571 18.2912 43.578 18.2838 42.7344 19.1272C42.6572 19.2045 42.58 19.2817 42.5027 19.359C41.3949 20.4665 41.3949 20.4665 41.5418 22.1583C41.9131 21.849 42.2514 21.567 42.5898 21.2853C43.2254 20.7563 43.8673 20.2348 44.493 19.6944C44.6896 19.5247 44.8145 19.4497 44.9951 19.7161C45.2034 20.0237 45.6348 20.2964 45.6422 20.5925C45.65 20.9033 45.153 21.0958 44.8719 21.3333C43.8468 22.1992 42.8179 23.0605 41.7793 23.91C41.5798 24.073 41.4972 24.2368 41.5004 24.4962C41.5146 25.6355 41.5064 26.7751 41.5063 27.9147C41.5064 27.944 41.5071 27.9734 41.5082 28.0028C41.0188 28.2774 40.5278 28.473 39.9929 27.8843C39.9929 28.9446 39.9929 29.8541 39.9929 30.8126C39.5507 30.5918 39.1582 30.3788 38.7517 30.1968C38.1655 29.9342 37.6349 29.5504 37.0015 29.3908Z" fill="#231F20"/>
<path fill-rule="evenodd" clip-rule="evenodd" d="M58.0746 50.1193C58.0441 49.9929 57.9357 49.9687 57.8346 49.9254C56.8185 49.4916 55.8004 49.0621 54.7914 48.6119C54.5875 48.5208 54.4473 48.552 54.28 48.6667C53.7655 49.0186 53.2373 49.3511 52.7291 49.7117C52.5112 49.8663 52.3751 49.9062 52.2253 49.6311C52.047 49.3041 51.6451 48.9801 51.676 48.6909C51.7083 48.3891 52.2312 48.2562 52.5295 48.0355C52.6247 47.965 52.722 47.8971 52.8676 47.7925C52.2944 47.5489 51.7706 47.317 51.239 47.1049C51.025 47.0196 50.9665 46.9411 51.064 46.7C51.5161 45.5795 51.5062 45.5761 52.6322 46.0582C52.9007 46.1732 53.1712 46.2836 53.5032 46.4223C53.5032 45.9567 53.5157 45.5428 53.4985 45.1303C53.4884 44.8875 53.5263 44.7809 53.8156 44.7769C55.0041 44.7607 55.0726 44.754 54.9813 45.939C54.9131 46.823 55.1775 47.2714 56.0382 47.5378C56.9506 47.8201 57.8096 48.2749 58.7363 48.6737C58.7363 47.9856 58.7363 47.353 58.7363 46.6479C59.526 46.9541 60.267 47.2415 61.0081 47.529C61.0044 47.5459 61.0007 47.5628 60.9971 47.5795C60.9971 48.2443 60.9971 48.9091 60.9971 49.6347C60.227 49.3099 59.5077 49.0066 58.7337 48.6802C58.8125 49.2729 58.7496 49.7504 58.2461 50.0522C58.2386 50.0565 58.2578 50.1055 58.2644 50.1336C58.2012 50.1289 58.1378 50.1241 58.0746 50.1193Z" fill="#231F20"/>
<path fill-rule="evenodd" clip-rule="evenodd" d="M60.9971 47.5795C61.0007 47.5626 61.0044 47.5458 61.0081 47.529C61.0059 46.3888 60.9937 45.2484 61.0093 44.1085C61.0129 43.8319 60.9246 43.6905 60.6787 43.5756C60.0155 43.2662 59.3698 42.9193 58.7063 42.6109C58.4579 42.4954 58.4464 42.3878 58.559 42.1537C59.0669 41.099 59.0591 41.0951 60.0888 41.6096C60.377 41.7536 60.6651 41.8978 61.0018 42.0659C61.0018 41.2936 61.0137 40.5794 60.9957 39.8661C60.9889 39.6017 61.0653 39.5327 61.3299 39.5297C62.502 39.5163 62.5019 39.5069 62.5019 40.6627C62.5019 41.1121 62.5019 41.5615 62.5019 42.0723C63.0864 41.7794 63.6281 41.5166 64.1608 41.2365C64.3511 41.1364 64.4375 41.1556 64.5473 41.3587C65.1323 42.4395 65.1374 42.432 64.042 42.9863C63.5298 43.2456 62.8166 43.3599 62.5659 43.8116C62.3264 44.243 62.5053 44.9071 62.5023 45.469C62.4988 46.1562 62.4974 46.8433 62.495 47.5306C62.4993 47.5469 62.5032 47.5633 62.5068 47.5796C62.0037 47.8054 61.5004 47.8105 60.9971 47.5795Z" fill="#231F20"/>
<path fill-rule="evenodd" clip-rule="evenodd" d="M62.4962 54.045C62.4982 55.1694 62.5153 56.2942 62.4925 57.4179C62.4859 57.7387 62.5964 57.8835 62.8734 58.0101C63.5096 58.3015 64.1244 58.6397 64.7579 58.937C65.0013 59.0513 65.1008 59.153 64.9403 59.4179C64.7473 59.736 64.6647 60.2408 64.3975 60.3613C64.1198 60.4863 63.748 60.0958 63.4091 59.9483C63.1254 59.825 62.8544 59.6725 62.502 59.4947C62.502 60.2317 62.4798 60.9221 62.5113 61.61C62.5274 61.9631 62.429 62.0489 62.0791 62.042C61.0022 62.0209 61.0018 62.0376 61.0018 60.9532C61.0018 60.4893 61.0018 60.0252 61.0018 59.502C60.415 59.7958 59.873 60.0581 59.3406 60.3384C59.1464 60.4408 59.0629 60.4103 58.9554 60.2117C58.3718 59.1332 58.3671 59.1404 59.4598 58.5873C59.9725 58.328 60.6841 58.2107 60.9359 57.7593C61.1759 57.329 60.9983 56.6646 61.0014 56.1032C61.0052 55.4161 61.0062 54.7291 61.0083 54.042C61.0052 54.0245 61.0013 54.0071 60.9971 53.9899C61.4998 53.7588 62.003 53.7599 62.5064 53.9875C62.5023 54.0066 62.4989 54.0258 62.4962 54.045Z" fill="#231F20"/>
<path fill-rule="evenodd" clip-rule="evenodd" d="M65.4279 51.449C65.4555 51.5778 65.5661 51.5995 65.6664 51.6423C66.6823 52.0753 67.7008 52.5025 68.7091 52.9529C68.9325 53.0527 69.079 53.0045 69.2588 52.8798C69.771 52.5243 70.3008 52.1941 70.8085 51.8327C71.0293 51.6756 71.1445 51.7109 71.2739 51.9358C71.4598 52.2589 71.8546 52.5832 71.8265 52.875C71.7976 53.1772 71.2789 53.3155 70.98 53.5332C70.8832 53.6037 70.7846 53.6721 70.6449 53.7713C71.1937 54.0085 71.6998 54.2437 72.2194 54.4452C72.4757 54.5447 72.5377 54.639 72.4206 54.9124C71.9636 55.9808 71.9745 55.9855 70.9116 55.5281C70.6294 55.4065 70.3467 55.2859 70.0006 55.1377C70.0006 55.6137 69.9876 56.028 70.0054 56.4409C70.0158 56.6865 69.9721 56.7883 69.6861 56.7924C68.4997 56.8085 68.4316 56.8149 68.5223 55.6286C68.59 54.7447 68.3292 54.2887 67.4646 54.0283C66.5323 53.7475 65.6804 53.2299 64.7475 52.9264C64.7511 52.9064 64.7542 52.8861 64.7564 52.866C64.7128 52.3384 64.7182 51.8295 65.2578 51.5175C65.2654 51.5131 65.2469 51.464 65.2405 51.4359C65.303 51.4401 65.3654 51.4446 65.4279 51.449Z" fill="#231F20"/>
<path fill-rule="evenodd" clip-rule="evenodd" d="M64.7473 48.6435C65.9651 48.2132 67.1236 47.641 68.3186 47.1571C68.5247 47.0736 68.4991 46.936 68.4995 46.7848C68.5008 46.223 68.5093 45.6608 68.4955 45.0991C68.4898 44.8694 68.5365 44.7837 68.7963 44.7774C69.9994 44.7492 69.9992 44.7389 70.0006 45.9243C70.0013 46.4306 70.0012 46.4303 70.4839 46.2248C70.8131 46.0847 71.1635 45.9799 71.4672 45.7974C71.8825 45.548 72.025 45.6969 72.1795 46.0989C72.5175 46.9777 72.5406 46.9682 71.6608 47.3522C71.3351 47.4944 71.0107 47.6391 70.644 47.8011C71.0178 48.0547 71.3412 48.2908 71.6818 48.4986C71.8725 48.615 71.8895 48.6998 71.7689 48.8951C71.1243 49.9387 71.0763 50.0098 70.1286 49.2415C69.3161 48.5829 68.604 48.5078 67.7155 49.0251C67.1153 49.3747 66.4342 49.5835 65.7951 49.8684C65.6634 49.927 65.4758 49.9279 65.4296 50.1198C65.3654 50.1243 65.3013 50.1286 65.237 50.1331C64.8679 49.7271 64.6378 49.274 64.7563 48.7038C64.7537 48.6837 64.7507 48.6635 64.7473 48.6435Z" fill="#231F20"/>
<path fill-rule="evenodd" clip-rule="evenodd" d="M58.7567 52.9266C58.3911 52.9572 58.1002 53.1812 57.7749 53.314C56.9693 53.6422 56.1818 54.0155 55.3706 54.328C55.0643 54.4459 54.9825 54.6002 54.9971 54.9064C55.0223 55.4355 54.9945 55.9668 55.0088 56.4967C55.0145 56.7138 54.9593 56.7815 54.7287 56.7909C53.5058 56.8406 53.5062 56.8486 53.5035 55.6212C53.5032 55.4835 53.5035 55.3458 53.5035 55.1437C52.9352 55.3859 52.4073 55.5996 51.8901 55.8365C51.6543 55.9443 51.5092 55.9726 51.4132 55.6656C51.3026 55.3128 50.9678 54.9334 51.0418 54.6458C51.1211 54.3389 51.6601 54.325 51.987 54.1589C52.261 54.0196 52.5487 53.9077 52.8696 53.7664C52.4879 53.5102 52.1603 53.273 51.8149 53.0652C51.6147 52.9448 51.6257 52.8509 51.7399 52.6669C52.3825 51.6323 52.429 51.5643 53.3809 52.3269C54.1903 52.9754 54.9003 53.0762 55.7921 52.5459C56.388 52.1916 57.0707 51.9847 57.709 51.6991C57.8411 51.64 58.0265 51.6371 58.0765 51.4493C58.1386 51.4446 58.2007 51.4403 58.2628 51.4356C58.6525 51.8357 58.8671 52.2951 58.7474 52.8676C58.7499 52.8871 58.7529 52.907 58.7567 52.9266Z" fill="#231F20"/>
<path fill-rule="evenodd" clip-rule="evenodd" d="M41.5083 28.0031C41.5072 27.9739 41.5066 27.9444 41.5064 27.915C42.4825 27.279 43.4585 26.643 44.5085 25.9587C44.5085 27.1391 44.5085 28.266 44.5084 29.3931C44.5083 29.3933 44.5119 29.3913 44.5119 29.3913C44.1933 29.4114 43.9521 29.6171 43.681 29.7465C42.9637 30.0887 42.2555 30.4499 41.5083 30.8212C41.5083 29.835 41.5083 28.9191 41.5083 28.0031Z" fill="#231F20"/>
<path fill-rule="evenodd" clip-rule="evenodd" d="M40.0052 36.0741C40.0056 36.1044 40.0059 36.1345 40.0062 36.1649C39.0257 36.8045 38.045 37.4444 37.0156 38.116C37.0156 36.9773 37.0156 35.8966 37.0156 34.816C37.0109 34.7727 37.0062 34.7295 37.0015 34.6863C37.2665 34.7059 37.4528 34.5223 37.667 34.4189C38.4383 34.0467 39.2026 33.6601 40.0052 33.2611C40.0052 34.244 40.0052 35.1591 40.0052 36.0741Z" fill="#231F20"/>
<path fill-rule="evenodd" clip-rule="evenodd" d="M58.7515 32.0459C58.7474 32.8747 58.0508 33.5535 57.2209 33.5374C56.4135 33.5217 55.7497 32.8396 55.7537 32.0294C55.7577 31.197 56.449 30.5233 57.2832 30.5387C58.0911 30.5536 58.7558 31.2358 58.7515 32.0459Z" fill="#231F20"/>
<path fill-rule="evenodd" clip-rule="evenodd" d="M44.5061 54.5111C44.5171 53.6794 45.2154 53.0116 46.05 53.0346C46.8572 53.0567 47.5152 53.7452 47.5041 54.5557C47.4929 55.3835 46.789 56.0566 45.9594 56.0331C45.1531 56.0102 44.4954 55.3213 44.5061 54.5111Z" fill="#231F20"/>
<path fill-rule="evenodd" clip-rule="evenodd" d="M69.9992 39.5497C69.9927 40.36 69.3201 41.0314 68.5101 41.0365C67.6818 41.0416 66.9945 40.3522 67.0012 39.5233C67.0081 38.6902 67.7007 38.0196 68.5355 38.0376C69.3431 38.0549 70.0056 38.7394 69.9992 39.5497Z" fill="#231F20"/>
<path fill-rule="evenodd" clip-rule="evenodd" d="M32.5074 44.7945C32.5029 45.6225 31.8047 46.3019 30.9753 46.2853C30.168 46.269 29.505 45.5863 29.5095 44.776C29.5143 43.9437 30.2063 43.2703 31.0401 43.2864C31.8479 43.3019 32.5118 43.9845 32.5074 44.7945Z" fill="#231F20"/>
<path fill-rule="evenodd" clip-rule="evenodd" d="M58.7567 52.9266C58.753 52.907 58.7499 52.8873 58.7473 52.8673C59.4843 52.5639 60.2214 52.2606 60.9972 51.9413C60.9972 52.6625 60.9972 53.3262 60.9972 53.99C61.0014 54.0073 61.0052 54.0246 61.0084 54.0421C60.2781 54.3259 59.548 54.6095 58.7567 54.9168C58.7567 54.232 58.7567 53.5792 58.7567 52.9266Z" fill="#231F20"/>
<path fill-rule="evenodd" clip-rule="evenodd" d="M64.7473 48.6435C64.7506 48.6635 64.7537 48.6837 64.7564 48.7038C64.0199 49.0073 63.2835 49.3105 62.5069 49.6303C62.5069 48.9055 62.5069 48.2426 62.5069 47.5796C62.5034 47.5633 62.4993 47.5469 62.495 47.5306C63.2325 47.2457 63.97 46.9604 64.7473 46.66C64.7473 47.3439 64.7473 47.9937 64.7473 48.6435Z" fill="#231F20"/>
<path fill-rule="evenodd" clip-rule="evenodd" d="M64.7566 52.8659C64.7542 52.886 64.7512 52.9063 64.7476 52.9263C64.7476 53.5656 64.7476 54.205 64.7476 54.9038C63.98 54.611 63.2382 54.3281 62.4962 54.045C62.4988 54.0258 62.5023 54.0065 62.5064 53.9875C62.5064 53.3247 62.5064 52.662 62.5064 51.9361C63.2841 52.2574 64.0204 52.5618 64.7566 52.8659Z" fill="#231F20"/>
<path fill-rule="evenodd" clip-rule="evenodd" d="M65.2372 50.1331C65.3014 50.1286 65.3655 50.1243 65.4298 50.1198C65.893 50.2835 66.3147 50.528 66.8008 50.7853C66.3128 51.0398 65.8927 51.2884 65.428 51.4491C65.3655 51.4448 65.3031 51.4403 65.2408 51.4359C64.7464 51.2352 64.2521 51.0344 63.6361 50.7842C64.2512 50.534 64.7442 50.3336 65.2372 50.1331Z" fill="#231F20"/>
<path fill-rule="evenodd" clip-rule="evenodd" d="M58.2626 51.4354C58.2005 51.44 58.1383 51.4444 58.0762 51.449C57.6389 51.244 57.2014 51.0393 56.6576 50.7846C57.2002 50.5299 57.6374 50.3245 58.0746 50.1193C58.1378 50.1241 58.2012 50.1289 58.2644 50.1336C58.7643 50.3358 59.264 50.5379 59.8818 50.7878C59.252 51.0397 58.7573 51.2375 58.2626 51.4354Z" fill="#231F20"/>
</svg>
