<svg width="100" height="80" viewBox="0 0 100 80" fill="none" xmlns="http://www.w3.org/2000/svg">
<path d="M100 35.5556C100 60.1015 77.6142 80 50 80C22.3858 80 0 60.1015 0 35.5556C0 11.0096 22.3858 0 50 0C77.6142 0 100 11.0096 100 35.5556Z" fill="#FFE9BE"/>
<path d="M28.336 63.999C27.6543 63.3445 26.952 62.7105 26.3061 62.0245C26.1215 61.828 26.0173 61.4785 26.0152 61.1974C25.9945 58.1514 25.9989 55.1045 26.0054 52.0585C26.0065 51.3258 26.3343 51.0034 27.0648 51.0002C28.7734 50.9937 30.4831 50.998 32.2025 50.9687C31.1094 50.6973 30.2388 50.1296 29.4855 49.2818C28.2915 47.9391 28.1547 43.253 29.9371 41.7995C31.3157 40.6749 32.8017 40.2776 34.4679 40.904C36.0495 41.4988 37.0373 42.6809 37.1925 44.3776C37.2935 45.4782 37.3239 46.6332 37.1014 47.7035C36.7225 49.5196 35.4308 50.5519 33.6419 50.998C35.3168 50.998 36.9917 50.9969 38.6667 50.998C39.5937 50.9991 39.8824 51.2813 39.8835 52.2094C39.8868 55.1544 39.8802 58.0993 39.8889 61.0432C39.89 61.5317 39.7532 61.9279 39.382 62.2568C38.7394 62.8278 38.1131 63.4161 37.4802 63.9979C34.431 63.999 31.383 63.999 28.336 63.999ZM38.1445 52.7695C34.6351 52.7695 31.1963 52.7695 27.7335 52.7695C27.7335 55.1435 27.7758 57.4763 27.7118 59.8068C27.6879 60.6915 27.8898 61.3537 28.5867 61.9116C28.8841 62.1493 29.1414 62.2796 29.5224 62.2763C31.5849 62.2601 33.6495 62.2253 35.7108 62.2894C36.5749 62.3165 37.2305 62.1276 37.7722 61.4362C38.0023 61.142 38.1576 60.8923 38.1543 60.5037C38.1358 58.6106 38.1456 56.7164 38.1456 54.8233C38.1445 54.1503 38.1445 53.4762 38.1445 52.7695ZM30.3203 45.805C30.3311 45.8061 30.342 45.8061 30.3539 45.8072C30.3539 46.1111 30.3431 46.4161 30.3561 46.719C30.4158 48.1388 31.485 49.2145 32.8755 49.2612C34.2172 49.3068 35.3928 48.2875 35.5144 46.9013C35.5784 46.1643 35.5773 45.412 35.5122 44.675C35.3982 43.3963 34.3844 42.4345 33.1599 42.3564C31.8324 42.2717 30.7099 43.0619 30.4255 44.345C30.3203 44.8161 30.3517 45.3176 30.3203 45.805Z" fill="black"/>
<path d="M63.0771 63.999C62.3422 63.3054 61.5878 62.6291 60.8854 61.904C60.7248 61.7379 60.6835 61.4025 60.6825 61.1453C60.6694 58.133 60.6694 55.1207 60.677 52.1074C60.6792 51.2933 61.0005 50.9991 61.8407 50.998C63.533 50.9959 65.2242 50.9969 66.9252 50.9698C65.488 50.6528 64.3862 49.8897 63.7468 48.5589C63.5395 48.1258 63.3897 47.6351 63.3463 47.1597C63.2377 45.9657 63.152 44.7575 63.5134 43.5852C64.1213 41.6117 66.0633 40.4144 68.231 40.6532C70.1556 40.8649 71.8066 42.6028 71.9043 44.5947C71.9521 45.5542 72.0118 46.5442 71.836 47.4778C71.4799 49.373 70.237 50.4998 68.3634 50.998C69.0061 50.998 69.6487 50.998 70.2913 50.998C71.3573 50.998 72.4243 50.9926 73.4903 51.0002C74.2208 51.0056 74.5475 51.3258 74.5497 52.0586C74.5562 55.1045 74.5595 58.1515 74.5399 61.1974C74.5378 61.4774 74.4346 61.828 74.249 62.0245C73.6032 62.7116 72.8997 63.3456 72.2191 63.999C69.1721 63.999 66.1251 63.999 63.0771 63.999ZM62.4117 52.7413C62.4117 52.9845 62.4117 53.1842 62.4117 53.384C62.4117 55.5311 62.4594 57.6793 62.3889 59.8242C62.3596 60.7176 62.5886 61.3689 63.2746 61.9279C63.5569 62.158 63.8022 62.2796 64.1658 62.2764C66.2283 62.2612 68.2929 62.2253 70.3543 62.2894C71.2335 62.3165 71.9065 62.1287 72.4612 61.421C72.6935 61.1246 72.8346 60.8717 72.8324 60.4875C72.8162 58.0863 72.8248 55.6863 72.8248 53.2852C72.8248 53.1071 72.8248 52.9302 72.8248 52.7413C69.3285 52.7413 65.9146 52.7413 62.4117 52.7413ZM70.2327 45.8267C70.2218 45.8267 70.2121 45.8256 70.2012 45.8256C70.2012 45.5043 70.2131 45.183 70.199 44.8628C70.1382 43.4755 69.1092 42.4161 67.7697 42.3531C66.3564 42.2858 65.1862 43.2411 65.0483 44.6576C64.9756 45.4099 64.9778 46.1806 65.0472 46.9339C65.1688 48.2419 66.2196 49.195 67.5113 49.2601C68.7303 49.322 69.8701 48.4688 70.135 47.2379C70.2338 46.7819 70.2045 46.2978 70.2327 45.8267Z" fill="black"/>
<path d="M45.7051 63.9986C44.9952 63.3256 44.2657 62.671 43.5905 61.9654C43.4201 61.7863 43.3604 61.44 43.3593 61.1708C43.3441 58.1412 43.3463 55.1105 43.3517 52.0809C43.3528 51.3069 43.6589 51.0019 44.4285 50.9997C46.1382 50.9943 47.8468 50.9975 49.5662 50.9704C48.1377 50.6382 47.0207 49.886 46.4085 48.5411C46.1697 48.0157 46.0166 47.4165 45.9808 46.8412C45.894 45.4615 45.7984 44.0699 46.5268 42.7847C47.4148 41.2161 49.3404 40.3173 51.112 40.6842C52.9801 41.0707 54.4336 42.6186 54.5421 44.4618C54.6051 45.5179 54.6659 46.6154 54.4575 47.639C54.0841 49.4659 52.8184 50.5243 51.0056 50.9986C51.2064 50.9986 51.4061 50.9986 51.6069 50.9986C51.8273 50.9986 52.0477 50.9986 52.2669 50.9986C53.5532 50.9986 54.8406 50.9943 56.127 51.0008C56.8966 51.0041 57.2027 51.308 57.2038 52.082C57.2081 55.1116 57.2114 58.1423 57.1962 61.1719C57.1951 61.4422 57.1354 61.7885 56.965 61.9665C56.2898 62.6732 55.5603 63.3266 54.8504 63.9996C51.8002 63.9986 48.7521 63.9986 45.7051 63.9986ZM45.0853 52.7441C45.0853 55.4807 45.0592 58.1684 45.1189 60.8539C45.1265 61.1806 45.602 61.4943 45.8538 61.82C46.1219 62.1652 46.4519 62.2846 46.9013 62.2791C48.9486 62.2531 50.9969 62.2238 53.042 62.2889C53.9071 62.316 54.5617 62.1261 55.1077 61.4368C55.3432 61.1404 55.48 60.8832 55.4767 60.5011C55.4616 58.0989 55.4692 55.6967 55.4692 53.2955C55.4692 53.1175 55.4692 52.9384 55.4692 52.7452C51.9825 52.7441 48.5708 52.7441 45.0853 52.7441ZM47.6481 45.7709C47.6731 46.2051 47.6742 46.6469 47.7295 47.0811C47.8848 48.3012 49.0137 49.2597 50.2707 49.2629C51.5017 49.2662 52.6848 48.3326 52.8043 47.1408C52.8933 46.2561 52.8933 45.3486 52.8053 44.4639C52.6838 43.2427 51.5038 42.3255 50.2294 42.345C48.979 42.3635 47.8869 43.2959 47.7285 44.503C47.6753 44.9198 47.6742 45.3443 47.6481 45.7709Z" fill="black"/>
<path d="M38.1205 25.8643C38.1422 25.4334 38.1476 25.0958 38.1769 24.7604C38.2877 23.5077 39.2006 22.56 40.4619 22.4396C41.0828 22.3799 41.7124 22.3929 42.3377 22.3918C44.4707 22.3864 46.6026 22.3896 48.7356 22.3896C48.9114 22.3896 49.0862 22.3896 49.3587 22.3896C48.7627 22.0889 48.233 21.899 47.7923 21.5853C46.722 20.8222 46.0826 19.7779 45.9915 18.4406C45.9111 17.2596 45.8297 16.0774 46.201 14.9225C46.7839 13.1075 48.7475 11.8136 50.6059 12.022C52.7715 12.2652 54.4225 13.8207 54.5408 15.8549C54.6049 16.9589 54.6299 18.103 54.4138 19.1765C54.1056 20.7082 53.0494 21.6982 51.5481 22.1812C51.4591 22.2094 51.3734 22.2496 51.2985 22.3896C51.4721 22.3896 51.6447 22.3896 51.8184 22.3896C54.391 22.3896 56.9637 22.3842 59.5363 22.3918C60.9833 22.3961 62.0275 23.1223 62.3163 24.3587C62.4226 24.8135 62.4096 25.2966 62.4574 25.8404C62.6321 25.848 62.8265 25.8643 63.0197 25.8643C65.4914 25.8665 67.9619 25.8654 70.4336 25.8654C70.5693 25.8654 70.705 25.8686 70.8396 25.8654C71.2695 25.8556 71.6624 25.9338 71.86 26.3723C72.0423 26.7783 71.8817 27.1191 71.632 27.4491C70.3989 29.0828 69.2374 30.7762 67.9229 32.3415C67.0056 33.4335 66.5747 34.5635 66.7256 35.9801C66.8178 36.8506 66.7462 37.7386 66.7418 38.6178C66.7375 39.4233 66.4412 39.725 65.6412 39.7261C63.0512 39.7294 60.4622 39.7272 57.8722 39.7272C50.2889 39.7272 42.7067 39.7272 35.1234 39.7272C34.0466 39.7272 33.8143 39.4949 33.8143 38.4192C33.8143 37.1166 33.835 35.8129 33.8002 34.5103C33.7915 34.1847 33.6776 33.8091 33.4865 33.5485C32.0157 31.5436 30.5144 29.5604 29.0229 27.5707C28.9828 27.5164 28.9415 27.4622 28.8992 27.4101C28.6354 27.0844 28.5171 26.7294 28.719 26.3311C28.9144 25.9457 29.2693 25.8665 29.6623 25.8665C32.2686 25.8676 34.8759 25.8665 37.4822 25.8665C37.6809 25.8643 37.8795 25.8643 38.1205 25.8643ZM31.233 27.6261C32.1003 28.7821 32.9079 29.8579 33.7155 30.9347C33.7557 30.9151 33.7959 30.8956 33.836 30.8761C33.836 30.3756 33.836 29.8752 33.836 29.3802C34.4276 29.3802 34.9726 29.3802 35.5696 29.3802C35.5696 32.2731 35.5696 35.1236 35.5696 37.9578C45.4118 37.9578 55.2019 37.9578 65.042 37.9578C65.042 35.0672 65.042 32.2156 65.042 29.3672C65.627 29.3672 66.1611 29.3672 66.7668 29.3672C66.7668 29.898 66.7668 30.3995 66.7668 31.0389C67.6656 29.8383 68.47 28.7648 69.3242 27.6261C56.5968 27.6261 43.9757 27.6261 31.233 27.6261ZM52.9083 17.2248C52.8833 16.7895 52.8822 16.3477 52.8268 15.9135C52.6727 14.6924 51.547 13.7339 50.2879 13.7284C49.058 13.723 47.8726 14.6554 47.751 15.8473C47.661 16.732 47.661 17.6395 47.7489 18.5242C47.8694 19.7464 49.0471 20.6637 50.3215 20.6463C51.572 20.6289 52.6673 19.6965 52.8258 18.4916C52.88 18.0748 52.8822 17.6503 52.9083 17.2248ZM56.2266 24.185C52.2624 24.185 48.2775 24.185 44.3046 24.185C44.3046 24.5986 44.323 24.9536 44.3002 25.3064C44.272 25.7395 44.4251 25.8784 44.8788 25.8762C48.4805 25.8567 52.0822 25.8654 55.6839 25.8643C55.8478 25.8643 56.0106 25.8458 56.2277 25.8328C56.2266 25.2608 56.2266 24.7267 56.2266 24.185ZM42.4408 24.1568C41.8166 24.1568 41.2283 24.1308 40.6432 24.1655C40.2003 24.1916 39.9431 24.4814 39.9061 24.9243C39.8812 25.2195 39.9018 25.518 39.9018 25.8383C40.7745 25.8383 41.5941 25.8383 42.4419 25.8383C42.4408 25.276 42.4408 24.743 42.4408 24.1568ZM60.6555 25.8339C60.6555 25.5028 60.6772 25.2011 60.65 24.9036C60.612 24.4857 60.3667 24.197 59.9455 24.172C59.3453 24.1362 58.7406 24.1633 58.1273 24.1633C58.1273 24.7321 58.1273 25.277 58.1273 25.835C58.9838 25.8339 59.8033 25.8339 60.6555 25.8339Z" fill="black"/>
</svg>
