<svg width="100" height="80" viewBox="0 0 100 80" fill="none" xmlns="http://www.w3.org/2000/svg">
<path d="M100 35.5556C100 60.1015 77.6142 80 50 80C22.3858 80 0 60.1015 0 35.5556C0 11.0096 22.3858 0 50 0C77.6142 0 100 11.0096 100 35.5556Z" fill="#FFE9BE"/>
<path d="M71.7418 44.9271L67.117 43.8785V41.9555C68.147 41.5037 69.0955 40.8616 69.9151 40.0424C71.2013 38.7563 72.0566 37.1543 72.4106 35.4114C73.9334 35.2157 75.1142 33.9121 75.1142 32.3369C75.1142 31.5124 74.7885 30.7316 74.2131 30.1532V23.0436C74.2131 18.625 70.6184 15.0304 66.1999 15.0304V15.0541C65.672 14.4123 64.8725 14.0016 63.9787 14H63.9651C63.9548 14 63.9446 14 63.9342 14C60.977 14 58.1723 15.1731 56.0344 17.3052C53.8432 19.4904 52.6365 22.3794 52.6365 25.44V30.1909C52.0843 30.7654 51.7714 31.5328 51.7714 32.337C51.7714 32.8919 51.9187 33.4128 52.175 33.8638C51.3697 33.6516 50.5314 33.5422 49.6757 33.547C48.081 33.5589 46.5784 33.9754 45.2614 34.6975V33.5449C45.2614 29.9866 42.9832 26.8779 39.5924 25.8093L39.2424 26.9196C42.1462 27.8347 44.0973 30.4972 44.0973 33.5449V35.4512C42.11 36.9545 40.7225 39.2267 40.3693 41.8212C39.0988 42.662 37.6244 43.1059 36.0883 43.1059C34.0115 43.1059 32.0583 42.2969 30.5886 40.8283C29.1197 39.3584 28.3107 37.4051 28.3107 35.3282V33.8427C28.3107 31.2974 29.791 28.9621 32.0879 27.8731L32.1529 27.8432C34.8972 26.5793 36.6704 23.8092 36.6704 20.7861V19.7902H35.5063V20.7861C35.5063 23.3313 34.0283 25.6654 31.7339 26.754L31.6648 26.7858C28.9201 28.0511 27.1466 30.821 27.1466 33.8427V42.9113C27.1466 44.1496 27.3314 45.3718 27.6945 46.5529C25.8879 47.2296 24.3975 48.548 23.506 50.2627C22.6464 49.2105 22.1641 47.8826 22.1641 46.5109C22.1641 44.6713 22.9969 42.967 24.4492 41.8344C25.2972 41.1716 25.7835 40.1791 25.7835 39.1116V27.1884C25.7835 24.4266 26.859 21.8301 28.812 19.8772C30.7442 17.9461 33.3117 16.8709 36.0419 16.8497C38.777 16.828 41.3656 17.8952 43.3402 19.8545C45.3557 21.854 46.4656 24.505 46.4656 27.3188V32.3724H47.6297V27.3188C47.6297 24.1923 46.3976 21.2478 44.1602 19.028C41.9635 16.8487 39.0792 15.6637 36.0327 15.6857C32.9953 15.7094 30.1386 16.9056 27.9888 19.054C25.8159 21.2269 24.6193 24.1158 24.6193 27.1886V39.1117C24.6193 39.8187 24.2962 40.4767 23.7329 40.9168C21.9962 42.2711 21 44.3101 21 46.511C21 48.3551 21.7271 50.1345 23.0064 51.4521C22.7513 52.232 22.6216 53.0453 22.6216 53.8752V65H36.9022V63.8359H23.7854V53.8752C23.7854 53.0579 23.9322 52.2599 24.2221 51.5029C25.0182 49.4168 26.7935 47.8764 28.9711 47.3823L33.9704 46.2493V44.0176C34.6557 44.1834 35.3652 44.2699 36.088 44.2699C36.8347 44.2699 37.5685 44.1772 38.2777 43.9989V46.2493L40.2784 46.7029V49.4939C40.2784 51.9465 42.2738 53.9417 44.7263 53.9417H44.8881V52.7776H44.7263C42.9157 52.7776 41.4426 51.3046 41.4426 49.4939V43.1271C41.4426 38.5201 45.1398 34.7448 49.6842 34.711C51.9201 34.6937 54.0151 35.5505 55.5976 37.1213C57.1804 38.6923 58.0519 40.7856 58.0519 43.0154V49.4939C58.0519 51.3046 56.5788 52.7776 54.7683 52.7776V53.9417C57.2208 53.9417 59.2161 51.9465 59.2161 49.4939V45.2141L59.8403 45.0723V50.3744C59.8403 50.7086 60.0528 51.0058 60.3693 51.1136C60.4521 51.1419 60.537 51.1556 60.6212 51.1556C60.8586 51.1556 61.0888 51.0469 61.2397 50.8517L63.4787 47.7346L65.7057 50.8357L65.7178 50.852C65.922 51.1164 66.2717 51.2216 66.5882 51.1138C66.9045 51.0059 67.1171 50.7088 67.1171 50.3745V45.072L71.4845 46.0623C74.9271 46.8422 77.3314 49.8525 77.3314 53.3829V63.8359H72.384V54.1086H71.2199V63.8359H61.8652V65H78.4956V53.3829C78.4956 51.4239 77.8223 49.5019 76.5999 47.9715C75.3772 46.441 73.6519 45.3598 71.7418 44.9271ZM29.7652 41.6515C29.7975 41.6839 29.8315 41.714 29.8645 41.7459V42.8797C29.8645 43.9011 29.9921 44.9145 30.2404 45.9012L28.811 46.2251C28.4791 45.1503 28.3105 44.0382 28.3105 42.9113V39.7422C28.7032 40.4322 29.1888 41.0747 29.7652 41.6515ZM32.8064 45.3197L31.3758 45.6439C31.1461 44.7416 31.0286 43.8143 31.0286 42.8797V42.7013C31.5861 43.0855 32.1819 43.4023 32.8064 43.6486V45.3197ZM39.442 45.3197V43.6205C39.727 43.5051 40.0058 43.3732 40.2785 43.228V45.5095L39.442 45.3197ZM72.5724 34.1906C72.586 33.9849 72.5955 33.7784 72.5955 33.5704V33.3278C73.1781 33.111 73.6573 32.6825 73.9389 32.1345C73.9459 32.2015 73.9499 32.269 73.9499 32.337C73.9499 33.2106 73.3684 33.9501 72.5724 34.1906ZM73.0489 23.0439V31.0068C73.0489 31.4022 72.8726 31.7564 72.5955 31.9975V31.3482C72.5955 30.3717 72.3054 29.4292 71.756 28.6216C71.5509 28.3215 71.3913 27.9898 71.2822 27.637C71.1742 27.2853 71.1194 26.9207 71.1194 26.5531V25.347C71.1194 23.5227 69.6352 22.0385 67.8153 22.0385L66.4757 22.0286C66.7262 21.3134 66.8551 20.5642 66.8551 19.7906V16.8802C66.8551 16.6533 66.8279 16.4328 66.778 16.2209C70.2847 16.5156 73.0489 19.462 73.0489 23.0439ZM53.8004 25.4401C53.8004 22.691 54.8856 20.0947 56.8563 18.1297C58.7745 16.2166 61.287 15.1643 63.9358 15.1643C63.9448 15.1643 63.9541 15.1643 63.9632 15.1643H63.9773C64.9221 15.166 65.6908 15.9357 65.6908 16.8802V19.7906C65.6908 20.6878 65.4857 21.5456 65.0815 22.3399C64.1142 24.2371 62.1923 25.4157 60.0658 25.4157C58.5216 25.4157 57.0709 26.0167 55.9813 27.1077C54.8903 28.1988 54.2893 29.649 54.2893 31.191V31.8945C53.9847 31.6072 53.8004 31.201 53.8004 30.7568V25.4401ZM52.9599 32.0473C53.2479 32.5852 53.7117 33.0187 54.2894 33.2647V33.5704C54.2894 33.7777 54.297 33.9844 54.3109 34.1901C53.516 33.9487 52.9355 33.2097 52.9355 32.337C52.9354 32.2391 52.9454 32.1428 52.9599 32.0473ZM55.7366 35.6816C55.5495 34.999 55.4535 34.2899 55.4535 33.5705V31.191C55.4535 29.9599 55.9332 28.8021 56.8047 27.9306C57.6748 27.0596 58.8329 26.5798 60.0658 26.5798C62.5099 26.5798 64.7293 25.2894 65.9434 23.1889L67.8108 23.2027C68.9931 23.2027 69.9552 24.1646 69.9552 25.347V26.5531C69.9552 27.0366 70.0272 27.5165 70.1697 27.9799C70.3136 28.4451 70.5239 28.882 70.7941 29.2774C71.2109 29.8901 71.4313 30.6061 71.4313 31.3482V33.5705C71.4313 35.7047 70.6005 37.7109 69.0921 39.2193C67.5821 40.728 65.576 41.5588 63.443 41.5588C62.4717 41.5588 61.5246 41.3869 60.6267 41.0477C59.9509 40.7938 59.3149 40.4486 58.7327 40.0221C58.271 38.6317 57.4885 37.358 56.4176 36.2952C56.1992 36.0783 55.9717 35.8741 55.7366 35.6816ZM59.2161 44.0205V43.0155C59.2161 42.5496 59.182 42.0891 59.1164 41.6363C59.3523 41.7629 59.5936 41.8796 59.8401 41.9848V43.8786L59.2161 44.0205ZM61.0044 49.1843V45.539L62.6802 46.8511L61.0044 49.1843ZM63.4786 45.9977L61.0041 44.0601V42.3941C61.7937 42.6124 62.611 42.7229 63.443 42.7229C64.3041 42.7229 65.1463 42.6023 65.9529 42.3736V44.0602L63.4786 45.9977ZM65.9529 49.1843L64.2772 46.851L65.9529 45.5389V49.1843Z" fill="black"/>
<path d="M52.1406 47.4591C52.4491 47.4591 52.6993 47.209 52.6993 46.9005V46.5167C52.6993 46.2082 52.4492 45.958 52.1406 45.958C51.8322 45.958 51.582 46.2081 51.582 46.5167V46.9005C51.582 47.209 51.8322 47.4591 52.1406 47.4591Z" fill="black"/>
<path d="M47.5196 47.4591C47.8281 47.4591 48.0783 47.209 48.0783 46.9005V46.5167C48.0783 46.2082 47.8282 45.958 47.5196 45.958C47.2111 45.958 46.9609 46.2081 46.9609 46.5167V46.9005C46.9609 47.209 47.211 47.4591 47.5196 47.4591Z" fill="black"/>
<path d="M52.426 49.5784L51.3758 49.0762C51.0869 49.6804 50.4679 50.0709 49.799 50.0709C49.1296 50.0709 48.5108 49.6806 48.2225 49.0766L47.1719 49.578C47.6523 50.5847 48.6835 51.2351 49.799 51.2351C50.9137 51.2351 51.9447 50.5848 52.426 49.5784Z" fill="black"/>
<path d="M42.7006 40.9779L44.7773 43.0547L45.6005 42.2315L43.5237 40.1548L42.7006 40.9779Z" fill="black"/>
<path d="M46.8502 40.9791L44.7734 38.9023L43.9503 39.7255L46.027 41.8023L46.8502 40.9791Z" fill="black"/>
<path d="M60.8011 61.0084C60.8011 57.9756 58.7354 55.3892 55.7776 54.7189L52.5473 53.9867V53.0832C55.1973 52.0217 57.1817 49.4951 57.5389 46.3944C57.6216 45.6772 57.3172 44.9595 56.7444 44.5213C56.1493 44.0659 55.1251 43.0871 54.9522 41.6487C54.8878 41.1121 54.5386 40.665 54.0413 40.4819L53.9863 40.4616C53.4099 40.2494 52.7706 40.4314 52.3953 40.9146C50.2558 43.6692 46.1513 44.4825 43.895 44.7221C43.3131 44.784 42.7823 45.0916 42.4387 45.566C42.0957 46.0397 41.969 46.6389 42.0915 47.2098C42.4752 48.9986 43.4383 50.624 44.8034 51.7864C45.4506 52.3373 46.177 52.7715 46.9491 53.0802V53.9867L43.7187 54.7189C40.761 55.3893 38.6953 57.9757 38.6953 61.0084V65.0007H60.8012V61.0084H60.8011ZM43.2298 46.9656C43.1756 46.7132 43.2296 46.4587 43.3817 46.2489C43.5342 46.0383 43.7603 45.9071 44.0181 45.8799C46.4583 45.6205 50.9109 44.7235 53.3147 41.6287C53.3599 41.5707 53.4285 41.5388 53.4997 41.5388C53.5278 41.5388 53.5562 41.5437 53.584 41.5539L53.6388 41.5742C53.724 41.6056 53.7845 41.6873 53.7964 41.7875V41.7876C54.0202 43.6501 55.2963 44.8791 56.0371 45.4459C56.2861 45.6365 56.4184 45.9488 56.3825 46.2611C55.9752 49.795 53.1231 52.46 49.7484 52.46C46.6041 52.4599 43.9237 50.2006 43.2298 46.9656ZM49.7483 53.624C50.3079 53.624 50.8545 53.56 51.3832 53.4422V54.2C50.9292 54.5936 50.357 54.8089 49.7483 54.8089C49.1395 54.8089 48.5672 54.5934 48.1131 54.1999V53.442C48.6481 53.5618 49.1962 53.624 49.7483 53.624ZM47.3585 55.0875C48.0229 55.6607 48.8593 55.9732 49.7483 55.9731C50.6372 55.9731 51.4735 55.6604 52.1377 55.0875L54.187 55.552V58.9056H45.471V55.5155L47.3585 55.0875ZM43.9761 55.8543L44.3069 55.7792V60.0696H55.3513V55.8158L55.5203 55.8541C55.9179 55.9441 56.295 56.0773 56.6491 56.2466V63.8364H42.9487V56.1993C43.2732 56.0527 43.6164 55.9357 43.9761 55.8543ZM39.8595 61.0084C39.8595 59.373 40.5926 57.8962 41.7846 56.9206V63.8365H39.8595V61.0084ZM59.6369 63.8365H57.8132V57.007C58.9449 57.9822 59.6369 59.4201 59.6369 61.0084V63.8365Z" fill="black"/>
<path d="M36.1235 39.2247C35.6779 39.2247 35.2659 38.9648 35.0741 38.5627L34.0234 39.0641C34.4074 39.8688 35.2318 40.3888 36.1235 40.3888C37.0146 40.3888 37.8388 39.869 38.2234 39.0646L37.1733 38.5625C36.9808 38.9647 36.5688 39.2247 36.1235 39.2247Z" fill="black"/>
<path d="M39.2759 50.7129H26.1562V51.877H39.2759V50.7129Z" fill="black"/>
<path d="M40.2962 33.4845C40.6511 33.4845 40.94 33.7733 40.94 34.1282H42.1041C42.1041 33.1314 41.293 32.3203 40.2962 32.3203C39.2993 32.3203 38.4883 33.1314 38.4883 34.1282H39.6524C39.6524 33.7733 39.9412 33.4845 40.2962 33.4845Z" fill="black"/>
<path d="M30.1406 34.1282H31.3048C31.3048 33.7733 31.5936 33.4845 31.9485 33.4845C32.3036 33.4845 32.5923 33.7733 32.5923 34.1282H33.7564C33.7564 33.1314 32.9454 32.3203 31.9485 32.3203C30.9517 32.3203 30.1406 33.1314 30.1406 34.1282Z" fill="black"/>
<path d="M63.4756 38.7011C64.3835 38.7011 65.2235 38.1715 65.6154 37.3518L64.5653 36.8496C64.3655 37.2672 63.9378 37.537 63.4757 37.537C63.0131 37.537 62.5856 37.2674 62.3866 36.8501L61.3359 37.3515C61.7269 38.1713 62.5669 38.7011 63.4756 38.7011Z" fill="black"/>
<path d="M67.6478 31.9874C68.0028 31.9874 68.2915 32.2761 68.2915 32.6312H69.4557C69.4557 31.6343 68.6446 30.8232 67.6478 30.8232C66.6509 30.8232 65.8398 31.6343 65.8398 32.6312H67.004C67.0039 32.2762 67.2927 31.9874 67.6478 31.9874Z" fill="black"/>
<path d="M59.3041 31.9874C59.6591 31.9874 59.9478 32.2761 59.9478 32.6312H61.1119C61.1119 31.6343 60.3009 30.8232 59.3041 30.8232C58.3072 30.8232 57.4961 31.6343 57.4961 32.6312H58.6602C58.6602 32.2762 58.9491 31.9874 59.3041 31.9874Z" fill="black"/>
<path d="M64.0587 50.5742H62.8945V62.521H64.0587V50.5742Z" fill="black"/>
</svg>
