<svg width="100" height="80" viewBox="0 0 100 80" fill="none" xmlns="http://www.w3.org/2000/svg">
<path d="M100 35.5556C100 60.1015 77.6142 80 50 80C22.3858 80 0 60.1015 0 35.5556C0 11.0096 22.3858 0 50 0C77.6142 0 100 11.0096 100 35.5556Z" fill="#FFE9BE"/>
<path fill-rule="evenodd" clip-rule="evenodd" d="M39.8318 62C38.2204 62 36.6091 62 34.9978 62C34.9978 61.2239 35.0076 60.4475 34.9918 59.6717C34.9866 59.4234 35.0565 59.3522 35.3056 59.3572C36.0961 59.373 36.8877 59.3451 37.6776 59.3715C38.0126 59.3828 38.186 59.2874 38.339 58.975C39.7765 56.038 41.2338 53.1109 42.686 50.1812C44.2679 46.9902 45.8459 43.7971 47.4405 40.6125C47.5833 40.327 47.5662 40.1906 47.2841 40.0371C46.948 39.8543 46.6561 39.5897 46.4481 39.272C46.2748 39.0076 46.0972 39.0033 45.8303 39.0756C44.1955 39.5179 42.5558 39.9426 40.9207 40.3844C40.6785 40.4499 40.5711 40.4427 40.5082 40.1526C40.3753 39.54 40.1522 38.9461 40.033 38.3314C39.9569 37.9379 39.7991 37.9402 39.4796 38.0297C38.0457 38.4316 36.6039 38.8048 35.1692 39.2037C34.8955 39.2799 34.7888 39.2272 34.7235 38.9418C34.5837 38.3301 34.3886 37.7313 34.245 37.1203C34.1792 36.8404 34.114 36.7259 33.7867 36.8351C33.2202 37.024 32.6364 37.1684 32.0517 37.294C31.6981 37.37 31.5911 37.4767 31.7039 37.8658C32.1147 39.282 32.469 40.7143 32.8699 42.1335C32.9621 42.4602 32.8679 42.5661 32.5672 42.6361C31.9559 42.7783 31.3448 42.9289 30.7471 43.1181C30.4508 43.212 30.3888 43.1262 30.3168 42.8556C29.2782 38.9466 28.2268 35.0408 27.1749 31.1353C27.1354 30.9887 27.1485 30.8146 27 30.7108C27 30.6229 27 30.535 27 30.4471C27.7342 30.2573 28.4725 30.0821 29.2004 29.8707C29.4811 29.7892 29.574 29.8517 29.6456 30.1295C30.0246 31.5998 30.431 33.0631 30.8119 34.533C30.882 34.8034 30.963 34.8813 31.2535 34.7908C31.8802 34.5956 32.5205 34.443 33.1581 34.2844C33.3846 34.228 33.4617 34.1441 33.3865 33.8934C33.1934 33.2504 33.0474 32.5933 32.8538 31.9505C32.78 31.7056 32.8204 31.6326 33.0727 31.5671C34.5422 31.1857 36.0029 30.7703 37.4737 30.3941C37.7893 30.3135 37.8746 30.2193 37.7742 29.8986C37.5867 29.3 37.4611 28.682 37.2724 28.0839C37.1862 27.8104 37.2387 27.712 37.5118 27.6398C42.8325 26.2326 48.1516 24.8187 53.4704 23.4037C57.3216 22.3791 61.1718 21.3487 65.0247 20.3285C65.2982 20.2561 65.3576 20.1594 65.2699 19.879C65.0784 19.2665 64.9551 18.6325 64.7619 18.0206C64.6671 17.7206 64.7565 17.6628 65.0276 17.588C65.7128 17.3988 66.4185 17.278 67.0781 17C67.1367 17 67.1953 17 67.2539 17C67.2709 17.0995 67.2798 17.2011 67.3057 17.2982C68.5813 22.0731 69.8518 26.8494 71.1407 31.6209C71.4156 32.6388 71.6319 33.6741 72 34.666C72 34.7246 72 34.7832 72 34.8418C71.2527 35.0393 70.5037 35.2307 69.759 35.4375C69.5291 35.5014 69.4224 35.4582 69.3632 35.2097C69.2142 34.5852 69.015 33.9722 68.8787 33.3452C68.8069 33.0153 68.6969 32.9775 68.3787 33.063C63.5154 34.3715 58.6479 35.6649 53.7798 36.9559C53.5412 37.0192 53.4293 37.1277 53.3917 37.3831C53.2231 38.5316 52.6334 39.4291 51.6722 40.0662C51.4294 40.2271 51.4205 40.3408 51.5391 40.5795C54.5995 46.7343 57.6549 52.8916 60.701 59.0533C60.8252 59.3045 60.9666 59.3755 61.2333 59.3695C62.0528 59.3515 62.8731 59.3726 63.6927 59.3572C63.9419 59.3525 64.0115 59.4244 64.0066 59.6722C63.9911 60.4479 64.0014 61.2241 64.0018 62C62.3903 62 60.779 62 59.1677 62C59.2134 61.8519 59.1028 61.7495 59.048 61.6385C56.373 56.2393 53.6938 50.8421 51.015 45.4447C50.9729 45.36 50.93 45.2756 50.8771 45.1702C50.8445 45.2259 50.8212 45.247 50.8212 45.2682C50.8191 49.8788 50.8199 54.4897 50.8135 59.1003C50.8132 59.3129 50.8743 59.3716 51.0836 59.3679C51.7713 59.3554 52.4597 59.3744 53.1472 59.3572C53.3977 59.351 53.465 59.4261 53.4601 59.6727C53.4446 60.4481 53.4547 61.2241 53.4548 61.9999C50.8181 61.9999 48.1814 61.9999 45.5446 61.9999C45.5446 61.2094 45.5514 60.4187 45.5397 59.6283C45.5366 59.4187 45.5948 59.3538 45.8076 59.3581C46.4515 59.3716 47.0971 59.339 47.7394 59.3723C48.1048 59.3913 48.1914 59.291 48.1902 58.924C48.1757 54.4883 48.1808 50.0525 48.1808 45.6167C48.1808 45.4789 48.1808 45.341 48.1808 45.0773C48.0823 45.2479 48.0458 45.3037 48.0164 45.363C45.3199 50.801 42.6237 56.2393 39.9307 61.6791C39.8822 61.7774 39.7801 61.8676 39.8318 62ZM52.8734 34.4846C52.9053 34.4754 52.9472 34.4628 52.9894 34.4515C56.2186 33.587 59.4467 32.7186 62.6788 31.8653C62.9603 31.791 62.9744 31.6846 62.9074 31.4386C62.2784 29.1288 61.6501 26.8184 61.0517 24.5005C60.9589 24.1412 60.8187 24.1637 60.5424 24.2381C57.7232 24.9958 54.9015 25.7435 52.0805 26.4943C48.3141 27.4967 44.548 28.5006 40.7807 29.4994C40.5192 29.5688 40.4132 29.6328 40.5052 29.9635C41.147 32.2699 41.76 34.5842 42.3677 36.8999C42.4393 37.173 42.5148 37.2532 42.807 37.1632C43.4623 36.9613 44.1237 36.763 44.7968 36.6407C45.334 36.5431 45.5672 36.3239 45.7063 35.7605C46.0769 34.2606 47.0885 33.2966 48.586 32.9377C50.1253 32.5688 51.4399 33.042 52.5075 34.2094C52.6076 34.3188 52.648 34.5183 52.8734 34.4846ZM68.0605 30.3165C68.0374 30.2203 68.0281 30.1775 68.0168 30.1352C67.3813 27.7668 66.743 25.3988 66.1143 23.0286C66.0583 22.8181 65.9821 22.7812 65.7783 22.8444C65.3325 22.9827 64.8777 23.0919 64.4268 23.2132C63.4987 23.463 63.4957 23.4638 63.7421 24.3889C64.3061 26.5046 64.8717 28.62 65.4428 30.7337C65.4855 30.8927 65.4633 31.1379 65.7816 31.044C66.4676 30.8418 67.1602 30.663 67.8503 30.4752C67.9606 30.4452 68.0988 30.4432 68.0605 30.3165ZM38.4356 32.861C37.66 33.0689 36.8995 33.2686 36.142 33.479C35.9756 33.5252 36.0439 33.6697 36.0714 33.7743C36.2487 34.4503 36.4339 35.1243 36.6115 35.8002C36.6576 35.9755 36.7045 36.0656 36.9314 35.9982C37.6151 35.7957 38.3084 35.6249 38.9991 35.4466C39.168 35.403 39.2371 35.3449 39.178 35.1442C38.9768 34.46 38.8005 33.7685 38.6139 33.0798C38.5859 32.9771 38.6059 32.8274 38.4356 32.861ZM49.4845 35.4577C48.772 35.4651 48.1797 36.0653 48.1813 36.7781C48.1829 37.491 48.7776 38.0883 49.4902 38.0929C50.2185 38.0976 50.8308 37.4777 50.8164 36.7501C50.8024 36.0375 50.1974 35.4503 49.4845 35.4577Z" fill="#231F20"/>
</svg>
