<svg width="100" height="80" viewBox="0 0 100 80" fill="none" xmlns="http://www.w3.org/2000/svg">
<path d="M100 35.5556C100 60.1015 77.6142 80 50 80C22.3858 80 0 60.1015 0 35.5556C0 11.0096 22.3858 0 50 0C77.6142 0 100 11.0096 100 35.5556Z" fill="#FFE9BE"/>
<path fill-rule="evenodd" clip-rule="evenodd" d="M45.6203 17C46.2708 17.1144 46.9223 17.2236 47.5717 17.3442C54.0242 18.5404 59.5531 23.9518 60.9135 30.3854C61.1047 31.2896 61.2453 32.1986 61.3015 33.1194C61.3164 33.3637 61.4092 33.459 61.6388 33.5364C67.2216 35.4167 70.6319 39.2585 71.7497 45.0323C72.3911 48.3451 71.7791 51.5225 70.1505 54.4855C69.9958 54.7667 69.9776 55.0039 70.0624 55.3036C70.6664 57.4393 71.255 59.5792 71.8477 61.718C71.8622 61.7704 71.8683 61.8251 71.8894 61.9373C70.716 61.6111 69.5845 61.2967 68.4529 60.9824C67.3702 60.6817 66.2861 60.3859 65.2057 60.0773C64.9542 60.0055 64.7506 60.0222 64.51 60.1563C56.9239 64.3847 47.3523 61.0601 44.0161 53.0426C43.8369 52.6121 43.6681 52.1737 43.5421 51.7257C43.4679 51.4617 43.3705 51.3484 43.0816 51.3292C40.4323 51.1535 37.9441 50.4272 35.6429 49.0906C35.4646 48.9869 35.3178 49.0263 35.1469 49.0735C32.6576 49.7614 30.1673 50.4458 27.6774 51.1317C27.6353 51.1433 27.5943 51.1756 27.5538 51.1739C27.4173 51.1685 27.2813 51.3036 27.1562 51.2125C26.9756 51.0812 27.1658 50.9445 27.1983 50.8254C27.8973 48.2616 28.6065 45.7003 29.322 43.141C29.3659 42.9842 29.3542 42.8644 29.2763 42.7291C28.0611 40.6231 27.3453 38.3554 27.0881 35.9399C27.0816 35.8789 27.0689 35.827 27 35.8109C27 34.7267 27 33.6426 27 32.5585C27.2171 32.1666 27.1705 31.7206 27.2432 31.3013C28.4941 24.0922 34.0893 18.4931 41.2905 17.2433C41.7091 17.1706 42.1561 17.2243 42.5462 17C43.5709 17 44.5956 17 45.6203 17ZM30.8458 47.5217C32.4146 47.089 33.9202 46.6869 35.4159 46.2508C35.7479 46.154 35.9878 46.209 36.2662 46.3865C39.5876 48.5043 43.1982 49.209 47.0535 48.4405C55.6914 46.7185 60.7929 37.694 57.8798 29.3513C55.3456 22.0937 47.5402 18.0785 40.1297 20.2204C34.0896 21.9662 29.7573 27.5564 29.638 33.7274C29.5789 36.7849 30.3542 39.5978 32.0169 42.1618C32.1745 42.4047 32.2072 42.6103 32.1262 42.8927C31.6923 44.4075 31.2834 45.9294 30.8458 47.5217ZM68.1271 58.1587C67.8133 57.0255 67.5336 55.9664 67.2215 54.9169C67.1211 54.5796 67.1547 54.3225 67.3537 54.025C68.5414 52.2479 69.1904 50.2796 69.3164 48.1489C69.6185 43.0433 66.5977 38.3053 61.8442 36.3988C61.2489 36.1602 61.2489 36.1602 61.1466 36.8034C59.9495 44.3369 54.0356 50.1534 46.5019 51.1949C46.1787 51.2397 46.1823 51.3565 46.2735 51.611C47.8606 56.0439 52.3416 59.2669 57.0514 59.3653C59.564 59.4178 61.8806 58.7827 63.9789 57.3961C64.2912 57.1897 64.5584 57.1513 64.9108 57.2569C65.9551 57.5699 67.0097 57.8483 68.1271 58.1587Z" fill="#231F20"/>
<path fill-rule="evenodd" clip-rule="evenodd" d="M42.8522 36.3095C42.5047 35.3207 43.1432 34.5805 44.007 33.8906C44.7252 33.3169 45.3881 32.6696 46.0438 32.0227C46.8332 31.2439 47.0196 30.0517 46.5539 29.0633C46.0811 28.06 45.0037 27.4477 43.9065 27.5585C42.824 27.6679 41.9111 28.4499 41.6271 29.5194C41.5716 29.7279 41.6067 30.054 41.4821 30.1286C41.2964 30.2397 41.006 30.182 40.76 30.1842C40.2481 30.1889 39.7353 30.1674 39.2246 30.1927C38.9319 30.2072 38.8976 30.1011 38.9134 29.8412C39.0696 27.2711 41.1527 25.1372 43.7296 24.9235C46.3325 24.7075 48.74 26.4501 49.2994 29.0131C49.7256 30.9654 49.1835 32.66 47.751 34.0518C47.1009 34.6836 46.4229 35.2872 45.7446 35.8889C45.551 36.0607 45.4747 36.2404 45.4849 36.4959C45.503 36.9488 45.4719 37.4042 45.4965 37.8566C45.5119 38.1392 45.4109 38.1983 45.1489 38.1908C44.5059 38.1722 43.8611 38.165 43.2188 38.1929C42.8911 38.2072 42.8302 38.0848 42.8462 37.794C42.8695 37.3708 42.8522 36.9453 42.8522 36.3095Z" fill="#231F20"/>
<path fill-rule="evenodd" clip-rule="evenodd" d="M42.8803 42.1354C42.8803 41.7138 42.715 41.1477 42.9236 40.9087C43.1655 40.6316 43.7438 40.8367 44.1755 40.8241C44.5976 40.8119 45.1677 40.6702 45.4049 40.8837C45.6787 41.1301 45.4775 41.7098 45.4875 42.1442C45.4972 42.5653 45.633 43.1303 45.4195 43.3711C45.1743 43.6477 44.5983 43.4429 44.1667 43.4555C43.7446 43.4677 43.1762 43.6091 42.9368 43.396C42.6594 43.149 42.8939 42.5688 42.8803 42.1354Z" fill="#231F20"/>
</svg>
