<svg width="100" height="80" viewBox="0 0 100 80" fill="none" xmlns="http://www.w3.org/2000/svg">
<path d="M100 35.5556C100 60.1015 77.6142 80 50 80C22.3858 80 0 60.1015 0 35.5556C0 11.0096 22.3858 0 50 0C77.6142 0 100 11.0096 100 35.5556Z" fill="#FFE9BE"/>
<mask id="path-2-inside-1_118_556" fill="white">
<path fill-rule="evenodd" clip-rule="evenodd" d="M53.2 16C54.1592 16.3413 54.7919 16.9767 55.003 17.9952C55.044 18.1933 55.1337 18.2437 55.3639 18.2039C57.0895 17.9055 58.6654 18.6592 59.5673 20.1849C60.4573 21.6903 60.3418 23.4558 59.2463 24.8203C58.6013 25.6237 57.9447 26.4182 57.2732 27.1994C57.0501 27.4589 56.9264 27.7357 56.8716 28.0664C56.6085 29.6558 55.9426 31.0637 54.919 32.3021C54.3621 32.9758 53.8046 33.6506 53.2148 34.2952C52.9668 34.5662 52.9036 34.7974 53.0936 35.1094C53.1653 35.2274 53.2134 35.3646 53.2479 35.4992C53.3207 35.7824 53.4471 35.8156 53.7153 35.6924C54.7042 35.2381 55.7117 34.824 56.7013 34.3711C57.8052 33.8661 59.2779 34.5179 59.7613 35.7748C60.3537 37.3144 60.9199 38.864 61.4954 40.4101C62.3641 42.7439 63.232 45.0779 64.0984 47.4125C64.62 48.8178 64.1901 49.9325 62.8594 50.6098C61.8884 51.1039 60.9179 51.5999 59.9339 52.0672C59.6476 52.2031 59.6308 52.3277 59.7488 52.5952C60.1381 53.4779 60.5105 54.3686 60.8673 55.2651C60.9637 55.5074 61.0852 55.5916 61.3452 55.5846C62.0475 55.5659 62.7507 55.5701 63.4536 55.5801C64.7003 55.5979 65.3823 56.0835 65.8217 57.2484C65.9811 57.6707 66.1132 58.106 66.3068 58.5116C66.4752 58.8644 66.3525 58.9792 66.028 59.1051C62.3425 60.5351 58.6615 61.9767 54.9828 63.4236C54.5403 63.5976 54.0714 63.7137 53.6684 63.9823C53.6059 63.9823 53.5434 63.9823 53.481 63.9823C53.3645 63.3834 53.0712 62.8494 52.8523 62.2885C52.3443 60.9871 52.5075 60.2298 53.5233 59.2628C54.0096 58.7998 54.4866 58.327 54.9782 57.8698C55.1223 57.7357 55.1566 57.6276 55.0897 57.4298C54.667 56.1762 54.2594 54.9175 53.8583 53.657C53.7963 53.4621 53.6977 53.3952 53.4993 53.3727C52.3524 53.2421 51.2067 53.0996 50.0618 52.9524C49.8753 52.9283 49.7295 53.0075 49.573 53.0724C42.4012 56.0461 35.228 59.0161 28.062 62.0034C27.6536 62.1736 27.4967 62.1223 27.3315 61.7085C26.9622 60.7838 26.9383 60.7951 27.8363 60.4235C32.0776 58.6685 36.3163 56.9073 40.5631 55.1657C40.9515 55.0064 40.9978 54.8636 40.8613 54.4685C40.0529 52.1295 39.2756 49.7794 38.5087 47.4262C38.4001 47.093 38.3041 47.0541 37.9792 47.1854C34.6186 48.5448 31.2477 49.8788 27.8865 51.2364C27.558 51.369 27.4078 51.3353 27.3339 50.9848C27.2554 50.6129 26.8672 50.2164 27.047 49.9168C27.2017 49.659 27.6929 49.6002 28.0381 49.4602C33.8767 47.0896 39.7149 44.718 45.5573 42.3566C45.8189 42.2509 45.9479 42.1248 45.9973 41.8372C46.1241 41.1005 46.2973 40.3719 46.4467 39.639C46.5694 39.0369 46.8372 38.5179 47.3399 38.1529C47.4996 38.0369 47.5159 37.9455 47.463 37.7703C47.2785 37.1586 47.0425 36.7465 46.2453 36.7355C45.0832 36.7195 43.9114 36.611 42.7761 36.281C41.8113 36.0004 40.8828 35.6315 40.0654 35.0551C39.5765 34.7104 39.0596 34.6157 38.5 34.5555C37.4614 34.4438 36.4105 34.4114 35.3887 34.1838C33.6196 33.7898 32.3059 32.3764 32.037 30.631C31.7735 28.9212 32.6146 27.1787 34.1747 26.2852C34.4525 26.1262 34.4762 25.9956 34.3517 25.7471C34.2684 25.5809 34.2096 25.4018 34.1486 25.2254C33.6258 23.7151 34.1887 22.5383 35.695 21.9949C38.1689 21.1027 40.6437 20.2133 43.1177 19.3213C45.987 18.2867 48.8562 17.2518 51.7236 16.2121C51.9045 16.1465 52.1125 16.1447 52.2626 16.0001C52.5752 16 52.8876 16 53.2 16ZM55.5954 25.9299C55.57 25.3619 55.5436 24.7379 55.3827 24.1297C54.869 22.1869 54.1417 20.3128 53.5325 18.4006C53.2977 17.6632 52.9849 17.5196 52.2616 17.7797C46.9455 19.6911 41.63 21.6035 36.3146 23.5171C35.6044 23.7728 35.4489 24.1118 35.7228 24.8113C36.3639 26.4486 36.9903 28.0921 37.6571 29.7191C38.8856 32.7165 41.1204 34.4986 44.3047 35.0409C45.4404 35.2343 46.5991 35.3054 47.7506 35.3838C48.1419 35.4103 48.3297 35.5405 48.4415 35.9065C48.5681 36.3217 48.7635 36.7156 48.9167 37.1234C48.9887 37.3151 49.054 37.3894 49.2821 37.2877C50.0352 36.9522 50.7978 36.6371 51.5652 36.3355C51.8107 36.239 51.8053 36.1274 51.7159 35.918C51.5449 35.5175 51.4177 35.0983 51.2454 34.6987C51.1397 34.4537 51.1678 34.286 51.3509 34.0803C52.0878 33.2526 52.8067 32.4085 53.5248 31.5641C54.8912 29.9569 55.5741 28.0931 55.5954 25.9299ZM55.5568 51.9914C55.8306 52.0249 56.0736 51.9464 56.3189 51.8243C58.103 50.9364 59.8921 50.0585 61.6784 49.1754C62.8636 48.5893 62.8629 48.5645 62.3993 47.3321C62.2884 47.0374 62.1924 46.95 61.8723 47.0733C61.1612 47.3471 60.4339 47.5794 59.7083 47.8136C59.3428 47.9317 58.9018 48.272 58.6292 48.0931C58.3743 47.9257 58.3698 47.3952 58.2245 47.037C58.1215 46.7835 58.1779 46.6929 58.4408 46.6127C59.4233 46.3123 60.3952 45.9777 61.375 45.6681C61.6121 45.5931 61.7051 45.5108 61.5962 45.2441C61.3377 44.6104 61.1054 43.9655 60.8741 43.321C60.8022 43.1204 60.7298 43.0697 60.5055 43.1504C59.7294 43.4296 58.9429 43.6804 58.157 43.9313C57.7918 44.0479 57.3473 44.3834 57.0828 44.2176C56.8269 44.0574 56.825 43.5196 56.6665 43.168C56.5214 42.8459 56.6837 42.7842 56.9368 42.701C57.9276 42.3755 58.908 42.0179 59.9021 41.7033C60.1951 41.6106 60.2096 41.4995 60.1073 41.2484C59.8666 40.6577 59.6365 40.0616 59.4327 39.4574C59.3378 39.1764 59.2421 39.0997 58.9376 39.2111C58.1635 39.4941 57.3733 39.7335 56.5876 39.9841C56.2324 40.0975 55.7894 40.3742 55.5364 40.2559C55.2374 40.116 55.2742 39.5669 55.123 39.2116C55.0129 38.9526 55.0578 38.8388 55.3489 38.75C56.3909 38.432 57.4177 38.064 58.4611 37.7509C58.7933 37.6512 58.824 37.5302 58.6913 37.2439C58.5279 36.8916 58.4087 36.5193 58.2659 36.1573C58.0345 35.5702 57.6695 35.4017 57.0826 35.6519C54.2336 36.8661 51.3895 38.0914 48.5411 39.3067C48.2916 39.4131 48.1004 39.5746 48.047 39.8279C47.8477 40.7733 47.6701 41.7232 47.4903 42.6727C47.4766 42.7445 47.4967 42.8289 47.5207 42.9009C48.4368 45.6468 49.3568 48.3913 50.2691 51.1384C50.3253 51.3074 50.3928 51.3983 50.5816 51.4194C52.2407 51.6051 53.8986 51.7996 55.5568 51.9914ZM42.5851 54.299C42.6498 54.2731 42.6935 54.2563 42.7366 54.2383C44.6718 53.4261 46.6059 52.6111 48.5439 51.8054C48.7427 51.7228 48.7811 51.6422 48.7098 51.4321C47.8842 49.0026 47.0666 46.5704 46.2586 44.135C46.1702 43.8682 46.0618 43.866 45.8327 43.9621C45.0157 44.3049 44.1939 44.6372 43.3649 44.9499C43.104 45.0483 43.0506 45.1397 43.1465 45.4183C43.6778 46.9625 44.1835 48.5156 44.6942 50.0668C44.8096 50.4172 45.0802 50.843 44.9711 51.1062C44.8535 51.39 44.3078 51.3445 43.9737 51.5062C43.6454 51.6652 43.5405 51.5205 43.444 51.2138C43.0195 49.8638 42.5726 48.5206 42.1262 47.1777C41.9659 46.6954 41.7839 46.2203 41.6118 45.7419C41.1173 45.9269 40.623 46.1118 40.1286 46.2969C40.1141 46.3025 40.1017 46.3147 40.087 46.3179C39.8831 46.3628 39.8665 46.4742 39.929 46.6601C40.7618 49.1357 41.5875 51.6135 42.4153 54.0908C42.4475 54.187 42.4465 54.3165 42.5851 54.299ZM61.8174 57.0553C61.3093 57.1193 60.6475 56.9438 60.0063 57.1542C59.0898 57.4547 58.1752 57.7606 57.2568 58.0555C57.0903 58.1091 56.9378 58.1671 56.8081 58.2903C56.0155 59.0429 55.2148 59.7868 54.4267 60.544C54.1152 60.8434 54.0568 61.2063 54.2197 61.6145C54.324 61.8762 54.4305 61.9572 54.7329 61.8351C57.7769 60.6061 60.8291 59.3971 63.8782 58.1806C64.3869 57.9776 64.4285 57.7817 64.0714 57.348C63.8869 57.1238 63.6407 57.0546 63.3637 57.0551C62.8955 57.0559 62.4269 57.0553 61.8174 57.0553ZM37.7253 32.9524C37.5252 32.6602 37.3499 32.4087 37.1794 32.154C36.3141 30.8607 35.8386 29.385 35.2374 27.9691C35.1256 27.7057 35.0441 27.6796 34.8124 27.8306C33.9042 28.4234 33.4497 29.5444 33.6913 30.6474C33.9472 31.815 34.7828 32.6284 35.8954 32.769C36.4829 32.8433 37.074 32.888 37.7253 32.9524ZM55.6611 19.765C56.169 21.4772 56.9026 23.1199 57.1241 25.012C57.5123 24.5219 57.8311 24.1404 58.1266 23.7416C58.7633 22.8825 58.8061 21.7973 58.2547 20.8911C57.7122 19.9992 56.775 19.5862 55.6611 19.765ZM57.9538 52.8307C57.8784 52.8651 57.8092 52.9007 57.7368 52.9286C57.0508 53.1951 56.4555 53.7126 55.6555 53.6676C55.4593 53.6566 55.5405 53.8112 55.5701 53.899C55.8528 54.737 56.1424 55.5729 56.4274 56.4103C56.4771 56.5561 56.5449 56.5894 56.7026 56.534C57.4787 56.2616 58.2578 55.9975 59.0415 55.7479C59.2427 55.6838 59.2777 55.6098 59.1946 55.4218C58.8429 54.6273 58.5036 53.8273 58.1547 53.0314C58.1164 52.9441 58.1084 52.8041 57.9538 52.8307Z"/>
<path fill-rule="evenodd" clip-rule="evenodd" d="M36.5929 40.485C36.5929 41.1974 36.5929 41.1974 35.8786 41.3337C34.052 41.6819 32.7821 43.1581 32.6959 45.0367C32.6866 45.2393 32.6786 45.4435 32.693 45.6453C32.7087 45.8652 32.6366 45.9523 32.4061 45.9417C32.0322 45.9245 31.5963 46.0544 31.2979 45.9028C30.9383 45.7199 31.1692 45.2327 31.1332 44.8843C30.9235 42.8595 29.6017 41.5223 27.5254 41.301C27.2994 41.277 27.2189 41.2041 27.2459 40.9903C27.2517 40.9442 27.2465 40.8968 27.2466 40.85C27.2483 40.5065 27.1395 40.1049 27.2814 39.8354C27.4359 39.542 27.894 39.689 28.2136 39.6096C29.9531 39.1772 31.101 37.6766 31.1459 35.7413C31.1621 35.047 31.1621 35.047 31.8303 35.047C32.6638 35.047 32.6638 35.047 32.692 35.8894C32.7589 37.8825 34.1332 39.4449 36.0933 39.6735C36.5307 39.7246 36.6537 39.8582 36.5944 40.2513C36.5831 40.3274 36.5929 40.4069 36.5929 40.485ZM31.9172 38.6321C31.4228 39.4337 30.8066 40.0166 30.0651 40.5041C30.8316 40.9684 31.4176 41.5768 31.9198 42.3507C32.4054 41.5818 32.9997 40.9789 33.7766 40.4998C33.0211 40.0158 32.4116 39.4289 31.9172 38.6321Z"/>
<path fill-rule="evenodd" clip-rule="evenodd" d="M73.9124 40.5071C73.9124 40.5695 73.9053 40.6328 73.9136 40.6941C73.9693 41.1072 73.8845 41.286 73.3757 41.3312C71.4676 41.5001 70.0888 43.1347 70.0288 45.1921C70.0071 45.9377 70.0071 45.9377 69.2553 45.9377C68.4841 45.9377 68.4841 45.9377 68.4709 45.1669C68.4349 43.0745 66.9668 41.4722 64.9084 41.3038C64.6422 41.282 64.5405 41.2014 64.575 40.9448C64.5792 40.9142 64.5754 40.8825 64.5756 40.8513C64.5776 40.5084 64.4696 40.107 64.6117 39.8377C64.767 39.5435 65.2255 39.6874 65.5457 39.608C67.2481 39.1861 68.4376 37.6652 68.4708 35.8359C68.485 35.0467 68.485 35.0467 69.2393 35.0467C70.0028 35.0467 70.0027 35.0467 70.029 35.8252C70.1022 37.9835 71.5057 39.5015 73.6319 39.6988C73.8538 39.7194 73.9389 39.7675 73.9157 39.9928C73.8983 40.1624 73.9124 40.3356 73.9124 40.5071ZM71.1021 40.4968C70.3404 40.0111 69.733 39.4205 69.2465 38.6317C68.7694 39.4079 68.1586 40.0132 67.3876 40.5004C68.1783 40.9803 68.7706 41.5971 69.2506 42.3606C69.5103 41.9358 69.7726 41.6098 70.0693 41.3109C70.3661 41.0119 70.7005 40.7598 71.1021 40.4968Z"/>
<path fill-rule="evenodd" clip-rule="evenodd" d="M70.8095 24.9241C70.8095 25.6463 70.8095 25.6463 70.1087 25.7797C68.1888 26.1451 66.9433 27.671 66.9074 29.7013C66.8952 30.3925 66.8952 30.3925 66.222 30.3926C65.3973 30.3926 65.3973 30.3926 65.3619 29.5473C65.2743 27.4566 63.8407 25.9286 61.7778 25.7469C61.5442 25.7264 61.4436 25.6747 61.4568 25.4239C61.4763 25.0506 61.3542 24.6264 61.4939 24.314C61.6546 23.9548 62.1497 24.1371 62.4903 24.0437C64.126 23.5955 65.254 22.1887 65.3572 20.4131C65.3672 20.2419 65.3822 20.0676 65.3614 19.899C65.3213 19.5745 65.4364 19.4523 65.7697 19.4843C66.1239 19.5185 66.5636 19.386 66.816 19.5531C67.0685 19.7202 66.8876 20.1882 66.9195 20.523C67.1121 22.5413 68.5077 23.9745 70.4922 24.1412C70.77 24.1646 70.8373 24.2579 70.812 24.5031C70.7978 24.6421 70.8095 24.7836 70.8095 24.9241ZM66.1399 26.8018C66.6272 26.0084 67.2402 25.4306 67.9967 24.9322C67.2004 24.4587 66.627 23.8373 66.1287 23.0919C65.6411 23.8752 65.0326 24.4605 64.2781 24.9505C65.0607 25.4251 65.6389 26.0269 66.1399 26.8018Z"/>
<path fill-rule="evenodd" clip-rule="evenodd" d="M53.1081 25.8424C53.0911 27.7667 52.5706 29.3252 51.397 30.6479C51.2111 30.8574 51.0865 30.95 50.8675 30.6818C50.6418 30.4053 50.2476 30.2059 50.1498 29.9014C50.0395 29.5578 50.5039 29.3491 50.6866 29.0588C51.6915 27.4617 51.6881 25.759 51.264 24.0067C51.006 22.9413 50.6056 21.9292 50.0365 20.9914C49.903 20.7713 49.9421 20.677 50.1498 20.5686C50.3422 20.4681 50.517 20.3336 50.7002 20.2152C51.2287 19.8731 51.2341 19.8705 51.527 20.4079C52.48 22.1574 53.062 24.0124 53.1081 25.8424Z"/>
</mask>
<path fill-rule="evenodd" clip-rule="evenodd" d="M53.2 16C54.1592 16.3413 54.7919 16.9767 55.003 17.9952C55.044 18.1933 55.1337 18.2437 55.3639 18.2039C57.0895 17.9055 58.6654 18.6592 59.5673 20.1849C60.4573 21.6903 60.3418 23.4558 59.2463 24.8203C58.6013 25.6237 57.9447 26.4182 57.2732 27.1994C57.0501 27.4589 56.9264 27.7357 56.8716 28.0664C56.6085 29.6558 55.9426 31.0637 54.919 32.3021C54.3621 32.9758 53.8046 33.6506 53.2148 34.2952C52.9668 34.5662 52.9036 34.7974 53.0936 35.1094C53.1653 35.2274 53.2134 35.3646 53.2479 35.4992C53.3207 35.7824 53.4471 35.8156 53.7153 35.6924C54.7042 35.2381 55.7117 34.824 56.7013 34.3711C57.8052 33.8661 59.2779 34.5179 59.7613 35.7748C60.3537 37.3144 60.9199 38.864 61.4954 40.4101C62.3641 42.7439 63.232 45.0779 64.0984 47.4125C64.62 48.8178 64.1901 49.9325 62.8594 50.6098C61.8884 51.1039 60.9179 51.5999 59.9339 52.0672C59.6476 52.2031 59.6308 52.3277 59.7488 52.5952C60.1381 53.4779 60.5105 54.3686 60.8673 55.2651C60.9637 55.5074 61.0852 55.5916 61.3452 55.5846C62.0475 55.5659 62.7507 55.5701 63.4536 55.5801C64.7003 55.5979 65.3823 56.0835 65.8217 57.2484C65.9811 57.6707 66.1132 58.106 66.3068 58.5116C66.4752 58.8644 66.3525 58.9792 66.028 59.1051C62.3425 60.5351 58.6615 61.9767 54.9828 63.4236C54.5403 63.5976 54.0714 63.7137 53.6684 63.9823C53.6059 63.9823 53.5434 63.9823 53.481 63.9823C53.3645 63.3834 53.0712 62.8494 52.8523 62.2885C52.3443 60.9871 52.5075 60.2298 53.5233 59.2628C54.0096 58.7998 54.4866 58.327 54.9782 57.8698C55.1223 57.7357 55.1566 57.6276 55.0897 57.4298C54.667 56.1762 54.2594 54.9175 53.8583 53.657C53.7963 53.4621 53.6977 53.3952 53.4993 53.3727C52.3524 53.2421 51.2067 53.0996 50.0618 52.9524C49.8753 52.9283 49.7295 53.0075 49.573 53.0724C42.4012 56.0461 35.228 59.0161 28.062 62.0034C27.6536 62.1736 27.4967 62.1223 27.3315 61.7085C26.9622 60.7838 26.9383 60.7951 27.8363 60.4235C32.0776 58.6685 36.3163 56.9073 40.5631 55.1657C40.9515 55.0064 40.9978 54.8636 40.8613 54.4685C40.0529 52.1295 39.2756 49.7794 38.5087 47.4262C38.4001 47.093 38.3041 47.0541 37.9792 47.1854C34.6186 48.5448 31.2477 49.8788 27.8865 51.2364C27.558 51.369 27.4078 51.3353 27.3339 50.9848C27.2554 50.6129 26.8672 50.2164 27.047 49.9168C27.2017 49.659 27.6929 49.6002 28.0381 49.4602C33.8767 47.0896 39.7149 44.718 45.5573 42.3566C45.8189 42.2509 45.9479 42.1248 45.9973 41.8372C46.1241 41.1005 46.2973 40.3719 46.4467 39.639C46.5694 39.0369 46.8372 38.5179 47.3399 38.1529C47.4996 38.0369 47.5159 37.9455 47.463 37.7703C47.2785 37.1586 47.0425 36.7465 46.2453 36.7355C45.0832 36.7195 43.9114 36.611 42.7761 36.281C41.8113 36.0004 40.8828 35.6315 40.0654 35.0551C39.5765 34.7104 39.0596 34.6157 38.5 34.5555C37.4614 34.4438 36.4105 34.4114 35.3887 34.1838C33.6196 33.7898 32.3059 32.3764 32.037 30.631C31.7735 28.9212 32.6146 27.1787 34.1747 26.2852C34.4525 26.1262 34.4762 25.9956 34.3517 25.7471C34.2684 25.5809 34.2096 25.4018 34.1486 25.2254C33.6258 23.7151 34.1887 22.5383 35.695 21.9949C38.1689 21.1027 40.6437 20.2133 43.1177 19.3213C45.987 18.2867 48.8562 17.2518 51.7236 16.2121C51.9045 16.1465 52.1125 16.1447 52.2626 16.0001C52.5752 16 52.8876 16 53.2 16ZM55.5954 25.9299C55.57 25.3619 55.5436 24.7379 55.3827 24.1297C54.869 22.1869 54.1417 20.3128 53.5325 18.4006C53.2977 17.6632 52.9849 17.5196 52.2616 17.7797C46.9455 19.6911 41.63 21.6035 36.3146 23.5171C35.6044 23.7728 35.4489 24.1118 35.7228 24.8113C36.3639 26.4486 36.9903 28.0921 37.6571 29.7191C38.8856 32.7165 41.1204 34.4986 44.3047 35.0409C45.4404 35.2343 46.5991 35.3054 47.7506 35.3838C48.1419 35.4103 48.3297 35.5405 48.4415 35.9065C48.5681 36.3217 48.7635 36.7156 48.9167 37.1234C48.9887 37.3151 49.054 37.3894 49.2821 37.2877C50.0352 36.9522 50.7978 36.6371 51.5652 36.3355C51.8107 36.239 51.8053 36.1274 51.7159 35.918C51.5449 35.5175 51.4177 35.0983 51.2454 34.6987C51.1397 34.4537 51.1678 34.286 51.3509 34.0803C52.0878 33.2526 52.8067 32.4085 53.5248 31.5641C54.8912 29.9569 55.5741 28.0931 55.5954 25.9299ZM55.5568 51.9914C55.8306 52.0249 56.0736 51.9464 56.3189 51.8243C58.103 50.9364 59.8921 50.0585 61.6784 49.1754C62.8636 48.5893 62.8629 48.5645 62.3993 47.3321C62.2884 47.0374 62.1924 46.95 61.8723 47.0733C61.1612 47.3471 60.4339 47.5794 59.7083 47.8136C59.3428 47.9317 58.9018 48.272 58.6292 48.0931C58.3743 47.9257 58.3698 47.3952 58.2245 47.037C58.1215 46.7835 58.1779 46.6929 58.4408 46.6127C59.4233 46.3123 60.3952 45.9777 61.375 45.6681C61.6121 45.5931 61.7051 45.5108 61.5962 45.2441C61.3377 44.6104 61.1054 43.9655 60.8741 43.321C60.8022 43.1204 60.7298 43.0697 60.5055 43.1504C59.7294 43.4296 58.9429 43.6804 58.157 43.9313C57.7918 44.0479 57.3473 44.3834 57.0828 44.2176C56.8269 44.0574 56.825 43.5196 56.6665 43.168C56.5214 42.8459 56.6837 42.7842 56.9368 42.701C57.9276 42.3755 58.908 42.0179 59.9021 41.7033C60.1951 41.6106 60.2096 41.4995 60.1073 41.2484C59.8666 40.6577 59.6365 40.0616 59.4327 39.4574C59.3378 39.1764 59.2421 39.0997 58.9376 39.2111C58.1635 39.4941 57.3733 39.7335 56.5876 39.9841C56.2324 40.0975 55.7894 40.3742 55.5364 40.2559C55.2374 40.116 55.2742 39.5669 55.123 39.2116C55.0129 38.9526 55.0578 38.8388 55.3489 38.75C56.3909 38.432 57.4177 38.064 58.4611 37.7509C58.7933 37.6512 58.824 37.5302 58.6913 37.2439C58.5279 36.8916 58.4087 36.5193 58.2659 36.1573C58.0345 35.5702 57.6695 35.4017 57.0826 35.6519C54.2336 36.8661 51.3895 38.0914 48.5411 39.3067C48.2916 39.4131 48.1004 39.5746 48.047 39.8279C47.8477 40.7733 47.6701 41.7232 47.4903 42.6727C47.4766 42.7445 47.4967 42.8289 47.5207 42.9009C48.4368 45.6468 49.3568 48.3913 50.2691 51.1384C50.3253 51.3074 50.3928 51.3983 50.5816 51.4194C52.2407 51.6051 53.8986 51.7996 55.5568 51.9914ZM42.5851 54.299C42.6498 54.2731 42.6935 54.2563 42.7366 54.2383C44.6718 53.4261 46.6059 52.6111 48.5439 51.8054C48.7427 51.7228 48.7811 51.6422 48.7098 51.4321C47.8842 49.0026 47.0666 46.5704 46.2586 44.135C46.1702 43.8682 46.0618 43.866 45.8327 43.9621C45.0157 44.3049 44.1939 44.6372 43.3649 44.9499C43.104 45.0483 43.0506 45.1397 43.1465 45.4183C43.6778 46.9625 44.1835 48.5156 44.6942 50.0668C44.8096 50.4172 45.0802 50.843 44.9711 51.1062C44.8535 51.39 44.3078 51.3445 43.9737 51.5062C43.6454 51.6652 43.5405 51.5205 43.444 51.2138C43.0195 49.8638 42.5726 48.5206 42.1262 47.1777C41.9659 46.6954 41.7839 46.2203 41.6118 45.7419C41.1173 45.9269 40.623 46.1118 40.1286 46.2969C40.1141 46.3025 40.1017 46.3147 40.087 46.3179C39.8831 46.3628 39.8665 46.4742 39.929 46.6601C40.7618 49.1357 41.5875 51.6135 42.4153 54.0908C42.4475 54.187 42.4465 54.3165 42.5851 54.299ZM61.8174 57.0553C61.3093 57.1193 60.6475 56.9438 60.0063 57.1542C59.0898 57.4547 58.1752 57.7606 57.2568 58.0555C57.0903 58.1091 56.9378 58.1671 56.8081 58.2903C56.0155 59.0429 55.2148 59.7868 54.4267 60.544C54.1152 60.8434 54.0568 61.2063 54.2197 61.6145C54.324 61.8762 54.4305 61.9572 54.7329 61.8351C57.7769 60.6061 60.8291 59.3971 63.8782 58.1806C64.3869 57.9776 64.4285 57.7817 64.0714 57.348C63.8869 57.1238 63.6407 57.0546 63.3637 57.0551C62.8955 57.0559 62.4269 57.0553 61.8174 57.0553ZM37.7253 32.9524C37.5252 32.6602 37.3499 32.4087 37.1794 32.154C36.3141 30.8607 35.8386 29.385 35.2374 27.9691C35.1256 27.7057 35.0441 27.6796 34.8124 27.8306C33.9042 28.4234 33.4497 29.5444 33.6913 30.6474C33.9472 31.815 34.7828 32.6284 35.8954 32.769C36.4829 32.8433 37.074 32.888 37.7253 32.9524ZM55.6611 19.765C56.169 21.4772 56.9026 23.1199 57.1241 25.012C57.5123 24.5219 57.8311 24.1404 58.1266 23.7416C58.7633 22.8825 58.8061 21.7973 58.2547 20.8911C57.7122 19.9992 56.775 19.5862 55.6611 19.765ZM57.9538 52.8307C57.8784 52.8651 57.8092 52.9007 57.7368 52.9286C57.0508 53.1951 56.4555 53.7126 55.6555 53.6676C55.4593 53.6566 55.5405 53.8112 55.5701 53.899C55.8528 54.737 56.1424 55.5729 56.4274 56.4103C56.4771 56.5561 56.5449 56.5894 56.7026 56.534C57.4787 56.2616 58.2578 55.9975 59.0415 55.7479C59.2427 55.6838 59.2777 55.6098 59.1946 55.4218C58.8429 54.6273 58.5036 53.8273 58.1547 53.0314C58.1164 52.9441 58.1084 52.8041 57.9538 52.8307Z" fill="#231F20"/>
<path fill-rule="evenodd" clip-rule="evenodd" d="M36.5929 40.485C36.5929 41.1974 36.5929 41.1974 35.8786 41.3337C34.052 41.6819 32.7821 43.1581 32.6959 45.0367C32.6866 45.2393 32.6786 45.4435 32.693 45.6453C32.7087 45.8652 32.6366 45.9523 32.4061 45.9417C32.0322 45.9245 31.5963 46.0544 31.2979 45.9028C30.9383 45.7199 31.1692 45.2327 31.1332 44.8843C30.9235 42.8595 29.6017 41.5223 27.5254 41.301C27.2994 41.277 27.2189 41.2041 27.2459 40.9903C27.2517 40.9442 27.2465 40.8968 27.2466 40.85C27.2483 40.5065 27.1395 40.1049 27.2814 39.8354C27.4359 39.542 27.894 39.689 28.2136 39.6096C29.9531 39.1772 31.101 37.6766 31.1459 35.7413C31.1621 35.047 31.1621 35.047 31.8303 35.047C32.6638 35.047 32.6638 35.047 32.692 35.8894C32.7589 37.8825 34.1332 39.4449 36.0933 39.6735C36.5307 39.7246 36.6537 39.8582 36.5944 40.2513C36.5831 40.3274 36.5929 40.4069 36.5929 40.485ZM31.9172 38.6321C31.4228 39.4337 30.8066 40.0166 30.0651 40.5041C30.8316 40.9684 31.4176 41.5768 31.9198 42.3507C32.4054 41.5818 32.9997 40.9789 33.7766 40.4998C33.0211 40.0158 32.4116 39.4289 31.9172 38.6321Z" fill="#231F20"/>
<path fill-rule="evenodd" clip-rule="evenodd" d="M73.9124 40.5071C73.9124 40.5695 73.9053 40.6328 73.9136 40.6941C73.9693 41.1072 73.8845 41.286 73.3757 41.3312C71.4676 41.5001 70.0888 43.1347 70.0288 45.1921C70.0071 45.9377 70.0071 45.9377 69.2553 45.9377C68.4841 45.9377 68.4841 45.9377 68.4709 45.1669C68.4349 43.0745 66.9668 41.4722 64.9084 41.3038C64.6422 41.282 64.5405 41.2014 64.575 40.9448C64.5792 40.9142 64.5754 40.8825 64.5756 40.8513C64.5776 40.5084 64.4696 40.107 64.6117 39.8377C64.767 39.5435 65.2255 39.6874 65.5457 39.608C67.2481 39.1861 68.4376 37.6652 68.4708 35.8359C68.485 35.0467 68.485 35.0467 69.2393 35.0467C70.0028 35.0467 70.0027 35.0467 70.029 35.8252C70.1022 37.9835 71.5057 39.5015 73.6319 39.6988C73.8538 39.7194 73.9389 39.7675 73.9157 39.9928C73.8983 40.1624 73.9124 40.3356 73.9124 40.5071ZM71.1021 40.4968C70.3404 40.0111 69.733 39.4205 69.2465 38.6317C68.7694 39.4079 68.1586 40.0132 67.3876 40.5004C68.1783 40.9803 68.7706 41.5971 69.2506 42.3606C69.5103 41.9358 69.7726 41.6098 70.0693 41.3109C70.3661 41.0119 70.7005 40.7598 71.1021 40.4968Z" fill="#231F20"/>
<path fill-rule="evenodd" clip-rule="evenodd" d="M70.8095 24.9241C70.8095 25.6463 70.8095 25.6463 70.1087 25.7797C68.1888 26.1451 66.9433 27.671 66.9074 29.7013C66.8952 30.3925 66.8952 30.3925 66.222 30.3926C65.3973 30.3926 65.3973 30.3926 65.3619 29.5473C65.2743 27.4566 63.8407 25.9286 61.7778 25.7469C61.5442 25.7264 61.4436 25.6747 61.4568 25.4239C61.4763 25.0506 61.3542 24.6264 61.4939 24.314C61.6546 23.9548 62.1497 24.1371 62.4903 24.0437C64.126 23.5955 65.254 22.1887 65.3572 20.4131C65.3672 20.2419 65.3822 20.0676 65.3614 19.899C65.3213 19.5745 65.4364 19.4523 65.7697 19.4843C66.1239 19.5185 66.5636 19.386 66.816 19.5531C67.0685 19.7202 66.8876 20.1882 66.9195 20.523C67.1121 22.5413 68.5077 23.9745 70.4922 24.1412C70.77 24.1646 70.8373 24.2579 70.812 24.5031C70.7978 24.6421 70.8095 24.7836 70.8095 24.9241ZM66.1399 26.8018C66.6272 26.0084 67.2402 25.4306 67.9967 24.9322C67.2004 24.4587 66.627 23.8373 66.1287 23.0919C65.6411 23.8752 65.0326 24.4605 64.2781 24.9505C65.0607 25.4251 65.6389 26.0269 66.1399 26.8018Z" fill="#231F20"/>
<path fill-rule="evenodd" clip-rule="evenodd" d="M53.1081 25.8424C53.0911 27.7667 52.5706 29.3252 51.397 30.6479C51.2111 30.8574 51.0865 30.95 50.8675 30.6818C50.6418 30.4053 50.2476 30.2059 50.1498 29.9014C50.0395 29.5578 50.5039 29.3491 50.6866 29.0588C51.6915 27.4617 51.6881 25.759 51.264 24.0067C51.006 22.9413 50.6056 21.9292 50.0365 20.9914C49.903 20.7713 49.9421 20.677 50.1498 20.5686C50.3422 20.4681 50.517 20.3336 50.7002 20.2152C51.2287 19.8731 51.2341 19.8705 51.527 20.4079C52.48 22.1574 53.062 24.0124 53.1081 25.8424Z" fill="#231F20"/>
<path fill-rule="evenodd" clip-rule="evenodd" d="M53.2 16C54.1592 16.3413 54.7919 16.9767 55.003 17.9952C55.044 18.1933 55.1337 18.2437 55.3639 18.2039C57.0895 17.9055 58.6654 18.6592 59.5673 20.1849C60.4573 21.6903 60.3418 23.4558 59.2463 24.8203C58.6013 25.6237 57.9447 26.4182 57.2732 27.1994C57.0501 27.4589 56.9264 27.7357 56.8716 28.0664C56.6085 29.6558 55.9426 31.0637 54.919 32.3021C54.3621 32.9758 53.8046 33.6506 53.2148 34.2952C52.9668 34.5662 52.9036 34.7974 53.0936 35.1094C53.1653 35.2274 53.2134 35.3646 53.2479 35.4992C53.3207 35.7824 53.4471 35.8156 53.7153 35.6924C54.7042 35.2381 55.7117 34.824 56.7013 34.3711C57.8052 33.8661 59.2779 34.5179 59.7613 35.7748C60.3537 37.3144 60.9199 38.864 61.4954 40.4101C62.3641 42.7439 63.232 45.0779 64.0984 47.4125C64.62 48.8178 64.1901 49.9325 62.8594 50.6098C61.8884 51.1039 60.9179 51.5999 59.9339 52.0672C59.6476 52.2031 59.6308 52.3277 59.7488 52.5952C60.1381 53.4779 60.5105 54.3686 60.8673 55.2651C60.9637 55.5074 61.0852 55.5916 61.3452 55.5846C62.0475 55.5659 62.7507 55.5701 63.4536 55.5801C64.7003 55.5979 65.3823 56.0835 65.8217 57.2484C65.9811 57.6707 66.1132 58.106 66.3068 58.5116C66.4752 58.8644 66.3525 58.9792 66.028 59.1051C62.3425 60.5351 58.6615 61.9767 54.9828 63.4236C54.5403 63.5976 54.0714 63.7137 53.6684 63.9823C53.6059 63.9823 53.5434 63.9823 53.481 63.9823C53.3645 63.3834 53.0712 62.8494 52.8523 62.2885C52.3443 60.9871 52.5075 60.2298 53.5233 59.2628C54.0096 58.7998 54.4866 58.327 54.9782 57.8698C55.1223 57.7357 55.1566 57.6276 55.0897 57.4298C54.667 56.1762 54.2594 54.9175 53.8583 53.657C53.7963 53.4621 53.6977 53.3952 53.4993 53.3727C52.3524 53.2421 51.2067 53.0996 50.0618 52.9524C49.8753 52.9283 49.7295 53.0075 49.573 53.0724C42.4012 56.0461 35.228 59.0161 28.062 62.0034C27.6536 62.1736 27.4967 62.1223 27.3315 61.7085C26.9622 60.7838 26.9383 60.7951 27.8363 60.4235C32.0776 58.6685 36.3163 56.9073 40.5631 55.1657C40.9515 55.0064 40.9978 54.8636 40.8613 54.4685C40.0529 52.1295 39.2756 49.7794 38.5087 47.4262C38.4001 47.093 38.3041 47.0541 37.9792 47.1854C34.6186 48.5448 31.2477 49.8788 27.8865 51.2364C27.558 51.369 27.4078 51.3353 27.3339 50.9848C27.2554 50.6129 26.8672 50.2164 27.047 49.9168C27.2017 49.659 27.6929 49.6002 28.0381 49.4602C33.8767 47.0896 39.7149 44.718 45.5573 42.3566C45.8189 42.2509 45.9479 42.1248 45.9973 41.8372C46.1241 41.1005 46.2973 40.3719 46.4467 39.639C46.5694 39.0369 46.8372 38.5179 47.3399 38.1529C47.4996 38.0369 47.5159 37.9455 47.463 37.7703C47.2785 37.1586 47.0425 36.7465 46.2453 36.7355C45.0832 36.7195 43.9114 36.611 42.7761 36.281C41.8113 36.0004 40.8828 35.6315 40.0654 35.0551C39.5765 34.7104 39.0596 34.6157 38.5 34.5555C37.4614 34.4438 36.4105 34.4114 35.3887 34.1838C33.6196 33.7898 32.3059 32.3764 32.037 30.631C31.7735 28.9212 32.6146 27.1787 34.1747 26.2852C34.4525 26.1262 34.4762 25.9956 34.3517 25.7471C34.2684 25.5809 34.2096 25.4018 34.1486 25.2254C33.6258 23.7151 34.1887 22.5383 35.695 21.9949C38.1689 21.1027 40.6437 20.2133 43.1177 19.3213C45.987 18.2867 48.8562 17.2518 51.7236 16.2121C51.9045 16.1465 52.1125 16.1447 52.2626 16.0001C52.5752 16 52.8876 16 53.2 16ZM55.5954 25.9299C55.57 25.3619 55.5436 24.7379 55.3827 24.1297C54.869 22.1869 54.1417 20.3128 53.5325 18.4006C53.2977 17.6632 52.9849 17.5196 52.2616 17.7797C46.9455 19.6911 41.63 21.6035 36.3146 23.5171C35.6044 23.7728 35.4489 24.1118 35.7228 24.8113C36.3639 26.4486 36.9903 28.0921 37.6571 29.7191C38.8856 32.7165 41.1204 34.4986 44.3047 35.0409C45.4404 35.2343 46.5991 35.3054 47.7506 35.3838C48.1419 35.4103 48.3297 35.5405 48.4415 35.9065C48.5681 36.3217 48.7635 36.7156 48.9167 37.1234C48.9887 37.3151 49.054 37.3894 49.2821 37.2877C50.0352 36.9522 50.7978 36.6371 51.5652 36.3355C51.8107 36.239 51.8053 36.1274 51.7159 35.918C51.5449 35.5175 51.4177 35.0983 51.2454 34.6987C51.1397 34.4537 51.1678 34.286 51.3509 34.0803C52.0878 33.2526 52.8067 32.4085 53.5248 31.5641C54.8912 29.9569 55.5741 28.0931 55.5954 25.9299ZM55.5568 51.9914C55.8306 52.0249 56.0736 51.9464 56.3189 51.8243C58.103 50.9364 59.8921 50.0585 61.6784 49.1754C62.8636 48.5893 62.8629 48.5645 62.3993 47.3321C62.2884 47.0374 62.1924 46.95 61.8723 47.0733C61.1612 47.3471 60.4339 47.5794 59.7083 47.8136C59.3428 47.9317 58.9018 48.272 58.6292 48.0931C58.3743 47.9257 58.3698 47.3952 58.2245 47.037C58.1215 46.7835 58.1779 46.6929 58.4408 46.6127C59.4233 46.3123 60.3952 45.9777 61.375 45.6681C61.6121 45.5931 61.7051 45.5108 61.5962 45.2441C61.3377 44.6104 61.1054 43.9655 60.8741 43.321C60.8022 43.1204 60.7298 43.0697 60.5055 43.1504C59.7294 43.4296 58.9429 43.6804 58.157 43.9313C57.7918 44.0479 57.3473 44.3834 57.0828 44.2176C56.8269 44.0574 56.825 43.5196 56.6665 43.168C56.5214 42.8459 56.6837 42.7842 56.9368 42.701C57.9276 42.3755 58.908 42.0179 59.9021 41.7033C60.1951 41.6106 60.2096 41.4995 60.1073 41.2484C59.8666 40.6577 59.6365 40.0616 59.4327 39.4574C59.3378 39.1764 59.2421 39.0997 58.9376 39.2111C58.1635 39.4941 57.3733 39.7335 56.5876 39.9841C56.2324 40.0975 55.7894 40.3742 55.5364 40.2559C55.2374 40.116 55.2742 39.5669 55.123 39.2116C55.0129 38.9526 55.0578 38.8388 55.3489 38.75C56.3909 38.432 57.4177 38.064 58.4611 37.7509C58.7933 37.6512 58.824 37.5302 58.6913 37.2439C58.5279 36.8916 58.4087 36.5193 58.2659 36.1573C58.0345 35.5702 57.6695 35.4017 57.0826 35.6519C54.2336 36.8661 51.3895 38.0914 48.5411 39.3067C48.2916 39.4131 48.1004 39.5746 48.047 39.8279C47.8477 40.7733 47.6701 41.7232 47.4903 42.6727C47.4766 42.7445 47.4967 42.8289 47.5207 42.9009C48.4368 45.6468 49.3568 48.3913 50.2691 51.1384C50.3253 51.3074 50.3928 51.3983 50.5816 51.4194C52.2407 51.6051 53.8986 51.7996 55.5568 51.9914ZM42.5851 54.299C42.6498 54.2731 42.6935 54.2563 42.7366 54.2383C44.6718 53.4261 46.6059 52.6111 48.5439 51.8054C48.7427 51.7228 48.7811 51.6422 48.7098 51.4321C47.8842 49.0026 47.0666 46.5704 46.2586 44.135C46.1702 43.8682 46.0618 43.866 45.8327 43.9621C45.0157 44.3049 44.1939 44.6372 43.3649 44.9499C43.104 45.0483 43.0506 45.1397 43.1465 45.4183C43.6778 46.9625 44.1835 48.5156 44.6942 50.0668C44.8096 50.4172 45.0802 50.843 44.9711 51.1062C44.8535 51.39 44.3078 51.3445 43.9737 51.5062C43.6454 51.6652 43.5405 51.5205 43.444 51.2138C43.0195 49.8638 42.5726 48.5206 42.1262 47.1777C41.9659 46.6954 41.7839 46.2203 41.6118 45.7419C41.1173 45.9269 40.623 46.1118 40.1286 46.2969C40.1141 46.3025 40.1017 46.3147 40.087 46.3179C39.8831 46.3628 39.8665 46.4742 39.929 46.6601C40.7618 49.1357 41.5875 51.6135 42.4153 54.0908C42.4475 54.187 42.4465 54.3165 42.5851 54.299ZM61.8174 57.0553C61.3093 57.1193 60.6475 56.9438 60.0063 57.1542C59.0898 57.4547 58.1752 57.7606 57.2568 58.0555C57.0903 58.1091 56.9378 58.1671 56.8081 58.2903C56.0155 59.0429 55.2148 59.7868 54.4267 60.544C54.1152 60.8434 54.0568 61.2063 54.2197 61.6145C54.324 61.8762 54.4305 61.9572 54.7329 61.8351C57.7769 60.6061 60.8291 59.3971 63.8782 58.1806C64.3869 57.9776 64.4285 57.7817 64.0714 57.348C63.8869 57.1238 63.6407 57.0546 63.3637 57.0551C62.8955 57.0559 62.4269 57.0553 61.8174 57.0553ZM37.7253 32.9524C37.5252 32.6602 37.3499 32.4087 37.1794 32.154C36.3141 30.8607 35.8386 29.385 35.2374 27.9691C35.1256 27.7057 35.0441 27.6796 34.8124 27.8306C33.9042 28.4234 33.4497 29.5444 33.6913 30.6474C33.9472 31.815 34.7828 32.6284 35.8954 32.769C36.4829 32.8433 37.074 32.888 37.7253 32.9524ZM55.6611 19.765C56.169 21.4772 56.9026 23.1199 57.1241 25.012C57.5123 24.5219 57.8311 24.1404 58.1266 23.7416C58.7633 22.8825 58.8061 21.7973 58.2547 20.8911C57.7122 19.9992 56.775 19.5862 55.6611 19.765ZM57.9538 52.8307C57.8784 52.8651 57.8092 52.9007 57.7368 52.9286C57.0508 53.1951 56.4555 53.7126 55.6555 53.6676C55.4593 53.6566 55.5405 53.8112 55.5701 53.899C55.8528 54.737 56.1424 55.5729 56.4274 56.4103C56.4771 56.5561 56.5449 56.5894 56.7026 56.534C57.4787 56.2616 58.2578 55.9975 59.0415 55.7479C59.2427 55.6838 59.2777 55.6098 59.1946 55.4218C58.8429 54.6273 58.5036 53.8273 58.1547 53.0314C58.1164 52.9441 58.1084 52.8041 57.9538 52.8307Z" stroke="#231F20" stroke-width="3" mask="url(#path-2-inside-1_118_556)"/>
<path fill-rule="evenodd" clip-rule="evenodd" d="M36.5929 40.485C36.5929 41.1974 36.5929 41.1974 35.8786 41.3337C34.052 41.6819 32.7821 43.1581 32.6959 45.0367C32.6866 45.2393 32.6786 45.4435 32.693 45.6453C32.7087 45.8652 32.6366 45.9523 32.4061 45.9417C32.0322 45.9245 31.5963 46.0544 31.2979 45.9028C30.9383 45.7199 31.1692 45.2327 31.1332 44.8843C30.9235 42.8595 29.6017 41.5223 27.5254 41.301C27.2994 41.277 27.2189 41.2041 27.2459 40.9903C27.2517 40.9442 27.2465 40.8968 27.2466 40.85C27.2483 40.5065 27.1395 40.1049 27.2814 39.8354C27.4359 39.542 27.894 39.689 28.2136 39.6096C29.9531 39.1772 31.101 37.6766 31.1459 35.7413C31.1621 35.047 31.1621 35.047 31.8303 35.047C32.6638 35.047 32.6638 35.047 32.692 35.8894C32.7589 37.8825 34.1332 39.4449 36.0933 39.6735C36.5307 39.7246 36.6537 39.8582 36.5944 40.2513C36.5831 40.3274 36.5929 40.4069 36.5929 40.485ZM31.9172 38.6321C31.4228 39.4337 30.8066 40.0166 30.0651 40.5041C30.8316 40.9684 31.4176 41.5768 31.9198 42.3507C32.4054 41.5818 32.9997 40.9789 33.7766 40.4998C33.0211 40.0158 32.4116 39.4289 31.9172 38.6321Z" stroke="#231F20" stroke-width="3" mask="url(#path-2-inside-1_118_556)"/>
<path fill-rule="evenodd" clip-rule="evenodd" d="M73.9124 40.5071C73.9124 40.5695 73.9053 40.6328 73.9136 40.6941C73.9693 41.1072 73.8845 41.286 73.3757 41.3312C71.4676 41.5001 70.0888 43.1347 70.0288 45.1921C70.0071 45.9377 70.0071 45.9377 69.2553 45.9377C68.4841 45.9377 68.4841 45.9377 68.4709 45.1669C68.4349 43.0745 66.9668 41.4722 64.9084 41.3038C64.6422 41.282 64.5405 41.2014 64.575 40.9448C64.5792 40.9142 64.5754 40.8825 64.5756 40.8513C64.5776 40.5084 64.4696 40.107 64.6117 39.8377C64.767 39.5435 65.2255 39.6874 65.5457 39.608C67.2481 39.1861 68.4376 37.6652 68.4708 35.8359C68.485 35.0467 68.485 35.0467 69.2393 35.0467C70.0028 35.0467 70.0027 35.0467 70.029 35.8252C70.1022 37.9835 71.5057 39.5015 73.6319 39.6988C73.8538 39.7194 73.9389 39.7675 73.9157 39.9928C73.8983 40.1624 73.9124 40.3356 73.9124 40.5071ZM71.1021 40.4968C70.3404 40.0111 69.733 39.4205 69.2465 38.6317C68.7694 39.4079 68.1586 40.0132 67.3876 40.5004C68.1783 40.9803 68.7706 41.5971 69.2506 42.3606C69.5103 41.9358 69.7726 41.6098 70.0693 41.3109C70.3661 41.0119 70.7005 40.7598 71.1021 40.4968Z" stroke="#231F20" stroke-width="3" mask="url(#path-2-inside-1_118_556)"/>
<path fill-rule="evenodd" clip-rule="evenodd" d="M70.8095 24.9241C70.8095 25.6463 70.8095 25.6463 70.1087 25.7797C68.1888 26.1451 66.9433 27.671 66.9074 29.7013C66.8952 30.3925 66.8952 30.3925 66.222 30.3926C65.3973 30.3926 65.3973 30.3926 65.3619 29.5473C65.2743 27.4566 63.8407 25.9286 61.7778 25.7469C61.5442 25.7264 61.4436 25.6747 61.4568 25.4239C61.4763 25.0506 61.3542 24.6264 61.4939 24.314C61.6546 23.9548 62.1497 24.1371 62.4903 24.0437C64.126 23.5955 65.254 22.1887 65.3572 20.4131C65.3672 20.2419 65.3822 20.0676 65.3614 19.899C65.3213 19.5745 65.4364 19.4523 65.7697 19.4843C66.1239 19.5185 66.5636 19.386 66.816 19.5531C67.0685 19.7202 66.8876 20.1882 66.9195 20.523C67.1121 22.5413 68.5077 23.9745 70.4922 24.1412C70.77 24.1646 70.8373 24.2579 70.812 24.5031C70.7978 24.6421 70.8095 24.7836 70.8095 24.9241ZM66.1399 26.8018C66.6272 26.0084 67.2402 25.4306 67.9967 24.9322C67.2004 24.4587 66.627 23.8373 66.1287 23.0919C65.6411 23.8752 65.0326 24.4605 64.2781 24.9505C65.0607 25.4251 65.6389 26.0269 66.1399 26.8018Z" stroke="#231F20" stroke-width="3" mask="url(#path-2-inside-1_118_556)"/>
<path fill-rule="evenodd" clip-rule="evenodd" d="M53.1081 25.8424C53.0911 27.7667 52.5706 29.3252 51.397 30.6479C51.2111 30.8574 51.0865 30.95 50.8675 30.6818C50.6418 30.4053 50.2476 30.2059 50.1498 29.9014C50.0395 29.5578 50.5039 29.3491 50.6866 29.0588C51.6915 27.4617 51.6881 25.759 51.264 24.0067C51.006 22.9413 50.6056 21.9292 50.0365 20.9914C49.903 20.7713 49.9421 20.677 50.1498 20.5686C50.3422 20.4681 50.517 20.3336 50.7002 20.2152C51.2287 19.8731 51.2341 19.8705 51.527 20.4079C52.48 22.1574 53.062 24.0124 53.1081 25.8424Z" stroke="#231F20" stroke-width="3" mask="url(#path-2-inside-1_118_556)"/>
</svg>
