<svg width="100" height="80" viewBox="0 0 100 80" fill="none" xmlns="http://www.w3.org/2000/svg">
<path d="M100 35.5556C100 60.1015 77.6142 80 50 80C22.3858 80 0 60.1015 0 35.5556C0 11.0096 22.3858 0 50 0C77.6142 0 100 11.0096 100 35.5556Z" fill="#FFE9BE"/>
<path fill-rule="evenodd" clip-rule="evenodd" d="M62.3393 41.1189C62.4304 41.0622 62.4852 41.0394 62.5255 41.0014C64.8197 38.8341 67.0692 36.6257 68.9011 34.0352C69.0271 33.8572 69.1396 33.6698 69.2595 33.4875C69.5848 32.993 69.9962 32.8597 70.3943 33.119C70.7917 33.3781 70.84 33.797 70.5181 34.309C69.8018 35.4483 68.9594 36.4918 68.0716 37.5C66.7183 39.0362 65.2813 40.491 63.7832 41.8855C63.7048 41.9583 63.6037 42.0069 63.413 42.133C64.7407 42.3909 65.889 42.7011 66.9691 43.2214C68.8996 44.1512 70.4146 45.5076 71.3232 47.4815C71.6789 48.2548 71.3741 48.7351 70.528 48.7391C69.7628 48.7428 68.9976 48.7465 68.2326 48.736C68.0034 48.733 67.9063 48.7554 67.9574 49.0359C68.3614 51.2568 68.5299 53.4915 68.3053 55.7463C68.2092 56.7106 68.0346 57.6588 67.7394 58.5827C67.5361 59.2191 67.084 59.4052 66.51 59.0691C65.596 58.5338 64.6868 57.9897 63.7875 57.4301C63.5475 57.2808 63.4476 57.3037 63.2962 57.5504C62.301 59.1704 61.287 60.7786 60.277 62.3895C59.7753 63.1895 59.2348 63.1968 58.7096 62.412C57.912 61.2203 57.1098 60.0314 56.326 58.8307C56.1689 58.5899 56.0119 58.5193 55.7219 58.5414C52.578 58.7798 49.4326 59.0022 46.2873 59.2226C45.5025 59.2775 45.2033 58.9703 45.2596 58.1727C45.4811 55.0273 45.7038 51.882 45.9418 48.7379C45.9624 48.4653 45.9004 48.3174 45.6724 48.1685C44.4454 47.3676 43.2284 46.5511 42.0112 45.735C41.3073 45.2631 41.3135 44.6915 42.0301 44.2418C43.6535 43.2228 45.2773 42.2044 46.9098 41.2001C47.1609 41.0458 47.2004 40.935 47.0389 40.6772C46.4929 39.8061 45.9705 38.9201 45.4466 38.0353C45.0616 37.3851 45.2372 36.9531 45.9631 36.7276C48.396 35.9722 50.8814 35.9698 53.3814 36.2246C54.0787 36.2958 54.7728 36.4081 55.4637 36.5279C55.7107 36.5708 55.7492 36.5003 55.746 36.2769C55.7344 35.4807 55.7361 34.6842 55.7432 33.8877C55.7499 33.1353 56.25 32.8077 56.9323 33.1207C59.2807 34.1979 60.7482 36.0632 61.6453 38.4303C61.9694 39.2861 62.1893 40.1718 62.3393 41.1189ZM43.6353 45.0149C44.6997 45.7231 45.7047 46.4336 46.7527 47.0734C47.3559 47.4418 47.5336 47.8849 47.4747 48.5812C47.2328 51.443 47.0575 54.3105 46.83 57.1735C46.7947 57.6183 46.9274 57.6788 47.3244 57.6482C50.1881 57.427 53.0545 57.2431 55.9166 57.0066C56.5856 56.9513 57.0265 57.104 57.3893 57.7026C58.0314 58.7619 58.7528 59.7726 59.4645 60.8389C59.582 60.6602 59.6779 60.5203 59.7678 60.377C60.6689 58.9371 61.568 57.4956 62.4701 56.0563C62.8815 55.3998 63.1801 55.3311 63.8538 55.7328C64.4962 56.1155 65.1372 56.5009 65.7785 56.8856C66.5891 57.372 66.5718 57.3696 66.7116 56.4035C67.106 53.6773 66.8446 50.9875 66.2934 48.3117C66.1493 47.6125 66.4431 47.2443 67.1719 47.2404C67.9149 47.2365 68.6579 47.2395 69.3835 47.2395C69.4059 47.1848 69.4204 47.1662 69.4159 47.1573C69.395 47.1157 69.3719 47.0746 69.3441 47.0374C67.5547 44.6507 64.9959 43.8156 62.1838 43.5242C61.8183 43.4863 61.629 43.9017 61.426 44.153C61.3022 44.3065 61.5922 44.4331 61.7063 44.5552C63.5572 46.5362 64.543 48.8892 64.7317 51.5819C64.7697 52.1244 64.465 52.4733 64.0085 52.4861C63.5678 52.4987 63.2727 52.1864 63.2373 51.669C63.1766 50.7775 62.997 49.911 62.7033 49.0669C62.3559 48.0688 61.886 47.1399 61.1598 46.243C61.1507 46.4446 61.1414 46.5483 61.1419 46.652C61.1486 48.0441 61.0591 49.4281 60.8069 50.7993C60.5381 52.2611 60.1408 53.6823 59.4457 55.0049C59.2048 55.4633 58.7908 55.6042 58.3968 55.3965C58.0242 55.2001 57.88 54.805 58.0825 54.3998C58.9599 52.6438 59.3731 50.7641 59.5515 48.8286C59.6365 47.9055 59.6956 46.9748 59.5825 45.9125C59.4025 46.115 59.2988 46.2441 59.1827 46.3606C56.7985 48.7468 54.413 51.1317 52.0275 53.5163C51.9281 53.6155 51.8329 53.721 51.7226 53.8064C51.3866 54.0661 50.9819 54.0421 50.7066 53.7559C50.4305 53.469 50.4209 53.0713 50.6906 52.738C50.7785 52.6293 50.8841 52.5347 50.9834 52.4353C53.3684 50.0501 55.7545 47.6659 58.1362 45.2773C58.2485 45.1645 58.4186 45.0851 58.4409 44.8896C58.3856 44.8799 58.3402 44.8659 58.2944 44.8646C55.4705 44.7851 52.7246 45.1225 50.147 46.3749C49.6824 46.6005 49.2787 46.4745 49.0755 46.0601C48.8866 45.6748 49.0281 45.294 49.4565 45.0438C49.5505 44.9891 49.6492 44.9417 49.7477 44.8953C51.855 43.9033 54.0932 43.4782 56.4028 43.3775C56.9835 43.3522 57.5663 43.3737 58.2762 43.3737C57.8671 42.9856 57.5254 42.7756 57.1804 42.5769C55.8227 41.7945 54.3623 41.3415 52.7949 41.2423C52.2857 41.21 51.973 40.8973 51.9956 40.4546C52.0172 40.0314 52.3427 39.7489 52.8228 39.7453C52.9785 39.7441 53.1352 39.7543 53.2902 39.7716C55.9009 40.0644 58.1823 41.0661 60.068 42.9213C60.1379 42.9902 60.1804 43.1183 60.3167 43.0889C60.4751 43.0548 60.9797 42.3946 60.9627 42.2333C60.7424 40.1373 60.1766 38.166 58.8513 36.4767C58.4118 35.9166 57.905 35.4261 57.2412 35.0122C57.2412 35.8635 57.2503 36.6405 57.2383 37.4175C57.2292 38.0164 56.8248 38.337 56.2448 38.2076C55.2693 37.9901 54.2852 37.8276 53.2923 37.7243C51.3754 37.5248 49.4626 37.4998 47.5557 37.8579C47.1794 37.9285 47.1728 38.0227 47.3583 38.3172C47.8399 39.0817 48.2943 39.8635 48.7572 40.6397C49.1487 41.2962 49.0713 41.6054 48.4108 42.0197C47.3545 42.6823 46.2967 43.3421 45.2402 44.0042C44.7148 44.3335 44.1903 44.6653 43.6353 45.0149Z" fill="#231F20"/>
<path fill-rule="evenodd" clip-rule="evenodd" d="M49.0341 28.2573C50.4782 27.7686 51.896 27.1983 53.3863 26.8532C55.0956 26.4573 56.8054 26.303 58.5126 26.863C58.7043 26.9258 58.9009 26.9893 59.0745 27.0889C59.4269 27.2914 59.5723 27.5968 59.4263 27.9972C59.2868 28.3797 58.904 28.6054 58.5255 28.4546C56.3753 27.5978 54.2829 28.0586 52.2211 28.7509C50.0237 29.4887 47.8626 30.3339 45.6662 31.0743C43.4548 31.82 41.1873 32.3118 38.8319 32.2383C33.9514 32.0859 30.4855 29.0863 28.8571 25.1733C28.6981 24.791 28.6944 24.4352 29.0466 24.1613C29.4004 23.8862 29.7408 23.9837 30.0727 24.233C30.7844 24.7674 31.532 25.2428 32.364 25.5724C32.4014 25.5736 32.4386 25.5747 32.476 25.5758C32.4666 25.5367 32.4572 25.4975 32.4479 25.4585C31.9875 23.5849 31.534 21.7098 31.0612 19.8394C30.9571 19.4277 31.0001 19.0877 31.3731 18.8605C31.7552 18.6279 32.0797 18.777 32.3821 19.0591C33.7449 20.3304 35.2032 21.4628 36.9535 22.1658C37.3168 22.3116 37.6931 22.4093 38.077 22.4701C38.841 22.5908 39.4915 22.3592 40.0266 21.8015C40.833 20.961 41.1873 19.9007 41.471 18.8091C41.6784 18.0109 42.0817 17.8044 42.7993 18.1847C44.6742 19.1782 45.9541 20.606 46.0795 22.8317C46.0983 23.1674 46.2828 23.0688 46.4469 23.0421C47.4308 22.8815 48.4141 22.7176 49.396 22.5457C50.1927 22.4061 50.582 22.7966 50.4521 23.5927C50.1898 25.2014 49.6854 26.7301 48.9709 28.1923C48.9306 28.21 48.8935 28.2381 48.9308 28.2794C48.9426 28.2924 48.9985 28.2656 49.0341 28.2573ZM33.1658 21.7398C33.1576 21.7015 33.1467 21.6584 33.0975 21.6894C33.0878 21.6955 33.1108 21.7533 33.1188 21.7871C33.4681 23.2084 33.8228 24.6282 34.1607 26.0519C34.2107 26.2629 34.3289 26.3086 34.5069 26.3596C35.3935 26.6143 36.3103 26.7171 37.2067 26.9125C38.3626 27.1644 39.2334 26.698 40.0572 25.9986C40.6437 25.5005 41.1181 24.899 41.6233 24.325C42.0763 23.8104 42.7689 23.9031 42.9571 24.5358C43.4837 26.3048 44.6495 27.6335 45.8708 28.9366C46.1097 29.1917 46.2612 29.1973 46.5055 28.9536C47.8249 27.6363 48.3617 25.9546 48.8128 24.2079C48.7229 24.197 48.6918 24.1862 48.6632 24.1909C47.6632 24.3544 46.6626 24.5142 45.6638 24.6855C44.7624 24.8401 44.4096 24.495 44.5555 23.5853C44.784 22.1603 44.0145 20.6048 42.7352 19.9196C42.4379 20.8114 42.0788 21.6737 41.4929 22.4182C40.5252 23.6475 39.2908 24.2069 37.7121 23.9255C36.905 23.7816 36.1583 23.4862 35.4288 23.1275C34.6305 22.7351 33.9245 22.195 33.1658 21.7398ZM41.9871 26.2095C41.3164 26.9245 40.6525 27.5361 39.8449 27.9688C39.2368 28.2948 38.6283 28.5569 37.8961 28.4857C35.8663 28.2881 33.8928 27.8782 32.0086 27.0809C31.905 27.0371 31.8053 26.9302 31.6597 27.0593C32.6669 28.353 33.8876 29.3631 35.403 30.0035C37.272 30.7931 39.2164 30.8775 41.1943 30.6103C42.347 30.4545 43.4791 30.2022 44.6337 29.8216C43.5907 28.7128 42.6679 27.5834 41.9871 26.2095Z" fill="#231F20"/>
<path fill-rule="evenodd" clip-rule="evenodd" d="M64.044 29.2541C63.6086 29.2268 63.3365 29.0333 63.2572 28.6554C63.1673 28.2278 63.3715 27.9217 63.7745 27.7781C64.7803 27.4195 65.6988 26.9057 66.553 26.2698C68.1453 25.0839 69.2954 23.5688 69.9649 21.695C69.9753 21.6658 69.9803 21.6344 69.9915 21.6055C70.1795 21.1202 70.553 20.901 70.9605 21.0364C71.3968 21.1815 71.5727 21.5929 71.4029 22.1003C70.7003 24.1982 69.4564 25.9137 67.7261 27.2824C66.7426 28.0604 65.6654 28.676 64.4914 29.1187C64.3324 29.1785 64.1658 29.2175 64.044 29.2541Z" fill="#231F20"/>
<path fill-rule="evenodd" clip-rule="evenodd" d="M35.4951 48.0031C35.3556 47.9655 35.2009 47.9392 35.058 47.8827C31.7418 46.5732 29.3491 44.3371 28.1133 40.9451C28.039 40.741 27.9549 40.5324 28.0284 40.3086C28.1296 40.0002 28.3403 39.8005 28.6626 39.7585C28.9869 39.7164 29.2484 39.8529 29.4013 40.1419C29.5022 40.333 29.5596 40.5467 29.6412 40.7484C30.78 43.5597 32.8563 45.3947 35.6371 46.4893C35.9887 46.6277 36.2346 46.8354 36.2418 47.23C36.2478 47.5563 36.0828 47.7938 35.78 47.9235C35.6959 47.9593 35.6026 47.9738 35.4951 48.0031Z" fill="#231F20"/>
<path fill-rule="evenodd" clip-rule="evenodd" d="M31.7919 38.9902C32.0795 39.0011 32.3463 39.1553 32.4469 39.4892C33.0362 41.445 34.5219 42.5308 36.2289 43.3971C36.9135 43.7445 37.1393 44.0848 36.9244 44.5476C36.6984 45.0345 36.2739 45.1007 35.5623 44.7504C34.0863 44.0237 32.7914 43.0746 31.8385 41.7072C31.47 41.1783 31.1987 40.6028 31.0386 39.9793C30.9044 39.4573 31.2317 39.0031 31.7919 38.9902Z" fill="#231F20"/>
<path fill-rule="evenodd" clip-rule="evenodd" d="M63.2311 26.2478C62.8633 26.2231 62.603 26.0337 62.5159 25.6819C62.4176 25.2843 62.5837 24.9816 62.9595 24.8057C63.781 24.4215 64.5598 23.9697 65.2529 23.3781C66.0625 22.6872 66.7066 21.8886 67.0041 20.8405C67.1344 20.3819 67.5326 20.1589 67.9327 20.269C68.3539 20.3849 68.5665 20.7971 68.4375 21.2728C68.0628 22.6534 67.2054 23.7044 66.1333 24.6012C65.4006 25.2141 64.5893 25.7066 63.7213 26.1049C63.5663 26.1759 63.4118 26.2561 63.2311 26.2478Z" fill="#231F20"/>
<path fill-rule="evenodd" clip-rule="evenodd" d="M33.1188 21.7871C33.1108 21.7533 33.0878 21.6955 33.0975 21.6894C33.1467 21.6584 33.1576 21.7015 33.1658 21.7398C33.1503 21.7558 33.1347 21.7716 33.1188 21.7871Z" fill="#FBFBFB"/>
<path fill-rule="evenodd" clip-rule="evenodd" d="M32.4479 25.4585C32.4572 25.4975 32.4666 25.5367 32.476 25.5758C32.4386 25.5747 32.4014 25.5736 32.364 25.5724C32.392 25.5344 32.4199 25.4965 32.4479 25.4585Z" fill="#FDFDFD"/>
<path fill-rule="evenodd" clip-rule="evenodd" d="M49.0341 28.2573C48.9985 28.2656 48.9426 28.2924 48.9308 28.2794C48.8935 28.2381 48.9306 28.21 48.9709 28.1923C48.9924 28.2135 49.0135 28.2351 49.0341 28.2573Z" fill="#FDFDFD"/>
</svg>
