<svg width="100" height="80" viewBox="0 0 100 80" fill="none" xmlns="http://www.w3.org/2000/svg">
<path d="M100 35.5556C100 60.1015 77.6142 80 50 80C22.3858 80 0 60.1015 0 35.5556C0 11.0096 22.3858 0 50 0C77.6142 0 100 11.0096 100 35.5556Z" fill="#FFE9BE"/>
<path fill-rule="evenodd" clip-rule="evenodd" d="M32.2584 54.7029C31.6599 54.7029 31.1498 54.7029 30.6399 54.7029C29.4143 54.7029 28.1885 54.6968 26.9629 54.7062C26.5578 54.7093 26.2269 54.6113 26.0612 54.2074C25.9018 53.819 26.0739 53.527 26.3446 53.2597C26.9298 52.6819 27.5115 52.1004 28.0906 51.5164C29.4392 50.1564 29.4451 48.4198 28.1058 47.0663C27.5501 46.5046 26.9925 45.9447 26.4288 45.3908C26.1283 45.0956 25.8704 44.7952 26.0719 44.3353C26.2712 43.881 26.6645 43.861 27.0859 43.8615C31.7143 43.8662 36.3426 43.8643 40.971 43.8643C41.147 43.8643 41.3231 43.8643 41.4992 43.8643C41.5076 43.8413 41.5161 43.8184 41.5247 43.7954C41.1397 43.628 40.7564 43.4568 40.3695 43.2941C38.4144 42.4715 36.4585 41.6513 34.5029 40.83C33.8305 40.5476 33.7434 40.415 33.7434 39.6648C33.7431 37.3103 33.7375 34.9558 33.7504 32.6013C33.752 32.3016 33.6746 32.1583 33.3823 32.043C31.6792 31.3698 29.9879 30.6666 28.2893 29.9816C27.8947 29.8226 27.5428 29.6337 27.5557 29.1421C27.5685 28.6554 27.9088 28.4792 28.3234 28.3414C35.1527 26.0703 41.9795 23.7917 48.805 21.5089C49.0955 21.4117 49.3597 21.412 49.649 21.5088C56.4952 23.797 63.3429 26.0814 70.1921 28.3602C70.5579 28.4819 70.8444 28.6613 70.8914 29.0651C70.9416 29.496 70.7062 29.774 70.32 29.911C70.1345 29.9768 70.1269 30.0914 70.1272 30.2434C70.1287 32.0174 70.1322 33.7913 70.1227 35.5652C70.1215 35.77 70.2149 35.8908 70.3426 36.0175C70.9262 36.5967 71.4995 37.187 72.0921 37.7569C72.4713 38.122 72.5303 38.492 72.2857 38.9683C71.5507 40.3987 70.8408 41.842 70.1268 43.2831C69.9664 43.6071 69.7561 43.8549 69.3673 43.8606C68.9547 43.8665 68.7415 43.6056 68.5728 43.2639C67.8684 41.8367 67.1517 40.4158 66.4425 38.9909C66.1532 38.4096 66.1867 38.1986 66.6332 37.7492C67.2015 37.1773 67.7716 36.6072 68.3444 36.0398C68.484 35.9015 68.5875 35.7723 68.5858 35.5475C68.574 33.9354 68.5795 32.3232 68.5795 30.6795C68.1279 30.7536 67.7513 30.9725 67.3548 31.1256C66.5905 31.421 65.8431 31.7602 65.0755 32.0455C64.785 32.1534 64.6998 32.2934 64.7018 32.5982C64.7157 34.9365 64.7096 37.2748 64.7095 39.6133C64.7094 40.4554 64.658 40.5318 63.8631 40.8666C61.5565 41.8384 59.2496 42.8099 56.9415 43.8643C57.0724 43.8643 57.203 43.8643 57.3337 43.8643C59.5431 43.8646 61.7526 43.8461 63.9617 43.8696C67.07 43.9025 69.4721 46.4376 69.3448 49.5437C69.2953 50.7546 68.8553 51.831 68.0765 52.7642C67.9872 52.8713 67.8939 52.9752 67.7389 53.154C68.4245 53.154 69.028 53.154 69.6317 53.154C70.7766 53.154 71.9217 53.1595 73.0667 53.1512C73.4547 53.1485 73.7661 53.2531 73.931 53.6317C74.0993 54.0177 73.9398 54.3145 73.6689 54.5835C73.0513 55.1975 72.4308 55.8085 71.8222 56.4312C70.5886 57.6934 70.5854 59.4462 71.8142 60.7073C72.3882 61.2962 72.9735 61.8742 73.5592 62.4518C73.8568 62.7451 74.1275 63.0421 73.9351 63.5046C73.7454 63.9602 73.3578 63.996 72.932 63.9959C62.0627 63.9919 51.1934 63.9928 40.3241 63.9928C38.9049 63.9928 37.4856 64.0061 36.0666 63.9895C32.9098 63.953 30.5047 61.3911 30.6568 58.244C30.7156 57.0229 31.1853 55.9628 32.2584 54.7029ZM30.6629 29.1926C30.7537 29.3573 30.8976 29.3685 31.0097 29.4142C36.9884 31.8515 42.9695 34.2831 48.9473 36.7227C49.1628 36.8107 49.3341 36.7973 49.5419 36.7124C55.5188 34.2713 61.4983 31.8364 67.4756 29.3966C67.5851 29.3519 67.7466 29.3665 67.7801 29.1882C61.7029 27.1622 55.6235 25.1366 49.5458 23.1059C49.3185 23.0299 49.1197 23.0424 48.8931 23.1182C42.827 25.1442 36.7584 27.1632 30.6629 29.1926ZM28.6572 53.154C28.8468 53.154 28.926 53.154 29.0052 53.154C40.5031 53.154 52.0009 53.154 63.4985 53.154C63.5469 53.154 63.5963 53.1478 63.6435 53.1552C63.8764 53.1911 63.9438 53.0952 63.9395 52.8628C63.9256 52.1051 63.9051 51.3456 63.9455 50.5898C63.9693 50.1449 63.8332 50.0477 63.3996 50.0481C52.7567 50.0611 42.1136 50.0583 31.4705 50.0583C30.6418 50.0583 30.6449 50.0594 30.3703 50.8084C30.2932 51.0191 30.2002 51.225 30.1001 51.4258C29.7725 52.0828 29.2291 52.5665 28.6572 53.154ZM71.3954 54.703C71.0782 54.703 70.9074 54.703 70.7364 54.703C59.8187 54.703 48.9009 54.703 37.9831 54.703C37.467 54.703 36.9502 54.7203 36.4353 54.6962C36.1449 54.6828 36.047 54.7509 36.0578 55.0615C36.0838 55.8024 36.093 56.5463 36.0556 57.2861C36.0345 57.7041 36.1396 57.8105 36.5714 57.8101C47.344 57.7958 58.1167 57.7988 68.8892 57.7988C68.9537 57.7988 69.0197 57.7903 69.0825 57.8003C69.3319 57.8407 69.4349 57.7507 69.495 57.4891C69.6945 56.62 70.1447 55.8841 70.7888 55.2678C70.9573 55.1067 71.1298 54.9499 71.3954 54.703ZM71.2352 62.4436C71.2618 62.4055 71.2884 62.3673 71.3149 62.3289C71.0892 62.1282 70.8508 61.9398 70.6403 61.7243C70.1138 61.1854 69.7095 60.5605 69.5504 59.8212C69.466 59.4297 69.3061 59.3373 68.9167 59.3377C58.1442 59.3503 47.3717 59.3478 36.5991 59.3478C36.5185 59.3478 36.4365 59.3572 36.3574 59.346C36.1248 59.3129 36.0564 59.4056 36.0608 59.6387C36.0749 60.3963 36.0952 61.156 36.055 61.9118C36.0312 62.356 36.1663 62.4542 36.6006 62.4537C47.9859 62.4408 59.3712 62.4435 70.7564 62.4435C70.9161 62.4437 71.0758 62.4436 71.2352 62.4436ZM28.6305 45.4133C29.516 46.2216 30.2347 47.0074 30.4662 48.0959C30.545 48.4666 30.7198 48.5165 31.0485 48.5159C36.4482 48.5066 41.8476 48.5093 47.2473 48.5093C52.6629 48.5093 58.0786 48.5057 63.4942 48.5177C63.8465 48.5185 63.9616 48.4497 63.9444 48.0772C63.9104 47.3374 63.914 46.594 63.9433 45.8538C63.9573 45.4994 63.8727 45.4 63.5026 45.4033C61.2301 45.4233 58.9574 45.4124 56.6847 45.4137C55.476 45.4144 54.232 45.2414 53.0686 45.4725C51.9263 45.6994 50.866 46.3387 49.7698 46.7973C49.7551 46.8037 49.742 46.8136 49.7276 46.821C49.3881 46.9974 49.0645 46.9712 48.7125 46.8155C47.7579 46.3935 46.7876 46.007 45.8294 45.5932C45.543 45.4695 45.2594 45.4088 44.946 45.4092C39.7075 45.4151 34.4692 45.4133 29.2308 45.4133C29.0737 45.4133 28.9167 45.4133 28.6305 45.4133ZM63.1603 32.8591C63.0719 32.8848 63.0114 32.8968 62.9551 32.9197C58.7318 34.637 54.5099 36.3587 50.2824 38.0658C50.0048 38.1778 49.9975 38.3478 49.998 38.5811C50.0024 40.6111 49.9998 42.6412 50.0027 44.6713C50.0029 44.7717 49.9563 44.89 50.0718 44.9899C54.3648 43.1844 58.6546 41.3797 62.9453 39.577C63.092 39.5153 63.1654 39.4385 63.1649 39.2601C63.1577 37.1359 63.1603 35.0115 63.1603 32.8591ZM48.4518 45.0198C48.4518 44.8225 48.4518 44.6818 48.4518 44.5409C48.4518 42.5748 48.4431 40.6087 48.4602 38.6428C48.4632 38.3051 48.3652 38.1506 48.046 38.0217C44.0859 36.4224 40.1332 34.8048 36.1774 33.1949C35.8937 33.0794 35.6228 32.9181 35.292 32.8729C35.292 35.0043 35.2989 37.0991 35.2837 39.1936C35.2817 39.474 35.4298 39.5351 35.6277 39.6183C38.6328 40.8811 41.6362 42.1476 44.6399 43.4132C45.894 43.942 47.1483 44.4705 48.4518 45.0198ZM65.5061 52.7776C66.923 52.2066 67.8422 50.7348 67.8027 49.1518C67.7663 47.6938 66.7727 46.2354 65.5061 45.8072C65.5061 48.124 65.5061 50.433 65.5061 52.7776ZM34.5105 55.0842C33.052 55.6207 32.083 57.2455 32.2028 58.8845C32.3207 60.5005 33.6096 61.8754 34.5105 62.0298C34.5105 59.7266 34.5105 57.4246 34.5105 55.0842ZM69.3543 41.3603C69.6189 40.8273 69.8375 40.3999 70.0445 39.9666C70.2636 39.5076 70.7464 39.0318 70.64 38.5999C70.534 38.1704 69.978 37.852 69.6194 37.4848C69.597 37.4617 69.5725 37.4405 69.5526 37.4154C69.4299 37.2599 69.3208 37.2359 69.1674 37.3995C68.8376 37.7509 68.4912 38.0866 68.147 38.4238C68.035 38.5335 67.9766 38.6188 68.0663 38.7921C68.491 39.6124 68.8964 40.4426 69.3543 41.3603Z" fill="#231F20"/>
<path fill-rule="evenodd" clip-rule="evenodd" d="M65.5003 23.7396C65.1368 23.7233 64.8779 23.5535 64.7548 23.2178C64.2816 21.928 63.3998 21.0561 62.1122 20.5833C61.7943 20.4667 61.6223 20.2188 61.6166 19.8795C61.6109 19.5407 61.7694 19.2786 62.0882 19.1618C63.412 18.6774 64.3024 17.7729 64.7876 16.4527C64.8978 16.1529 65.1515 16.0052 65.4688 16.0001C65.8083 15.9947 66.0695 16.1537 66.1866 16.4719C66.6665 17.7752 67.5489 18.6675 68.8528 19.1487C69.1702 19.2658 69.3432 19.5139 69.3487 19.8526C69.3548 20.2148 69.168 20.4705 68.834 20.5936C67.5455 21.0684 66.6736 21.9504 66.2002 23.2366C66.0826 23.556 65.8305 23.7103 65.5003 23.7396ZM65.5572 21.1956C65.5582 21.1935 65.5733 21.1461 65.6017 21.1085C65.9221 20.6838 66.2919 20.3069 66.7199 19.9913C66.9019 19.8571 66.7869 19.7919 66.6802 19.711C66.2822 19.4087 65.9265 19.062 65.6334 18.6578C65.499 18.4724 65.4246 18.5338 65.3188 18.6761C65.0303 19.0639 64.6933 19.4075 64.303 19.6923C64.1227 19.8239 64.118 19.9064 64.3018 20.0397C64.6929 20.3234 65.0244 20.6715 65.3214 21.0525C65.3667 21.1107 65.395 21.2013 65.5572 21.1956Z" fill="#231F20"/>
<path fill-rule="evenodd" clip-rule="evenodd" d="M32.9366 25.2869C32.612 25.2559 32.3644 25.0959 32.2472 24.7777C31.7735 23.4909 30.9011 22.6088 29.6102 22.138C29.2939 22.0226 29.113 21.7808 29.103 21.441C29.0923 21.0796 29.2694 20.8175 29.6058 20.6936C30.8934 20.2196 31.7718 19.3446 32.2455 18.0558C32.3689 17.7202 32.6281 17.5398 32.9902 17.5486C33.3303 17.5569 33.5736 17.7348 33.6898 18.0513C34.1626 19.3398 35.0419 20.2143 36.3276 20.6908C36.6624 20.8149 36.8438 21.0743 36.8354 21.4359C36.827 21.7998 36.6186 22.0373 36.2897 22.1591C35.037 22.6234 34.1776 23.4743 33.7158 24.7307C33.5875 25.0797 33.332 25.2784 32.9366 25.2869ZM34.3011 21.3668C34.2815 21.3515 34.2455 21.3225 34.2087 21.2945C33.7848 20.973 33.4081 20.6031 33.0924 20.1753C32.9532 19.9866 32.8881 20.122 32.8119 20.2211C32.5171 20.6044 32.1836 20.9499 31.7952 21.2372C31.6269 21.3616 31.5865 21.4432 31.7826 21.5843C32.1749 21.8665 32.5155 22.2079 32.7986 22.5995C32.9373 22.7914 33.0206 22.7608 33.1467 22.5891C33.4328 22.1995 33.7798 21.8674 34.1619 21.5712C34.2201 21.5258 34.3096 21.4967 34.3011 21.3668Z" fill="#231F20"/>
</svg>
