<svg width="30" height="30" viewBox="0 0 30 30" fill="none" xmlns="http://www.w3.org/2000/svg">
<path d="M30 13.3333C30 22.5381 23.2843 30 15 30C6.71573 30 0 22.5381 0 13.3333C0 4.12859 6.71573 0 15 0C23.2843 0 30 4.12859 30 13.3333Z" fill="white"/>
<path fill-rule="evenodd" clip-rule="evenodd" d="M11.2929 8.29289C10.9024 8.68342 10.9024 9.31658 11.2929 9.70711L16.5858 15L11.2929 20.2929C10.9024 20.6834 10.9024 21.3166 11.2929 21.7071C11.6834 22.0976 12.3166 22.0976 12.7071 21.7071L18.7071 15.7071C19.0976 15.3166 19.0976 14.6834 18.7071 14.2929L12.7071 8.29289C12.3166 7.90237 11.6834 7.90237 11.2929 8.29289Z" fill="#FD4F00"/>
</svg>
