<svg width="30" height="30" viewBox="0 0 30 30" fill="none" xmlns="http://www.w3.org/2000/svg">
<path d="M29.5 13.3333C29.5 22.3128 22.9599 29.5 15 29.5C7.04012 29.5 0.5 22.3128 0.5 13.3333C0.5 8.8652 2.12308 5.68209 4.70672 3.60454C7.30633 1.51416 10.9332 0.5 15 0.5C19.0668 0.5 22.6937 1.51416 25.2933 3.60454C27.8769 5.68209 29.5 8.8652 29.5 13.3333Z" fill="#58585A" stroke="white"/>
<path fill-rule="evenodd" clip-rule="evenodd" d="M18.7071 8.29289C19.0976 8.68342 19.0976 9.31658 18.7071 9.70711L13.4142 15L18.7071 20.2929C19.0976 20.6834 19.0976 21.3166 18.7071 21.7071C18.3166 22.0976 17.6834 22.0976 17.2929 21.7071L11.2929 15.7071C10.9024 15.3166 10.9024 14.6834 11.2929 14.2929L17.2929 8.29289C17.6834 7.90237 18.3166 7.90237 18.7071 8.29289Z" fill="white"/>
</svg>
