<svg width="42" height="42" viewBox="0 0 42 42" fill="none" xmlns="http://www.w3.org/2000/svg">
<g clip-path="url(#clip0_118_624)">
<path fill-rule="evenodd" clip-rule="evenodd" d="M21.0007 5.25C21.0009 5.25 21.001 5.25 21.001 7L21.001 8.75L20.8689 8.75019C20.7814 8.75039 20.652 8.75077 20.486 8.75155C20.1539 8.75311 19.6754 8.75623 19.0914 8.76248C17.9228 8.77498 16.3355 8.79997 14.6567 8.84985C12.9752 8.89982 11.2161 8.97437 9.69971 9.08497C8.14552 9.19833 6.99071 9.34081 6.41537 9.49234C5.89264 9.6425 5.41826 9.92693 5.03949 10.3174C4.67001 10.6983 4.40417 11.1671 4.26681 11.6791C3.74262 14.6079 3.48628 17.5784 3.50098 20.5539L3.50108 20.5735C3.48232 23.5611 3.73673 26.5441 4.26133 29.4853C4.41293 29.9712 4.68143 30.4129 5.04376 30.7715C5.42335 31.1472 5.89314 31.4189 6.40799 31.5607C6.98081 31.713 8.13884 31.8562 9.69971 31.97C11.2161 32.0806 12.9752 32.1552 14.6567 32.2051C16.3355 32.255 17.9228 32.28 19.0914 32.2925C19.6754 32.2988 20.1539 32.3019 20.486 32.3034C20.652 32.3042 20.7814 32.3046 20.8689 32.3048H21.1331C21.2206 32.3046 21.35 32.3042 21.516 32.3034C21.8481 32.3019 22.3266 32.2988 22.9106 32.2925C24.0792 32.28 25.6665 32.255 27.3453 32.2051C29.0268 32.1552 30.7859 32.0806 32.3023 31.97C33.8565 31.8567 35.0113 31.7142 35.5866 31.5627C36.1094 31.4125 36.5837 31.1281 36.9625 30.7376C37.332 30.3567 37.5978 29.8879 37.7352 29.376C38.2553 26.4694 38.5116 23.5216 38.501 20.5688L38.5009 20.5515C38.5198 17.5535 38.2635 14.5601 37.7352 11.6091C37.5978 11.0971 37.332 10.6283 36.9625 10.2474C36.5881 9.8614 36.1202 9.57903 35.6046 9.42755C35.0097 9.2876 33.8506 9.15859 32.3133 9.05621C30.7939 8.95502 29.0323 8.88688 27.3498 8.84123C25.6698 8.79565 24.0814 8.77282 22.9122 8.7614C22.3279 8.75569 21.8491 8.75284 21.5167 8.75142L21.1334 8.75018L21.001 8.75L21.001 7C21.001 5.25 21.0009 5.25 21.0007 5.25L21.1405 5.25018C21.2306 5.25036 21.3628 5.25073 21.5317 5.25145C21.8696 5.2529 22.3549 5.25579 22.9464 5.26157C24.1287 5.27312 25.7384 5.29622 27.4447 5.34252C29.1484 5.38874 30.9612 5.45841 32.5459 5.56395C34.0852 5.66646 35.5461 5.81029 36.4661 6.03495C36.4866 6.03996 36.5071 6.04534 36.5274 6.0511C37.6476 6.36801 38.6642 6.97491 39.4748 7.81051C40.2853 8.64611 40.861 9.6808 41.1436 10.8101C41.1531 10.8479 41.1613 10.886 41.1682 10.9244C41.742 14.1054 42.0208 17.3326 42.001 20.5648C42.0119 23.7488 41.7332 26.9271 41.1682 30.0605C41.1613 30.0989 41.1531 30.1371 41.1436 30.1749C40.861 31.3042 40.2853 32.3389 39.4748 33.1745C38.6642 34.0101 37.6476 34.617 36.5274 34.9339L36.5031 34.9406C35.5692 35.1903 34.0957 35.3485 32.5569 35.4608C30.9692 35.5766 29.1539 35.6529 27.4492 35.7036C25.7417 35.7543 24.131 35.7797 22.948 35.7923C22.3562 35.7987 21.8706 35.8018 21.5324 35.8034C21.3633 35.8042 21.2311 35.8046 21.1408 35.8048L21.0018 35.805L20.8612 35.8048C20.7709 35.8046 20.6386 35.8042 20.4696 35.8034C20.1314 35.8018 19.6458 35.7987 19.054 35.7923C17.871 35.7797 16.2603 35.7543 14.5528 35.7036C12.8481 35.6529 11.0328 35.5766 9.4451 35.4608C7.90632 35.3485 6.43275 35.1903 5.49887 34.9406L5.48914 34.938C4.39176 34.6377 3.39039 34.0595 2.58174 33.2592C1.7731 32.4589 1.18454 31.4635 0.872923 30.3693C0.857104 30.3138 0.844045 30.2575 0.833794 30.2007C0.260075 27.02 -0.0187141 23.7932 0.000974141 20.5613C-0.0142758 17.3536 0.264491 14.1513 0.83378 10.9944C0.840701 10.956 0.848902 10.9179 0.85837 10.8801C1.14103 9.7508 1.71669 8.71611 2.52722 7.88051C3.33775 7.04491 4.35444 6.43801 5.47459 6.1211L5.49887 6.11442C6.43275 5.86466 7.90632 5.70648 9.4451 5.59425C11.0328 5.47844 12.848 5.40205 14.5528 5.3514C16.2603 5.30066 17.871 5.27533 19.054 5.26268C19.6458 5.25635 20.1314 5.25318 20.4696 5.25159C20.6386 5.2508 20.7709 5.2504 20.8612 5.2502L21.0007 5.25Z" fill="white"/>
<path fill-rule="evenodd" clip-rule="evenodd" d="M16.1826 13.3272C16.7212 13.0138 17.3859 13.0106 17.9276 13.3186L27.9901 19.0411C28.5371 19.3522 28.875 19.9331 28.875 20.5623C28.875 21.1916 28.5371 21.7725 27.9901 22.0836L17.9276 27.8061C17.3859 28.1141 16.7212 28.1109 16.1826 27.7975C15.6439 27.4842 15.3125 26.908 15.3125 26.2848V14.8398C15.3125 14.2167 15.6439 13.6405 16.1826 13.3272ZM18.8125 17.8483V23.2764L23.585 20.5623L18.8125 17.8483Z" fill="white"/>
</g>
<defs>
<clipPath id="clip0_118_624">
<rect width="42" height="42" fill="white"/>
</clipPath>
</defs>
</svg>
